{
.appVersion = "3099";
.formatVersion = 3;
DisplayStrings = (
"AÆBCDÐEFGHIJKLMNŊOØŒPÞQRSƏTUVWXYZaæbcðeʒfghiıjȷklłmnŋoøœþrsßtuvwxyz/a.alt i/f_f_i.liga/f_f_l.liga/g_j.liga/a.sc/ae.sc/b.sc/c.sc/d.sc/eth.sc/e.sc/f.sc/g.sc/h.sc/i.sc/j.sc/k.sc/l.sc/m.sc/n.sc/eng.sc/o.sc/oslash.sc/oe.sc/p.sc/thorn.sc/q.sc/r.sc/s.sc/t.sc/u.sc/v.sc/w.sc/x.sc/y.sc/z.sc ªºΔΩπ012345678/zero.ss01/zero.tf/one.tf/two.tf/three.tf/four.tf/five.tf/six.tf/seven.tf/eight.tf/nine.tf/zero.tf.ss01/zero.dnom/one.dnom/two.dnom/three.dnom/four.dnom/five.dnom/six.dnom/seven.dnom/eight.dnom/nine.dnom ⁄⟩,;!?•*#//-–—_({[“‘›\"'ƒ@&¶§©®™°|¦†ℓ‡℮/at.alt ¢¤$€£₺₽¥∙∕+−÷≠>¬~^∞∫∆∏∑√µ∂%◊̵̶̷̸̨̛̇́̋̂̆̊̃̄̉ˉ˘¯˛/cedillacomb.alt/cedilla.alt"
);
axes = (
{
name = Weight;
tag = wght;
},
{
name = Width;
tag = wdth;
}
);
customParameters = (
{
name = "Use Typo Metrics";
value = 1;
},
{
name = fsType;
value = (
);
},
{
name = "Write lastChange";
value = 0;
},
{
name = "Use Line Breaks";
value = 1;
},
{
name = "Has WWS Names";
value = 1;
},
{
name = "Axis Mappings";
value = {
wdth = {
300 = 75;
400 = 87;
500 = 100;
};
wght = {
30 = 100;
39 = 200;
53 = 300;
71 = 400;
96 = 500;
116 = 600;
141 = 700;
166 = 800;
188 = 900;
};
};
},
{
name = blueScale;
value = 0.06196;
},
{
name = "Use Line Breaks";
value = 1;
},
{
name = "Variable Font Origin";
value = "DCBE1F7B-116A-43E0-B7B4-8657BA77D8B5";
},
{
name = "Get Hints From Master";
value = "4E2227F3-52E4-4048-A8EE-327B486EF0A4";
}
);
date = "2021-10-10 07:15:54 +0000";
familyName = Barlow;
featurePrefixes = (
{
automatic = 1;
code = "languagesystem DFLT dflt;

languagesystem latn dflt;
languagesystem latn AZE;
languagesystem latn CRT;
languagesystem latn KAZ;
languagesystem latn TAT;
languagesystem latn TRK;
languagesystem latn CAT;
";
name = Languagesystems;
}
);
features = (
{
automatic = 1;
code = "feature locl;
feature sups;
feature numr;
feature dnom;
feature frac;
feature ordn;
feature pnum;
feature tnum;
feature c2sc;
feature smcp;
feature case;
feature ss01;
";
tag = aalt;
},
{

glyphs = (
{
glyphname = A;
layers = (
{
anchors = (
{
name = bottom;
pos = (275,0);
},
{
name = ogonek;
pos = (503,0);
},
{
name = top;
pos = (274,700);
}
);
hints = (
{
horizontal = 1;
origin = (1,3);
target = (1,2);
type = Stem;
}
);
layerId = "262880E7-CFE1-4BDA-902E-E24798F3240A";
shapes = (
{
closed = 1;
nodes = (
(54,0,l),
(277,680,l),
(271,680,l),
(496,0,l),
(518,0,l),
(285,700,l),
(263,700,l),
(32,0,l)
);
},
{
closed = 1;
nodes = (
(451,155,l),
(451,176,l),
(100,176,l),
(100,155,l)
);
}
);
width = 549;
},
{
anchors = (
{
name = bottom;
pos = (252,0);
},
{
name = ogonek;
pos = (431,0);
},
{
name = top;
pos = (252,700);
}
);
hints = (
{
horizontal = 1;
origin = (0,3,1,0);
stem = -1;
target = (0,3,1,2);
type = TTStem;
},
{
horizontal = 1;
origin = (0,7);
type = TTSnap;
}
);
layerId = "4E2227F3-52E4-4048-A8EE-327B486EF0A4";
shapes = (
{
closed = 1;
nodes = (
(186,0,l),
(257,520,l),
(237,520,l),
(313,0,l),
(505,0,l),
(357,700,l),
(147,700,l),
(-2,0,l)
);
},
{
closed = 1;
nodes = (
(385,95,l),
(385,239,l),
(115,239,l),
(115,95,l)
);
}
);
width = 504;
},
{
anchors = (
{
name = bottom;
pos = (340,0);
},
{
name = ogonek;
pos = (601,0);
},
{
name = top;
pos = (338,700);
}
);
layerId = "FFFA8D72-12AC-4CE0-B2CA-57A29829F4DA";
shapes = (
{
closed = 1;
nodes = (
(203,0,l),
(350,520,l),
(327,520,l),
(477,0,l),
(679,0,l),
(459,700,l),
(221,700,l),
(1,0,l)
);
},
{
closed = 1;
nodes = (
(506,95,l),
(506,239,l),
(171,239,l),
(171,95,l)
);
}
);
width = 680;
},
{
anchors = (
{
name = bottom;
pos = (193,0);
},
{
name = ogonek;
pos = (348,0);
},
{
name = top;
pos = (192,700);
}
);
layerId = "DCBE1F7B-116A-43E0-B7B4-8657BA77D8B5";
shapes = (
{
closed = 1;
nodes = (
(45,0,l),
(194,671,l),
(190,671,l),
(340,0,l),
(362,0,l),
(203,700,l),
(180,700,l),
(23,0,l)
);
},
{
closed = 1;
nodes = (
(317,155,l),
(317,176,l),
(71,176,l),
(71,155,l)
);
}
);
width = 384;
}
);
unicode = 65;
},
{
glyphname = AE;
layers = (
{
hints = (
{
origin = (0,10);
target = (0,0);
type = Stem;
},
{
origin = (0,2);
target = (0,5);
type = Stem;
},
{
origin = (0,9);
target = (0,6);
type = Stem;
},
{
horizontal = 1;
place = (155, 21);
place = (155, 21);
type = Stem;
},
{
horizontal = 1;
place = (340, 21);
place = (340, 21);
type = Stem;
},
{
horizontal = 1;
origin = (0,3);
target = (0,4);
type = Stem;
},
{
origin = (0,2);
target = (0,5);
type = Stem;
},
{
horizontal = 1;
origin = (0,8);
target = (0,7);
type = Stem;
}
);
layerId = "262880E7-CFE1-4BDA-902E-E24798F3240A";
shapes = (
{
closed = 1;
nodes = (
(38,0,l),
(406,684,l),
(406,0,l),
(797,0,l),
(797,21,l),
(428,21,l),
(428,679,l),
(797,679,l),
(797,700,l),
(392,700,l),
(13,0,l)
);
},
{
closed = 1;
nodes = (
(419,155,l),
(419,176,l),
(118,176,l),
(113,155,l)
);
},
{
closed = 1;
nodes = (
(688,340,l),
(688,361,l),
(417,361,l),
(417,340,l)
);
}
);
width = 841;
},
{
layerId = "FFFA8D72-12AC-4CE0-B2CA-57A29829F4DA";
shapes = (
{
closed = 1;
nodes = (
(196,0,l),
(423,483,l),
(423,0,l),
(933,0,l),
(933,161,l),
(611,161,l),
(611,539,l),
(933,539,l),
(933,700,l),
(333,700,l),
(-11,0,l)
);
},
{
closed = 1;
nodes = (
(458,95,l),
(476,239,l),
(141,239,l),
(103,95,l)
);
},
{
closed = 1;
nodes = (
(819,275,l),
(819,435,l),
(499,435,l),
(499,275,l)
);
}
);
width = 964;
},
{
layerId = "DCBE1F7B-116A-43E0-B7B4-8657BA77D8B5";
shapes = (
{
closed = 1;
nodes = (
(31,0,l),
(327,660,l),
(326,0,l),
(609,0,l),
(609,21,l),
(349,21,l),
(349,679,l),
(609,679,l),
(609,700,l),
(325,700,l),
(9,0,l)
);
},
{
closed = 1;
nodes = (
(338,155,l),
(343,176,l),
(97,176,l),
(92,155,l)
);
},
{
closed = 1;
nodes = (
(526,340,l),
(526,361,l),
(338,361,l),
(338,340,l)
);
}
);
width = 637;
},
{
hints = (
{
horizontal = 1;
origin = (0,10);
type = TTSnap;
},
{
horizontal = 1;
options = 4;
origin = (0,10);
target = (0,2);
type = TTShift;
},
{
horizontal = 1;
origin = (0,9);
type = TTSnap;
},
{
horizontal = 1;
origin = (2,0);
stem = -1;
target = (2,1);
type = TTStem;
},
{
horizontal = 1;
origin = (0,2,1,0);
stem = -1;
target = (0,2,1,2);
type = TTStem;
},
{
horizontal = 1;
origin = (0,3);
stem = -1;
target = (0,4);
type = TTStem;
}
);
layerId = "4E2227F3-52E4-4048-A8EE-327B486EF0A4";
shapes = (
{
closed = 1;
nodes = (
(186,0,l),
(351,468,l),
(351,0,l),
(751,0,l),
(751,161,l),
(539,161,l),
(539,539,l),
(751,539,l),
(751,700,l),
(269,700,l),
(-12,0,l)
);
},
{
closed = 1;
nodes = (
(438,95,l),
(438,239,l),
(168,239,l),
(168,95,l)
);
},
{
closed = 1;
nodes = (
(659,270,l),
(659,431,l),
(427,431,l),
(427,270,l)
);
}
);
width = 765;
}
);
unicode = 198;
},
{
glyphname = B;
layers = (
{
hints = (
{
horizontal = 1;
origin = (1,0);
target = (2,8);
type = Stem;
},
{
horizontal = 1;
place = (700, -21);
place = (700, -21);
type = Stem;
},
{
origin = (0,14);
target = (1,0);
type = Stem;
},
{
horizontal = 1;
place = (0, 22);
place = (0, 22);
type = Stem;
},
{
origin = (1,4);
target = (0,3);
type = Stem;
}
);
layerId = "262880E7-CFE1-4BDA-902E-E24798F3240A";
shapes = (
{
closed = 1;
nodes = (
(338,0,ls),
(452,0,o),
(527,74,o),
(527,186,cs),
(527,275,o),
(477,342,o),
(398,364,c),
(398,360,l),
(473,382,o),
(520,442,o),
(520,523,cs),
(520,629,o),
(445,700,o),
(332,700,cs),
(100,700,l),
(100,0,l)
);
},
{
closed = 1;
nodes = (
(122,352,l),
(332,352,ls),
(436,352,o),
(505,286,o),
(505,186,cs),
(505,88,o),
(438,22,o),
(338,22,cs),
(122,22,l)
);
},
{
closed = 1;
nodes = (
(122,679,l),
(332,679,ls),
(432,679,o),
(498,617,o),
(498,523,cs),
(498,433,o),
(432,373,o),
(332,373,cs),
(122,373,l)
);
}
);
width = 591;
},
{
hints = (
{
horizontal = 1;
origin = (0,13);
stem = -1;
target = (2,1);
type = TTStem;
},
{
horizontal = 1;
origin = (0,0);
stem = -1;
target = (1,7);
type = TTStem;
},
{
horizontal = 1;
origin = (0,14);
type = TTSnap;
},
{
horizontal = 1;
origin = (0,15);
type = TTSnap;
}
);
layerId = "4E2227F3-52E4-4048-A8EE-327B486EF0A4";
shapes = (
{
closed = 1;
nodes = (
(256,0,ls),
(375,0,o),
(474,65,o),
(472,201,cs),
(471,297,o),
(422,354,o),
(357,384,c),
(352,339,l),
(423,367,o),
(458,417,o),
(458,503,cs),
(458,640,o),
(365,700,o),
(226,700,cs),
(30,700,l),
(30,0,l)
);
},
{
closed = 1;
nodes = (
(218,293,l),
(242,293,ls),
(267,293,o),
(284,266,o),
(284,225,cs),
(284,182,o),
(266,161,o),
(241,161,cs),
(218,161,l)
);
},
{
closed = 1;
nodes = (
(218,539,l),
(229,539,ls),
(259,539,o),
(274,520,o),
(274,483,cs),
(274,447,o),
(259,427,o),
(229,427,cs),
(218,427,l)
);
}
);
width = 481;
},
{
layerId = "FFFA8D72-12AC-4CE0-B2CA-57A29829F4DA";
shapes = (
{
closed = 1;
nodes = (
(336,0,ls),
(478,0,o),
(595,55,o),
(595,200,cs),
(595,293,o),
(550,353,o),
(449,382,c),
(451,342,l),
(538,365,o),
(584,414,o),
(584,502,cs),
(584,650,o),
(490,700,o),
(327,700,cs),
(52,700,l),
(52,0,l)
);
},
{
closed = 1;
nodes = (
(240,276,l),
(337,276,ls),
(383,276,o),
(407,257,o),
(407,220,cs),
(407,181,o),
(383,161,o),
(336,161,cs),
(240,161,l)
);
},
{
closed = 1;
nodes = (
(240,539,l),
(327,539,ls),
(375,539,o),
(400,520,o),
(400,484,cs),
(400,448,o),
(375,429,o),
(327,429,cs),
(240,429,l)
);
}
);
width = 616;
},
{
layerId = "DCBE1F7B-116A-43E0-B7B4-8657BA77D8B5";
shapes = (
{
closed = 1;
nodes = (
(206,0,ls),
(309,0,o),
(370,69,o),
(370,186,cs),
(370,280,o),
(332,342,o),
(264,364,c),
(264,360,l),
(331,381,o),
(369,437,o),
(369,523,cs),
(369,635,o),
(308,700,o),
(205,700,cs),
(69,700,l),
(69,0,l)
);
},
{
closed = 1;
nodes = (
(91,352,l),
(205,352,ls),
(295,352,o),
(348,291,o),
(348,186,cs),
(348,83,o),
(295,22,o),
(205,22,cs),
(91,22,l)
);
},
{
closed = 1;
nodes = (
(91,679,l),
(205,679,ls),
(294,679,o),
(347,621,o),
(347,523,cs),
(347,429,o),
(294,373,o),
(205,373,cs),
(91,373,l)
);
}
);
width = 410;
}
);
unicode = 66;
userData = {
KernOnName = B;
};
},
{
glyphname = C;
layers = (
{
anchors = (
{
name = bottom;
pos = (252,-9);
},
{
name = top;
pos = (288,700);
}
);
hints = (
{
origin = (0,27);
target = (0,12);
type = Stem;
},
{
origin = (0,5);
target = (0,2);
type = Stem;
},
{
horizontal = 1;
origin = (0,31);
target = (0,8);
type = Stem;
},
{
horizontal = 1;
origin = (0,24);
target = (0,15);
type = Stem;
}
);
layerId = "262880E7-CFE1-4BDA-902E-E24798F3240A";
shapes = (
{
closed = 1;
nodes = (
(418,-9,o),
(505,74,o),
(505,198,cs),
(505,207,l),
(483,208,l),
(483,196,ls),
(483,86,o),
(405,12,o),
(288,12,cs),
(170,12,o),
(92,86,o),
(92,196,cs),
(92,504,ls),
(92,614,o),
(170,687,o),
(288,687,cs),
(405,687,o),
(483,614,o),
(483,504,cs),
(483,491,l),
(505,492,l),
(505,503,ls),
(505,626,o),
(418,708,o),
(288,708,cs),
(157,708,o),
(70,626,o),
(70,503,cs),
(70,198,ls),
(70,74,o),
(157,-9,o),
(288,-9,cs)
);
}
);
width = 559;
},
{
anchors = (
{
name = bottom;
pos = (239,-8);
},
{
name = top;
pos = (239,700);
}
);
hints = (
{
horizontal = 1;
origin = (0,24);
stem = -1;
target = (0,15);
type = TTStem;
},
{
horizontal = 1;
origin = (0,31);
stem = -1;
target = (0,8);
type = TTStem;
},
{
horizontal = 1;
origin = (0,24);
type = TTSnap;
},
{
horizontal = 1;
origin = (0,31);
type = TTSnap;
}
);
layerId = "4E2227F3-52E4-4048-A8EE-327B486EF0A4";
shapes = (
{
closed = 1;
nodes = (
(370,-8,o),
(458,75,o),
(458,205,cs),
(458,224,l),
(270,231,l),
(270,189,ls),
(270,167,o),
(258,153,o),
(239,153,cs),
(220,153,o),
(208,167,o),
(208,189,cs),
(208,510,ls),
(208,532,o),
(220,547,o),
(239,547,cs),
(258,547,o),
(270,532,o),
(270,510,cs),
(270,470,l),
(458,477,l),
(458,497,ls),
(458,627,o),
(370,708,o),
(239,708,cs),
(107,708,o),
(20,627,o),
(20,497,cs),
(20,205,ls),
(20,75,o),
(107,-8,o),
(239,-8,cs)
);
}
);
width = 463;
},
{
anchors = (
{
name = bottom;
pos = (284,-8);
},
{
name = top;
pos = (304,700);
}
);
layerId = "FFFA8D72-12AC-4CE0-B2CA-57A29829F4DA";
shapes = (
{
closed = 1;
nodes = (
(470,-8,o),
(580,89,o),
(580,235,cs),
(580,244,l),
(392,254,l),
(392,242,ls),
(392,189,o),
(357,153,o),
(304,153,cs),
(251,153,o),
(216,189,o),
(216,242,cs),
(216,457,ls),
(216,511,o),
(251,547,o),
(304,547,cs),
(357,547,o),
(392,511,o),
(392,457,cs),
(392,445,l),
(580,457,l),
(580,467,ls),
(580,612,o),
(470,708,o),
(304,708,cs),
(138,708,o),
(28,606,o),
(28,452,cs),
(28,250,ls),
(28,95,o),
(138,-8,o),
(304,-8,cs)
);
}
);
width = 592;
},
{
anchors = (
{
name = bottom;
pos = (205,-8);
},
{
name = top;
pos = (205,700);
}
);
layerId = "DCBE1F7B-116A-43E0-B7B4-8657BA77D8B5";
shapes = (
{
closed = 1;
nodes = (
(296,-8,o),
(356,54,o),
(356,148,cs),
(356,177,l),
(333,178,l),
(333,147,ls),
(333,67,o),
(282,13,o),
(205,13,cs),
(129,13,o),
(78,67,o),
(78,147,cs),
(78,554,ls),
(78,634,o),
(129,687,o),
(205,687,cs),
(282,687,o),
(333,634,o),
(333,554,cs),
(333,521,l),
(356,522,l),
(356,553,ls),
(356,647,o),
(296,708,o),
(205,708,cs),
(116,708,o),
(56,647,o),
(56,553,cs),
(56,148,ls),
(56,54,o),
(116,-8,o),
(205,-8,cs)
);
}
);
width = 395;
}
);
unicode = 67;
},
{
glyphname = D;
layers = (
{
anchors = (
{
name = top;
pos = (301,700);
}
);
hints = (
{
horizontal = 1;
origin = (0,7);
target = (1,1);
type = Stem;
},
{
origin = (0,8);
target = (1,0);
type = Stem;
},
{
horizontal = 1;
origin = (0,9);
target = (1,9);
type = Stem;
},
{
origin = (1,5);
target = (0,3);
type = Stem;
}
);
layerId = "262880E7-CFE1-4BDA-902E-E24798F3240A";
shapes = (
{
closed = 1;
nodes = (
(335,0,ls),
(454,0,o),
(527,68,o),
(527,180,cs),
(527,520,ls),
(527,632,o),
(454,700,o),
(335,700,cs),
(100,700,l),
(100,0,l)
);
},
{
closed = 1;
nodes = (
(122,679,l),
(337,679,ls),
(441,679,o),
(505,619,o),
(505,520,cs),
(505,179,ls),
(505,81,o),
(441,21,o),
(337,21,cs),
(122,21,l)
);
}
);
width = 597;
},
{
anchors = (
{
name = top;
pos = (238,700);
}
);
hints = (
{
horizontal = 1;
origin = (0,8);
type = TTSnap;
},
{
horizontal = 1;
origin = (0,9);
type = TTSnap;
},
{
horizontal = 1;
origin = (0,0);
stem = -1;
target = (1,8);
type = TTStem;
},
{
horizontal = 1;
origin = (0,7);
stem = -1;
target = (1,1);
type = TTStem;
}
);
layerId = "4E2227F3-52E4-4048-A8EE-327B486EF0A4";
shapes = (
{
closed = 1;
nodes = (
(242,0,ls),
(376,0,o),
(465,80,o),
(465,200,cs),
(465,500,ls),
(465,620,o),
(376,700,o),
(242,700,cs),
(30,700,l),
(30,0,l)
);
},
{
closed = 1;
nodes = (
(218,539,l),
(237,539,ls),
(261,539,o),
(277,519,o),
(277,488,c),
(277,213,l),
(275,183,o),
(259,163,o),
(238,162,cs),
(218,161,l)
);
}
);
width = 485;
},
{
anchors = (
{
name = top;
pos = (306,700);
}
);
layerId = "FFFA8D72-12AC-4CE0-B2CA-57A29829F4DA";
shapes = (
{
closed = 1;
nodes = (
(324,0,ls),
(488,0,o),
(598,90,o),
(598,225,cs),
(598,475,ls),
(598,610,o),
(488,700,o),
(324,700,cs),
(52,700,l),
(52,0,l)
);
},
{
closed = 1;
nodes = (
(240,539,l),
(330,539,ls),
(378,539,o),
(410,501,o),
(410,443,c),
(410,257,l),
(408,199,o),
(376,161,o),
(331,161,cs),
(240,161,l)
);
}
);
width = 626;
},
{
anchors = (
{
name = top;
pos = (206,700);
}
);
layerId = "DCBE1F7B-116A-43E0-B7B4-8657BA77D8B5";
shapes = (
{
closed = 1;
nodes = (
(213,0,ls),
(303,0,o),
(359,68,o),
(359,180,cs),
(359,520,ls),
(359,632,o),
(303,700,o),
(213,700,cs),
(69,700,l),
(69,0,l)
);
},
{
closed = 1;
nodes = (
(91,679,l),
(214,679,ls),
(290,679,o),
(336,619,o),
(336,520,cs),
(336,179,ls),
(336,81,o),
(289,21,o),
(214,21,cs),
(91,21,l)
);
}
);
width = 414;
}
);
unicode = 68;
},
{
glyphname = Eth;
layers = (
{
layerId = "262880E7-CFE1-4BDA-902E-E24798F3240A";
shapes = (
{
closed = 1;
nodes = (
(286,356,l),
(286,377,l),
(21,377,l),
(21,356,l)
);
},
{
pos = (-11,0);
ref = D;
}
);
width = 586;
},
{
layerId = "FFFA8D72-12AC-4CE0-B2CA-57A29829F4DA";
shapes = (
{
closed = 1;
nodes = (
(319,296,l),
(319,421,l),
(17,421,l),
(17,296,l)
);
},
{
pos = (20,0);
ref = D;
}
);
width = 646;
},
{
layerId = "DCBE1F7B-116A-43E0-B7B4-8657BA77D8B5";
shapes = (
{
closed = 1;
nodes = (
(188,355,l),
(188,376,l),
(0,376,l),
(0,355,l)
);
},
{
pos = (-20,0);
ref = D;
}
);
width = 394;
},
{
layerId = "4E2227F3-52E4-4048-A8EE-327B486EF0A4";
shapes = (
{
closed = 1;
nodes = (
(251,314,l),
(251,419,l),
(10,419,l),
(10,314,l)
);
},
{
pos = (6,0);
ref = D;
}
);
width = 491;
}
);
unicode = 208;
},
{
glyphname = E;
layers = (
{
anchors = (
{
name = bottom;
pos = (313,0);
},
{
name = ogonek;
pos = (494,0);
},
{
name = top;
pos = (310,700);
},
{
name = topleft;
pos = (3,700);
}
);
hints = (
{
horizontal = 1;
origin = (1,0);
target = (1,1);
type = Stem;
},
{
horizontal = 1;
origin = (0,0);
target = (0,1);
type = Stem;
},
{
origin = (0,7);
target = (0,2);
type = Stem;
},
{
horizontal = 1;
origin = (0,5);
target = (0,4);
type = Stem;
}
);
layerId = "262880E7-CFE1-4BDA-902E-E24798F3240A";
shapes = (
{
closed = 1;
nodes = (
(531,0,l),
(531,21,l),
(122,21,l),
(122,679,l),
(531,679,l),
(531,700,l),
(100,700,l),
(100,0,l)
);
},
{
closed = 1;
nodes = (
(422,340,l),
(422,361,l),
(111,361,l),
(111,340,l)
);
}
);
width = 563;
},
{
anchors = (
{
name = bottom;
pos = (222,0);
},
{
name = ogonek;
pos = (325,0);
},
{
name = top;
pos = (231,700);
},
{
name = topleft;
pos = (24,700);
}
);
layerId = "4E2227F3-52E4-4048-A8EE-327B486EF0A4";
shapes = (
{
closed = 1;
nodes = (
(430,0,l),
(430,161,l),
(218,161,l),
(218,539,l),
(430,539,l),
(430,700,l),
(30,700,l),
(30,0,l)
);
},
{
closed = 1;
nodes = (
(338,270,l),
(338,431,l),
(106,431,l),
(106,270,l)
);
}
);
width = 444;
},
{
anchors = (
{
name = bottom;
pos = (313,0);
},
{
name = ogonek;
pos = (449,0);
},
{
name = top;
pos = (304,700);
},
{
name = topleft;
pos = (33,700);
}
);
layerId = "FFFA8D72-12AC-4CE0-B2CA-57A29829F4DA";
shapes = (
{
closed = 1;
nodes = (
(559,0,l),
(559,161,l),
(240,161,l),
(240,539,l),
(559,539,l),
(559,700,l),
(52,700,l),
(52,0,l)
);
},
{
closed = 1;
nodes = (
(445,275,l),
(445,435,l),
(128,435,l),
(128,275,l)
);
}
);
width = 599;
},
{
anchors = (
{
name = bottom;
pos = (208,0);
},
{
name = ogonek;
pos = (319,0);
},
{
name = top;
pos = (210,700);
},
{
name = topleft;
pos = (-2,700);
}
);
layerId = "DCBE1F7B-116A-43E0-B7B4-8657BA77D8B5";
shapes = (
{
closed = 1;
nodes = (
(351,0,l),
(351,21,l),
(91,21,l),
(91,679,l),
(351,679,l),
(351,700,l),
(69,700,l),
(69,0,l)
);
},
{
closed = 1;
nodes = (
(268,340,l),
(268,361,l),
(80,361,l),
(80,340,l)
);
}
);
width = 379;
}
);
unicode = 69;
userData = {
KernOnName = E;
};
},
{
glyphname = F;
layers = (
{
hints = (
{
horizontal = 1;
origin = (0,3);
target = (0,2);
type = Stem;
},
{
horizontal = 1;
origin = (1,0);
target = (1,1);
type = Stem;
},
{
origin = (0,5);
target = (0,0);
type = Stem;
}
);
layerId = "262880E7-CFE1-4BDA-902E-E24798F3240A";
shapes = (
{
closed = 1;
nodes = (
(122,0,l),
(122,679,l),
(530,679,l),
(530,700,l),
(100,700,l),
(100,0,l)
);
},
{
closed = 1;
nodes = (
(421,340,l),
(421,361,l),
(111,361,l),
(111,340,l)
);
}
);
width = 554;
},
{
hints = (
{
horizontal = 1;
origin = (0,3);
stem = -1;
target = (0,2);
type = TTStem;
},
{
horizontal = 1;
origin = (1,0);
stem = -1;
target = (1,1);
type = TTStem;
},
{
horizontal = 1;
origin = (0,4);
type = TTSnap;
},
{
horizontal = 1;
origin = (0,5);
type = TTSnap;
}
);
layerId = "4E2227F3-52E4-4048-A8EE-327B486EF0A4";
shapes = (
{
closed = 1;
nodes = (
(218,0,l),
(218,539,l),
(430,539,l),
(430,700,l),
(30,700,l),
(30,0,l)
);
},
{
closed = 1;
nodes = (
(338,270,l),
(338,431,l),
(106,431,l),
(106,270,l)
);
}
);
width = 439;
},
{
layerId = "FFFA8D72-12AC-4CE0-B2CA-57A29829F4DA";
shapes = (
{
closed = 1;
nodes = (
(240,0,l),
(240,539,l),
(558,539,l),
(558,700,l),
(52,700,l),
(52,0,l)
);
},
{
closed = 1;
nodes = (
(445,275,l),
(445,435,l),
(128,435,l),
(128,275,l)
);
}
);
width = 578;
},
{
layerId = "DCBE1F7B-116A-43E0-B7B4-8657BA77D8B5";
shapes = (
{
closed = 1;
nodes = (
(91,0,l),
(91,679,l),
(349,679,l),
(349,700,l),
(69,700,l),
(69,0,l)
);
},
{
closed = 1;
nodes = (
(267,340,l),
(267,361,l),
(80,361,l),
(80,340,l)
);
}
);
width = 364;
}
);
unicode = 70;
userData = {
KernOnName = F;
};
},
{
color = 3;
glyphname = G;
layers = (
{
anchors = (
{
name = bottom;
pos = (204,-8);
},
{
name = top;
pos = (205,700);
}
);
layerId = "DCBE1F7B-116A-43E0-B7B4-8657BA77D8B5";
shapes = (
{
closed = 1;
nodes = (
(295,-8,o),
(355,52,o),
(355,144,cs),
(355,332,l),
(212,332,l),
(212,311,l),
(333,311,l),
(333,143,ls),
(333,65,o),
(282,13,o),
(205,13,cs),
(129,13,o),
(78,65,o),
(78,143,cs),
(78,557,ls),
(78,635,o),
(129,687,o),
(205,687,cs),
(282,687,o),
(333,635,o),
(333,557,cs),
(333,500,l),
(355,500,l),
(355,556,ls),
(355,648,o),
(295,708,o),
(205,708,cs),
(116,708,o),
(56,648,o),
(56,556,cs),
(56,144,ls),
(56,52,o),
(116,-8,o),
(205,-8,cs)
);
}
);
width = 407;
},
{
anchors = (
{
name = bottom;
pos = (236,-8);
},
{
name = top;
pos = (239,700);
}
);
hints = (
{
horizontal = 1;
origin = (0,26);
type = TTSnap;
},
{
horizontal = 1;
origin = (0,33);
type = TTSnap;
},
{
horizontal = 1;
origin = (0,33);
stem = -1;
target = (0,10);
type = TTStem;
},
{
horizontal = 1;
origin = (0,26);
stem = -1;
target = (0,17);
type = TTStem;
}
);
layerId = "4E2227F3-52E4-4048-A8EE-327B486EF0A4";
shapes = (
{
closed = 1;
nodes = (
(370,-8,o),
(458,72,o),
(458,196,cs),
(458,395,l),
(241,395,l),
(241,250,l),
(270,250,l),
(270,195,ls),
(270,170,o),
(258,153,o),
(239,153,cs),
(220,153,o),
(208,170,o),
(208,195,cs),
(208,505,ls),
(208,530,o),
(220,547,o),
(239,547,cs),
(258,547,o),
(270,530,o),
(270,505,cs),
(270,455,l),
(458,455,l),
(458,503,ls),
(458,628,o),
(370,708,o),
(239,708,cs),
(107,708,o),
(20,629,o),
(20,505,cs),
(20,196,ls),
(20,72,o),
(107,-8,o),
(239,-8,cs)
);
}
);
width = 477;
},
{
anchors = (
{
name = bottom;
pos = (216,-8);
},
{
name = top;
pos = (220,700);
}
);
associatedMasterId = "4E2227F3-52E4-4048-A8EE-327B486EF0A4";
attr = {
coordinates = (
100,
300
);
};
layerId = "8F788E01-B0E4-440E-90D9-C7ECABE182EE";
name = "{100,300}";
shapes = (
{
closed = 1;
nodes = (
(329,-8,o),
(403,61,o),
(403,168,cs),
(403,364,l),
(215,364,l),
(215,278,l),
(303,278,l),
(303,167,ls),
(303,114,o),
(270,78,o),
(220,78,cs),
(171,78,o),
(138,114,o),
(138,167,cs),
(138,533,ls),
(138,586,o),
(171,622,o),
(220,622,cs),
(270,622,o),
(303,586,o),
(303,533,cs),
(303,479,l),
(403,479,l),
(403,531,ls),
(403,639,o),
(329,708,o),
(220,708,cs),
(111,708,o),
(39,639,o),
(39,532,cs),
(39,168,ls),
(39,61,o),
(111,-8,o),
(220,-8,cs)
);
}
);
width = 440;
},
{
anchors = (
{
name = bottom;
pos = (285,-8);
},
{
name = top;
pos = (285,700);
}
);
hints = (
{
origin = (0,29);
target = (0,14);
type = Stem;
},
{
horizontal = 1;
origin = (0,26);
target = (0,17);
type = Stem;
},
{
origin = (0,21);
target = (0,22);
type = Stem;
},
{
horizontal = 1;
origin = (0,5);
target = (0,4);
type = Stem;
},
{
horizontal = 1;
origin = (0,33);
target = (0,10);
type = Stem;
}
);
layerId = "262880E7-CFE1-4BDA-902E-E24798F3240A";
shapes = (
{
closed = 1;
nodes = (
(417,-8,o),
(503,73,o),
(503,194,cs),
(503,337,l),
(296,337,l),
(296,316,l),
(481,316,l),
(481,193,ls),
(481,85,o),
(403,13,o),
(287,13,cs),
(169,13,o),
(91,85,o),
(91,193,cs),
(91,507,ls),
(91,615,o),
(169,687,o),
(287,687,cs),
(403,687,o),
(481,615,o),
(481,507,cs),
(481,480,l),
(503,480,l),
(503,506,ls),
(503,627,o),
(417,708,o),
(287,708,cs),
(156,708,o),
(69,627,o),
(69,506,cs),
(69,194,ls),
(69,73,o),
(156,-8,o),
(287,-8,cs)
);
}
);
width = 566;
},
{
anchors = (
{
name = bottom;
pos = (303,-8);
},
{
name = top;
pos = (303,708);
}
);
layerId = "FFFA8D72-12AC-4CE0-B2CA-57A29829F4DA";
shapes = (
{
closed = 1;
nodes = (
(468,-8,o),
(578,96,o),
(578,246,cs),
(578,398,l),
(287,398,l),
(287,248,l),
(395,248,l),
(395,230,l),
(395,180,o),
(359,153,o),
(311,153,cs),
(258,153,o),
(215,192,o),
(215,250,cs),
(215,450,ls),
(215,508,o),
(250,547,o),
(303,547,cs),
(360,547,o),
(391,508,o),
(391,466,cs),
(391,457,l),
(578,457,l),
(578,473,ls),
(578,602,o),
(468,708,o),
(303,708,c),
(137,708,o),
(27,603,o),
(27,445,cs),
(27,256,ls),
(27,98,o),
(137,-8,o),
(303,-8,cs)
);
}
);
width = 606;
},
{
anchors = (
{
name = bottom;
pos = (293,-8);
},
{
name = top;
pos = (293,700);
}
);
associatedMasterId = "4E2227F3-52E4-4048-A8EE-327B486EF0A4";
attr = {
coordinates = (
100,
500
);
};
hints = (
{
origin = (0,29);
target = (0,14);
type = Stem;
},
{
horizontal = 1;
origin = (0,26);
target = (0,17);
type = Stem;
},
{
origin = (0,21);
target = (0,22);
type = Stem;
},
{
horizontal = 1;
origin = (0,5);
target = (0,4);
type = Stem;
},
{
horizontal = 1;
origin = (0,33);
target = (0,10);
type = Stem;
}
);
layerId = "A647F3C7-5120-453C-B94E-0D3288838C7D";
name = "{100,500}";
shapes = (
{
closed = 1;
nodes = (
(441,-8,o),
(538,75,o),
(538,233,cs),
(538,370,l),
(291,370,l),
(291,284,l),
(438,284,l),
(438,206,ls),
(438,126,o),
(384,79,o),
(298,79,cs),
(210,79,o),
(149,135,o),
(149,220,cs),
(149,480,ls),
(149,565,o),
(207,621,o),
(294,621,cs),
(382,621,o),
(438,565,o),
(438,488,cs),
(438,469,l),
(538,469,l),
(538,490,ls),
(538,615,o),
(441,708,o),
(294,708,cs),
(147,708,o),
(49,616,o),
(49,477,cs),
(49,223,ls),
(49,85,o),
(147,-8,o),
(294,-8,cs)
);
}
);
width = 585;
}
);
unicode = 71;
},
{
glyphname = H;
layers = (
{
anchors = (
{
name = strokelong;
pos = (319,509);
},
{
name = top;
pos = (319,701);
}
);
hints = (
{
origin = (1,2);
target = (1,1);
type = Stem;
},
{
origin = (0,2);
target = (0,1);
type = Stem;
},
{
horizontal = 1;
origin = (2,0);
target = (2,1);
type = Stem;
}
);
layerId = "262880E7-CFE1-4BDA-902E-E24798F3240A";
shapes = (
{
closed = 1;
nodes = (
(538,0,l),
(538,700,l),
(516,700,l),
(516,0,l)
);
},
{
closed = 1;
nodes = (
(122,0,l),
(122,700,l),
(100,700,l),
(100,0,l)
);
},
{
closed = 1;
nodes = (
(521,340,l),
(521,361,l),
(117,361,l),
(117,340,l)
);
}
);
width = 638;
},
{
anchors = (
{
name = strokelong;
pos = (247,507);
},
{
name = top;
pos = (247,701);
}
);
hints = (
{
horizontal = 1;
origin = (0,3,2,0);
stem = -1;
target = (0,3,2,2);
type = TTStem;
},
{
horizontal = 1;
origin = (1,2);
type = TTSnap;
},
{
horizontal = 1;
origin = (1,3);
type = TTSnap;
},
{
horizontal = 1;
options = 4;
origin = (1,3);
target = (0,3);
type = TTShift;
},
{
horizontal = 1;
options = 4;
origin = (1,2);
target = (0,2);
type = TTShift;
}
);
layerId = "4E2227F3-52E4-4048-A8EE-327B486EF0A4";
shapes = (
{
closed = 1;
nodes = (
(464,0,l),
(464,700,l),
(276,700,l),
(276,0,l)
);
},
{
closed = 1;
nodes = (
(218,0,l),
(218,700,l),
(30,700,l),
(30,0,l)
);
},
{
closed = 1;
nodes = (
(366,270,l),
(366,431,l),
(131,431,l),
(131,270,l)
);
}
);
width = 494;
},
{
anchors = (
{
name = strokelong;
pos = (323,506);
},
{
name = top;
pos = (325,701);
}
);
layerId = "FFFA8D72-12AC-4CE0-B2CA-57A29829F4DA";
shapes = (
{
closed = 1;
nodes = (
(594,0,l),
(594,700,l),
(406,700,l),
(406,0,l)
);
},
{
closed = 1;
nodes = (
(240,0,l),
(240,700,l),
(52,700,l),
(52,0,l)
);
},
{
closed = 1;
nodes = (
(475,274,l),
(475,435,l),
(173,435,l),
(173,274,l)
);
}
);
width = 646;
},
{
anchors = (
{
name = strokelong;
pos = (211,508);
},
{
name = top;
pos = (208,701);
}
);
layerId = "DCBE1F7B-116A-43E0-B7B4-8657BA77D8B5";
shapes = (
{
closed = 1;
nodes = (
(353,0,l),
(353,700,l),
(331,700,l),
(331,0,l)
);
},
{
closed = 1;
nodes = (
(91,0,l),
(91,700,l),
(69,700,l),
(69,0,l)
);
},
{
closed = 1;
nodes = (
(338,340,l),
(338,361,l),
(86,361,l),
(86,340,l)
);
}
);
width = 422;
}
);
unicode = 72;
userData = {
KernOnName = H;
};
},
{
glyphname = I;
layers = (
{
anchors = (
{
name = bottom;
pos = (111,0);
},
{
name = top;
pos = (111,700);
},
{
name = topleft;
pos = (3,700);
}
);
hints = (
{
origin = (0,2);
target = (0,1);
type = Stem;
}
);
layerId = "262880E7-CFE1-4BDA-902E-E24798F3240A";
shapes = (
{
closed = 1;
nodes = (
(122,0,l),
(122,700,l),
(100,700,l),
(100,0,l)
);
}
);
width = 222;
},
{
anchors = (
{
name = bottom;
pos = (124,0);
},
{
name = top;
pos = (124,700);
},
{
name = topleft;
pos = (24,700);
}
);
hints = (
{
horizontal = 1;
origin = (0,2);
type = TTSnap;
},
{
horizontal = 1;
origin = (0,3);
type = TTSnap;
}
);
layerId = "4E2227F3-52E4-4048-A8EE-327B486EF0A4";
shapes = (
{
closed = 1;
nodes = (
(218,0,l),
(218,700,l),
(30,700,l),
(30,0,l)
);
}
);
width = 248;
},
{
anchors = (
{
name = bottom;
pos = (146,0);
},
{
name = top;
pos = (146,700);
},
{
name = topleft;
pos = (33,700);
}
);
layerId = "FFFA8D72-12AC-4CE0-B2CA-57A29829F4DA";
shapes = (
{
closed = 1;
nodes = (
(240,0,l),
(240,700,l),
(52,700,l),
(52,0,l)
);
}
);
width = 292;
},
{
anchors = (
{
name = bottom;
pos = (80,0);
},
{
name = top;
pos = (80,700);
},
{
name = topleft;
pos = (-2,700);
}
);
layerId = "DCBE1F7B-116A-43E0-B7B4-8657BA77D8B5";
shapes = (
{
closed = 1;
nodes = (
(91,0,l),
(91,700,l),
(69,700,l),
(69,0,l)
);
}
);
width = 160;
}
);
unicode = 73;
},
{
glyphname = J;
layers = (
{
anchors = (
{
name = top;
pos = (455,701);
}
);
hints = (
{
origin = (0,5);
target = (0,2);
type = Stem;
},
{
horizontal = 1;
origin = (0,17);
target = (0,8);
type = Stem;
},
{
origin = (0,13);
target = (0,12);
type = Stem;
}
);
layerId = "262880E7-CFE1-4BDA-902E-E24798F3240A";
shapes = (
{
closed = 1;
nodes = (
(382,-8,o),
(466,70,o),
(466,188,cs),
(466,700,l),
(444,700,l),
(444,187,ls),
(444,83,o),
(369,13,o),
(256,13,cs),
(143,13,o),
(68,83,o),
(68,187,cs),
(68,281,l),
(46,281,l),
(46,188,ls),
(46,70,o),
(130,-8,o),
(256,-8,cs)
);
}
);
width = 561;
},
{
anchors = (
{
name = top;
pos = (345,701);
}
);
hints = (
{
horizontal = 1;
origin = (0,17);
type = TTSnap;
},
{
horizontal = 1;
origin = (0,4);
type = TTSnap;
},
{
horizontal = 1;
origin = (0,17);
stem = -1;
target = (0,8);
type = TTStem;
}
);
layerId = "4E2227F3-52E4-4048-A8EE-327B486EF0A4";
shapes = (
{
closed = 1;
nodes = (
(355,-8,o),
(443,72,o),
(443,192,cs),
(443,700,l),
(255,700,l),
(255,190,ls),
(255,168,o),
(242,153,o),
(224,153,cs),
(207,153,o),
(195,168,o),
(195,190,cs),
(195,265,l),
(7,265,l),
(7,192,ls),
(7,72,o),
(94,-8,o),
(224,-8,cs)
);
}
);
width = 470;
},
{
anchors = (
{
name = top;
pos = (459,701);
}
);
layerId = "FFFA8D72-12AC-4CE0-B2CA-57A29829F4DA";
shapes = (
{
closed = 1;
nodes = (
(441,-8,o),
(551,88,o),
(551,232,cs),
(551,700,l),
(364,700,l),
(364,233,ls),
(364,185,o),
(329,153,o),
(282,153,cs),
(232,153,o),
(203,185,o),
(203,233,cs),
(203,300,l),
(15,300,l),
(15,232,ls),
(15,88,o),
(119,-8,o),
(282,-8,cs)
);
}
);
width = 598;
},
{
anchors = (
{
name = top;
pos = (310,701);
}
);
layerId = "DCBE1F7B-116A-43E0-B7B4-8657BA77D8B5";
shapes = (
{
closed = 1;
nodes = (
(263,-8,o),
(321,54,o),
(321,148,cs),
(321,700,l),
(299,700,l),
(299,147,ls),
(299,67,o),
(250,13,o),
(177,13,cs),
(104,13,o),
(55,67,o),
(55,147,cs),
(55,251,l),
(33,251,l),
(33,148,ls),
(33,54,o),
(91,-8,o),
(177,-8,cs)
);
}
);
width = 387;
}
);
unicode = 74;
},
{
glyphname = K;
layers = (
{
anchors = (
{
name = bottom;
pos = (288,0);
},
{
name = top;
pos = (288,700);
}
);
hints = (
{
origin = (1,2);
target = (1,3);
type = Stem;
}
);
layerId = "262880E7-CFE1-4BDA-902E-E24798F3240A";
shapes = (
{
closed = 1;
nodes = (
(241,403,l),
(528,0,l),
(556,0,l),
(257,420,l)
);
},
{
closed = 1;
nodes = (
(122,700,l),
(100,700,l),
(100,0,l),
(122,0,l)
);
},
{
closed = 1;
nodes = (
(117,273,l),
(248,402,l),
(256,411,l),
(532,700,l),
(506,700,l),
(117,301,l)
);
}
);
width = 575;
},
{
anchors = (
{
name = bottom;
pos = (251,0);
},
{
name = top;
pos = (251,700);
}
);
hints = (
{
horizontal = 1;
origin = (1,1);
type = TTSnap;
},
{
horizontal = 1;
options = 4;
origin = (1,1);
target = (2,4);
type = TTShift;
},
{
horizontal = 1;
origin = (1,2);
type = TTSnap;
},
{
horizontal = 1;
options = 4;
origin = (1,2);
target = (0,1);
type = TTShift;
}
);
layerId = "4E2227F3-52E4-4048-A8EE-327B486EF0A4";
shapes = (
{
closed = 1;
nodes = (
(225,242,l),
(317,0,l),
(515,0,l),
(355,398,l)
);
},
{
closed = 1;
nodes = (
(218,700,l),
(30,700,l),
(30,0,l),
(218,0,l)
);
},
{
closed = 1;
nodes = (
(212,178,l),
(237,242,l),
(354,369,l),
(512,700,l),
(314,700,l),
(212,454,l)
);
}
);
width = 502;
},
{
anchors = (
{
name = bottom;
pos = (317,0);
},
{
name = top;
pos = (317,700);
}
);
layerId = "FFFA8D72-12AC-4CE0-B2CA-57A29829F4DA";
shapes = (
{
closed = 1;
nodes = (
(280,276,l),
(435,0,l),
(645,0,l),
(409,404,l)
);
},
{
closed = 1;
nodes = (
(240,700,l),
(52,700,l),
(52,0,l),
(240,0,l)
);
},
{
closed = 1;
nodes = (
(231,176,l),
(297,275,l),
(408,377,l),
(640,700,l),
(427,700,l),
(231,422,l)
);
}
);
width = 634;
},
{
anchors = (
{
name = bottom;
pos = (198,0);
},
{
name = top;
pos = (198,700);
}
);
layerId = "DCBE1F7B-116A-43E0-B7B4-8657BA77D8B5";
shapes = (
{
closed = 1;
nodes = (
(176,412,l),
(355,0,l),
(382,0,l),
(192,433,l)
);
},
{
closed = 1;
nodes = (
(91,700,l),
(69,700,l),
(69,0,l),
(91,0,l)
);
},
{
closed = 1;
nodes = (
(86,267,l),
(183,411,l),
(192,421,l),
(365,700,l),
(337,700,l),
(86,301,l)
);
}
);
width = 395;
}
);
unicode = 75;
userData = {
KernOnName = K;
};
},
{
glyphname = L;
layers = (
{
anchors = (
{
name = bottom;
pos = (275,0);
},
{
name = top;
pos = (111,700);
}
);
hints = (
{
horizontal = 1;
origin = (0,0);
target = (0,1);
type = Stem;
},
{
origin = (0,4);
target = (0,3);
type = Stem;
}
);
layerId = "262880E7-CFE1-4BDA-902E-E24798F3240A";
shapes = (
{
closed = 1;
nodes = (
(505,0,l),
(505,21,l),
(122,21,l),
(122,700,l),
(100,700,l),
(100,0,l)
);
}
);
width = 528;
},
{
anchors = (
{
name = bottom;
pos = (211,0);
},
{
name = top;
pos = (128,700);
}
);
hints = (
{
horizontal = 1;
origin = (0,4);
type = TTSnap;
},
{
horizontal = 1;
origin = (0,5);
type = TTSnap;
},
{
horizontal = 1;
origin = (0,0);
stem = -1;
target = (0,1);
type = TTStem;
}
);
layerId = "4E2227F3-52E4-4048-A8EE-327B486EF0A4";
shapes = (
{
closed = 1;
nodes = (
(434,0,l),
(434,161,l),
(218,161,l),
(218,700,l),
(30,700,l),
(30,0,l)
);
}
);
width = 442;
},
{
anchors = (
{
name = bottom;
pos = (287,0);
},
{
name = top;
pos = (145,700);
}
);
layerId = "FFFA8D72-12AC-4CE0-B2CA-57A29829F4DA";
shapes = (
{
closed = 1;
nodes = (
(569,0,l),
(569,161,l),
(240,161,l),
(240,700,l),
(52,700,l),
(52,0,l)
);
}
);
width = 585;
},
{
anchors = (
{
name = bottom;
pos = (173,0);
},
{
name = top;
pos = (78,700);
}
);
layerId = "DCBE1F7B-116A-43E0-B7B4-8657BA77D8B5";
shapes = (
{
closed = 1;
nodes = (
(346,0,l),
(346,21,l),
(91,21,l),
(91,700,l),
(69,700,l),
(69,0,l)
);
}
);
width = 362;
}
);
unicode = 76;
userData = {
KernOnName = L;
};
},
{
color = 3;
glyphname = M;
layers = (
{
hints = (
{
origin = (0,11);
target = (0,10);
type = Stem;
},
{
origin = (0,8);
target = (0,7);
type = Stem;
}
);
layerId = "262880E7-CFE1-4BDA-902E-E24798F3240A";
shapes = (
{
closed = 1;
nodes = (
(122,0,l),
(122,687,l),
(105,685,l),
(333,303,l),
(351,303,l),
(575,685,l),
(560,687,l),
(560,0,l),
(582,0,l),
(582,700,l),
(560,700,l),
(332,314,l),
(350,317,l),
(122,700,l),
(100,700,l),
(100,0,l)
);
}
);
width = 682;
},
{
background = {
shapes = (
{
closed = 1;
nodes = (
(218,0,l),
(218,511,l),
(182,502,l),
(291,310,l),
(292,310,l),
(403,498,l),
(366,508,l),
(366,0,l),
(554,0,l),
(554,700,l),
(371,700,l),
(258,490,l),
(326,490,l),
(213,700,l),
(30,700,l),
(30,0,l)
);
}
);
};
hints = (
{
origin = (0,12);
target = (0,0);
type = Stem;
},
{
origin = (0,5);
target = (0,6);
type = Stem;
},
{
horizontal = 1;
origin = (0,14);
type = TTSnap;
},
{
horizontal = 1;
origin = (0,15);
type = TTSnap;
},
{
horizontal = 1;
options = 4;
origin = (0,15);
target = (0,7);
type = TTShift;
}
);
layerId = "4E2227F3-52E4-4048-A8EE-327B486EF0A4";
shapes = (
{
closed = 1;
nodes = (
(218,0,l),
(218,625,l),
(108,625,l),
(291,310,l),
(292,310,l),
(477,625,l),
(366,625,l),
(366,0,l),
(554,0,l),
(554,700,l),
(371,700,l),
(239,452,l),
(347,452,l),
(213,700,l),
(30,700,l),
(30,0,l)
);
}
);
width = 584;
},
{
hints = (
{
place = (417, -210);
place = (417, -210);
type = Stem;
},
{
place = (621, -114);
place = (621, -114);
type = Stem;
}
);
layerId = "FFFA8D72-12AC-4CE0-B2CA-57A29829F4DA";
shapes = (
{
closed = 1;
nodes = (
(240,0,l),
(240,463,l),
(140,563,l),
(320,140,l),
(420,140,l),
(608,577,l),
(500,463,l),
(500,0,l),
(688,0,l),
(688,700,l),
(505,700,l),
(304,221,l),
(436,221,l),
(235,700,l),
(52,700,l),
(52,0,l)
);
}
);
width = 740;
},
{
hints = (
{
origin = (0,12);
target = (0,0);
type = Stem;
},
{
origin = (0,5);
target = (0,6);
type = Stem;
}
);
layerId = "DCBE1F7B-116A-43E0-B7B4-8657BA77D8B5";
shapes = (
{
closed = 1;
nodes = (
(91,0,l),
(91,672,l),
(79,672,l),
(221,330,l),
(239,330,l),
(378,672,l),
(367,672,l),
(367,0,l),
(389,0,l),
(389,700,l),
(367,700,l),
(223,347,l),
(237,347,l),
(91,700,l),
(69,700,l),
(69,0,l)
);
}
);
width = 458;
},
{
associatedMasterId = "DCBE1F7B-116A-43E0-B7B4-8657BA77D8B5";
attr = {
coordinates = (
100,
300
);
};
background = {
shapes = (
{
closed = 1;
nodes = (
(151,0,l),
(151,601,l),
(117,572,l),
(254,321,l),
(264,321,l),
(401,573,l),
(367,599,l),
(367,0,l),
(467,0,l),
(467,700,l),
(369,700,l),
(229,452,l),
(288,456,l),
(149,700,l),
(51,700,l),
(51,0,l)
);
}
);
};
hints = (
{
origin = (0,12);
target = (0,0);
type = Stem;
},
{
origin = (0,5);
target = (0,6);
type = Stem;
}
);
layerId = "980C465B-B287-4D6A-AB1E-CF08BC8D48C9";
name = "{100,300}";
shapes = (
{
closed = 1;
nodes = (
(151,0,l),
(151,572,l),
(117,572,l),
(254,321,l),
(264,321,l),
(401,572,l),
(367,572,l),
(367,0,l),
(467,0,l),
(467,700,l),
(369,700,l),
(230,437,l),
(289,437,l),
(149,700,l),
(51,700,l),
(51,0,l)
);
}
);
width = 517;
},
{
associatedMasterId = "4E2227F3-52E4-4048-A8EE-327B486EF0A4";
attr = {
coordinates = (
100,
500
);
};
hints = (
{
origin = (0,11);
target = (0,10);
type = Stem;
},
{
origin = (0,8);
target = (0,7);
type = Stem;
}
);
layerId = "25EBB921-4617-417B-8B1A-802DA642A775";
name = "{100,500}";
shapes = (
{
closed = 1;
nodes = (
(177,0,l),
(177,582,l),
(104,631,l),
(327,298,l),
(383,298,l),
(607,638,l),
(532,582,l),
(532,0,l),
(632,0,l),
(632,700,l),
(534,700,l),
(312,354,l),
(397,356,l),
(175,700,l),
(77,700,l),
(77,0,l)
);
}
);
width = 709;
}
);
unicode = 77;
},
{
color = 3;
glyphname = N;
layers = (
{
anchors = (
{
name = bottom;
pos = (329,0);
},
{
name = top;
pos = (327,700);
}
);
hints = (
{
place = (117, 0);
place = (117, 0);
type = Stem;
},
{
place = (545, 0);
place = (545, 0);
type = Stem;
}
);
layerId = "262880E7-CFE1-4BDA-902E-E24798F3240A";
shapes = (
{
closed = 1;
nodes = (
(122,0,l),
(122,668,l),
(117,667,l),
(528,0,l),
(550,0,l),
(550,700,l),
(528,700,l),
(528,32,l),
(533,33,l),
(122,700,l),
(100,700,l),
(100,0,l)
);
}
);
width = 650;
},
{
anchors = (
{
name = bottom;
pos = (281,0);
},
{
name = top;
pos = (269,700);
}
);
hints = (
{
place = (26, 0);
place = (26, 0);
type = Stem;
},
{
origin = (0,6);
target = (0,11);
type = Stem;
},
{
horizontal = 1;
origin = (0,11);
type = TTSnap;
},
{
horizontal = 1;
origin = (0,10);
type = TTSnap;
}
);
layerId = "4E2227F3-52E4-4048-A8EE-327B486EF0A4";
shapes = (
{
closed = 1;
nodes = (
(218,0,l),
(218,415,l),
(199,415,l),
(324,0,l),
(512,0,l),
(512,700,l),
(324,700,l),
(324,285,l),
(342,285,l),
(218,700,l),
(30,700,l),
(30,0,l)
);
}
);
width = 542;
},
{
anchors = (
{
name = bottom;
pos = (341,0);
},
{
name = top;
pos = (331,700);
}
);
layerId = "FFFA8D72-12AC-4CE0-B2CA-57A29829F4DA";
shapes = (
{
closed = 1;
nodes = (
(240,0,l),
(240,430,l),
(202,430,l),
(445,0,l),
(633,0,l),
(633,700,l),
(445,700,l),
(445,280,l),
(481,280,l),
(239,700,l),
(52,700,l),
(52,0,l)
);
}
);
width = 685;
},
{
anchors = (
{
name = bottom;
pos = (214,0);
},
{
name = top;
pos = (218,710);
}
);
hints = (
{
place = (91, 0);
place = (91, 0);
type = Stem;
},
{
place = (366, 0);
place = (366, 0);
type = Stem;
}
);
layerId = "DCBE1F7B-116A-43E0-B7B4-8657BA77D8B5";
shapes = (
{
closed = 1;
nodes = (
(91,0,l),
(91,657,l),
(88,657,l),
(343,0,l),
(366,0,l),
(366,700,l),
(344,700,l),
(344,43,l),
(347,43,l),
(91,700,l),
(69,700,l),
(69,0,l)
);
}
);
width = 435;
},
{
anchors = (
{
name = bottom;
pos = (335,0);
},
{
name = top;
pos = (329,700);
}
);
associatedMasterId = "4E2227F3-52E4-4048-A8EE-327B486EF0A4";
attr = {
coordinates = (
100,
500
);
};
hints = (
{
place = (80, 0);
place = (80, 0);
type = Stem;
},
{
place = (496, 0);
place = (496, 0);
type = Stem;
}
);
layerId = "AF700569-CAED-4344-924C-FF7EDA896D2F";
name = "{100,500}";
shapes = (
{
closed = 1;
nodes = (
(177,0,l),
(177,551,l),
(157,550,l),
(493,0,l),
(588,0,l),
(588,700,l),
(487,700,l),
(488,149,l),
(508,150,l),
(173,700,l),
(77,700,l),
(77,0,l)
);
}
);
width = 665;
},
{
anchors = (
{
name = bottom;
pos = (245,0);
},
{
name = top;
pos = (241,705);
}
);
associatedMasterId = "4E2227F3-52E4-4048-A8EE-327B486EF0A4";
attr = {
coordinates = (
100,
300
);
};
hints = (
{
place = (60, 0);
place = (60, 0);
type = Stem;
},
{
place = (343, 0);
place = (343, 0);
type = Stem;
}
);
layerId = "42C43E0D-C6E2-494E-A0C1-A4C56C6C4E84";
name = "{100,300}";
shapes = (
{
closed = 1;
nodes = (
(151,0,l),
(150,496,l),
(140,496,l),
(324,0,l),
(433,0,l),
(433,700,l),
(334,700,l),
(334,204,l),
(344,204,l),
(159,700,l),
(51,700,l),
(51,0,l)
);
}
);
width = 483;
}
);
unicode = 78;
},
{
glyphname = Eng;
layers = (
{
hints = (
{
origin = (0,4);
target = (0,3);
type = Stem;
},
{
horizontal = 1;
origin = (0,9);
target = (0,8);
type = Stem;
}
);
layerId = "262880E7-CFE1-4BDA-902E-E24798F3240A";
shapes = (
{
closed = 1;
nodes = (
(517,-139,o),
(550,-87,o),
(550,-2,cs),
(550,572,l),
(528,572,l),
(528,-2,ls),
(528,-74,o),
(504,-118,o),
(431,-118,c),
(431,-139,l)
);
},
{
ref = N;
}
);
width = 650;
},
{
layerId = "FFFA8D72-12AC-4CE0-B2CA-57A29829F4DA";
shapes = (
{
closed = 1;
nodes = (
(572,-209,o),
(633,-163,o),
(633,29,cs),
(633,520,l),
(445,520,l),
(445,26,ls),
(445,-38,o),
(421,-52,o),
(326,-44,c),
(326,-201,l)
);
},
{
ref = N;
}
);
width = 684;
},
{
layerId = "DCBE1F7B-116A-43E0-B7B4-8657BA77D8B5";
shapes = (
{
closed = 1;
nodes = (
(365,-133,o),
(366,-81,o),
(366,4,cs),
(366,578,l),
(344,578,l),
(344,4,ls),
(344,-68,o),
(350,-112,o),
(276,-112,c),
(276,-133,l)
);
},
{
ref = N;
}
);
width = 439;
},
{
layerId = "4E2227F3-52E4-4048-A8EE-327B486EF0A4";
shapes = (
{
closed = 1;
nodes = (
(510,-220,o),
(512,-130,o),
(512,19,cs),
(512,210,l),
(324,210,l),
(324,19,ls),
(324,-29,o),
(308,-59,o),
(240,-51,c),
(241,-211,l)
);
},
{
ref = N;
}
);
width = 536;
}
);
unicode = 330;
},
{
glyphname = O;
layers = (
{
anchors = (
{
name = bottom;
pos = (309,0);
},
{
name = center;
pos = (309,350);
},
{
name = ogonek;
pos = (558,10);
},
{
name = top;
pos = (308,700);
},
{
name = topleft;
pos = (18,700);
},
{
name = topright;
pos = (487,671);
}
);
hints = (
{
place = (90, 0);
place = (90, 0);
type = Stem;
},
{
horizontal = 1;
origin = (0,6);
target = (0,13);
type = Stem;
},
{
place = (510, 0);
place = (510, 0);
type = Stem;
},
{
horizontal = 1;
place = (-7, 0);
place = (-7, 0);
type = Stem;
}
);
layerId = "262880E7-CFE1-4BDA-902E-E24798F3240A";
shapes = (
{
closed = 1;
nodes = (
(441,-7,o),
(530,80,o),
(530,210,cs),
(530,489,ls),
(530,620,o),
(441,708,o),
(308,708,cs),
(176,708,o),
(88,620,o),
(88,489,cs),
(88,210,ls),
(88,80,o),
(176,-7,o),
(308,-7,cs)
);
},
{
closed = 1;
nodes = (
(189,13,o),
(110,91,o),
(110,209,cs),
(110,490,ls),
(110,608,o),
(189,687,o),
(308,687,cs),
(428,687,o),
(508,608,o),
(508,490,cs),
(508,209,ls),
(508,91,o),
(428,13,o),
(308,13,cs)
);
}
);
width = 618;
},
{
anchors = (
{
name = bottom;
pos = (242,0);
},
{
name = center;
pos = (242,350);
},
{
name = ogonek;
pos = (436,10);
},
{
name = top;
pos = (242,700);
},
{
name = topleft;
pos = (20,700);
},
{
name = topright;
pos = (383,700);
}
);
hints = (
{
horizontal = 1;
origin = (0,13);
stem = -1;
target = (1,13);
type = TTStem;
},
{
horizontal = 1;
origin = (0,6);
stem = -1;
target = (1,6);
type = TTStem;
}
);
layerId = "4E2227F3-52E4-4048-A8EE-327B486EF0A4";
shapes = (
{
closed = 1;
nodes = (
(376,-8,o),
(464,75,o),
(464,206,cs),
(464,494,ls),
(464,625,o),
(376,708,o),
(242,708,cs),
(107,708,o),
(20,625,o),
(20,494,cs),
(20,206,ls),
(20,75,o),
(107,-8,o),
(242,-8,cs)
);
},
{
closed = 1;
nodes = (
(220,153,o),
(208,171,o),
(208,198,cs),
(208,502,ls),
(208,529,o),
(220,547,o),
(242,547,cs),
(264,547,o),
(276,529,o),
(276,502,cs),
(276,198,ls),
(276,171,o),
(264,153,o),
(242,153,cs)
);
}
);
width = 484;
},
{
anchors = (
{
name = bottom;
pos = (323,0);
},
{
name = center;
pos = (323,350);
},
{
name = ogonek;
pos = (571,10);
},
{
name = top;
pos = (322,700);
},
{
name = topleft;
pos = (32,700);
},
{
name = topright;
pos = (491,700);
}
);
guides = (
{
pos = (322,613);
},
{
pos = (319,360);
},
{
pos = (322,87);
}
);
layerId = "FFFA8D72-12AC-4CE0-B2CA-57A29829F4DA";
shapes = (
{
closed = 1;
nodes = (
(491,-12,o),
(603,95,o),
(603,256,cs),
(603,444,ls),
(603,602,o),
(491,708,o),
(322,708,cs),
(154,708,o),
(42,602,o),
(42,444,cs),
(42,256,ls),
(42,95,o),
(154,-12,o),
(322,-12,cs)
);
},
{
closed = 1;
nodes = (
(267,149,o),
(230,189,o),
(230,250,cs),
(230,446,ls),
(230,507,o),
(267,547,o),
(322,547,cs),
(378,547,o),
(415,507,o),
(415,446,cs),
(415,250,ls),
(415,189,o),
(378,149,o),
(322,149,cs)
);
}
);
width = 645;
},
{
anchors = (
{
name = bottom;
pos = (213,0);
},
{
name = center;
pos = (213,350);
},
{
name = ogonek;
pos = (391,10);
},
{
name = top;
pos = (212,699);
},
{
name = topleft;
pos = (11,700);
},
{
name = topright;
pos = (307,700);
}
);
layerId = "DCBE1F7B-116A-43E0-B7B4-8657BA77D8B5";
shapes = (
{
closed = 1;
nodes = (
(302,-8,o),
(365,56,o),
(365,150,cs),
(365,549,ls),
(365,643,o),
(302,708,o),
(212,708,cs),
(123,708,o),
(61,643,o),
(61,549,cs),
(61,150,ls),
(61,56,o),
(123,-8,o),
(212,-8,cs)
);
},
{
closed = 1;
nodes = (
(136,13,o),
(83,69,o),
(83,149,cs),
(83,550,ls),
(83,631,o),
(136,687,o),
(212,687,cs),
(289,687,o),
(343,631,o),
(343,550,cs),
(343,149,ls),
(343,69,o),
(289,13,o),
(212,13,cs)
);
}
);
width = 426;
}
);
unicode = 79;
userData = {
KernOnName = O;
};
},
{
color = 3;
glyphname = Oslash;
layers = (
{
hints = (
{
place = (91, 22);
place = (91, 22);
type = Stem;
},
{
horizontal = 1;
origin = (0,1);
target = (0,0);
type = Stem;
},
{
place = (511, -83);
place = (511, -83);
type = Stem;
},
{
horizontal = 1;
origin = (0,3);
target = (0,2);
type = Stem;
}
);
layerId = "262880E7-CFE1-4BDA-902E-E24798F3240A";
shapes = (
{
closed = 1;
nodes = (
(547,700,l),
(528,712,l),
(75,-1,l),
(93,-13,l)
);
},
{
ref = O;
}
);
width = 616;
},
{
layerId = "FFFA8D72-12AC-4CE0-B2CA-57A29829F4DA";
shapes = (
{
closed = 1;
nodes = (
(591,674,l),
(504,739,l),
(30,17,l),
(122,-39,l)
);
},
{
alignment = -1;
ref = O;
}
);
width = 619;
},
{
layerId = "DCBE1F7B-116A-43E0-B7B4-8657BA77D8B5";
shapes = (
{
closed = 1;
nodes = (
(378,716,l),
(358,725,l),
(66,-17,l),
(86,-26,l)
);
},
{
alignment = -1;
ref = O;
}
);
width = 434;
},
{
layerId = "4E2227F3-52E4-4048-A8EE-327B486EF0A4";
shapes = (
{
closed = 1;
nodes = (
(464,705,l),
(388,736,l),
(20,-6,l),
(96,-37,l)
);
},
{
alignment = -1;
ref = O;
}
);
width = 484;
},
{
associatedMasterId = "4E2227F3-52E4-4048-A8EE-327B486EF0A4";
layerId = "6FE7FD38-9064-4D6E-BB7C-2BCA961CD2F9";
name = "141,300} Nov 21 17, 02:18";
shapes = (
{
alignment = -1;
ref = O;
},
{
pos = (31,0);
ref = slashlongcomb;
}
);
width = 484;
}
);
unicode = 216;
},
{
glyphname = OE;
layers = (
{
anchors = (
{
name = top;
pos = (465,700);
}
);
hints = (
{
place = (90, 22);
place = (90, 22);
type = Stem;
},
{
horizontal = 1;
origin = (0,6);
target = (1,6);
type = Stem;
},
{
origin = (1,9);
target = (0,3);
type = Stem;
},
{
horizontal = 1;
origin = (0,13);
target = (1,13);
type = Stem;
},
{
horizontal = 1;
place = (340, 21);
place = (340, 21);
type = Stem;
},
{
horizontal = 1;
place = (0, 21);
place = (0, 21);
type = Stem;
},
{
origin = (1,10);
target = (0,2);
type = Stem;
},
{
horizontal = 1;
place = (700, -21);
place = (700, -21);
type = Stem;
}
);
layerId = "262880E7-CFE1-4BDA-902E-E24798F3240A";
shapes = (
{
closed = 1;
nodes = (
(406,-7,o),
(485,77,o),
(485,190,cs),
(485,509,ls),
(485,623,o),
(406,708,o),
(285,708,cs),
(164,708,o),
(85,623,o),
(85,509,cs),
(85,190,ls),
(85,77,o),
(164,-7,o),
(285,-7,cs)
);
},
{
closed = 1;
nodes = (
(178,13,o),
(107,89,o),
(107,189,cs),
(107,510,ls),
(107,610,o),
(178,687,o),
(285,687,cs),
(393,687,o),
(465,610,o),
(465,510,cs),
(465,189,ls),
(465,89,o),
(393,13,o),
(285,13,cs)
);
},
{
closed = 1;
nodes = (
(727,340,l),
(727,361,l),
(476,361,l),
(476,340,l)
);
},
{
closed = 1;
nodes = (
(836,0,l),
(836,21,l),
(487,21,l),
(487,679,l),
(836,679,l),
(836,700,l),
(465,700,l),
(465,0,l)
);
}
);
width = 880;
},
{
anchors = (
{
name = top;
pos = (491,700);
}
);
layerId = "FFFA8D72-12AC-4CE0-B2CA-57A29829F4DA";
shapes = (
{
closed = 1;
nodes = (
(392,-12,o),
(525,87,o),
(525,236,cs),
(525,464,ls),
(525,613,o),
(392,708,o),
(264,708,cs),
(142,708,o),
(34,602,o),
(34,444,cs),
(34,256,ls),
(34,95,o),
(142,-12,o),
(264,-12,cs)
);
},
{
closed = 1;
nodes = (
(259,149,o),
(222,189,o),
(222,250,cs),
(222,446,ls),
(222,507,o),
(259,547,o),
(314,547,cs),
(370,547,o),
(407,507,o),
(407,446,cs),
(407,250,ls),
(407,189,o),
(370,149,o),
(314,149,cs)
);
},
{
closed = 1;
nodes = (
(803,275,l),
(803,435,l),
(483,435,l),
(483,275,l)
);
},
{
closed = 1;
nodes = (
(917,0,l),
(917,161,l),
(595,161,l),
(595,539,l),
(917,539,l),
(917,700,l),
(407,700,l),
(407,0,l)
);
}
);
width = 948;
},
{
anchors = (
{
name = top;
pos = (356,700);
}
);
layerId = "DCBE1F7B-116A-43E0-B7B4-8657BA77D8B5";
shapes = (
{
closed = 1;
nodes = (
(297,-8,o),
(358,56,o),
(358,150,cs),
(358,549,ls),
(358,643,o),
(297,708,o),
(207,708,cs),
(118,708,o),
(56,643,o),
(56,549,cs),
(56,150,ls),
(56,56,o),
(118,-8,o),
(207,-8,cs)
);
},
{
closed = 1;
nodes = (
(131,13,o),
(78,69,o),
(78,149,cs),
(78,550,ls),
(78,631,o),
(131,687,o),
(207,687,cs),
(284,687,o),
(338,631,o),
(338,550,cs),
(338,149,ls),
(338,69,o),
(284,13,o),
(207,13,cs)
);
},
{
closed = 1;
nodes = (
(537,340,l),
(537,361,l),
(349,361,l),
(349,340,l)
);
},
{
closed = 1;
nodes = (
(620,0,l),
(620,21,l),
(360,21,l),
(360,679,l),
(620,679,l),
(620,700,l),
(338,700,l),
(338,0,l)
);
}
);
width = 648;
},
{
anchors = (
{
name = top;
pos = (362,700);
}
);
hints = (
{
horizontal = 1;
origin = (0,6);
type = TTSnap;
},
{
horizontal = 1;
origin = (0,13);
type = TTSnap;
},
{
horizontal = 1;
options = 4;
origin = (0,13);
target = (3,0);
type = TTShift;
},
{
horizontal = 1;
options = 4;
origin = (0,6);
target = (3,5);
type = TTShift;
},
{
horizontal = 1;
origin = (3,5);
stem = -1;
target = (3,4);
type = TTStem;
},
{
horizontal = 1;
origin = (2,0);
stem = -1;
target = (2,1);
type = TTStem;
},
{
horizontal = 1;
origin = (3,0);
stem = -1;
target = (3,1);
type = TTStem;
},
{
horizontal = 1;
origin = (0,6);
stem = -1;
target = (1,6);
type = TTStem;
},
{
horizontal = 1;
origin = (0,13);
stem = -1;
target = (1,13);
type = TTStem;
}
);
layerId = "4E2227F3-52E4-4048-A8EE-327B486EF0A4";
shapes = (
{
closed = 1;
nodes = (
(296,-8,o),
(354,75,o),
(354,206,cs),
(354,494,ls),
(354,625,o),
(296,708,o),
(192,708,cs),
(107,708,o),
(20,625,o),
(20,494,cs),
(20,206,ls),
(20,75,o),
(107,-8,o),
(192,-8,cs)
);
},
{
closed = 1;
nodes = (
(220,153,o),
(208,171,o),
(208,198,cs),
(208,502,ls),
(208,529,o),
(220,547,o),
(242,547,cs),
(264,547,o),
(276,529,o),
(276,502,cs),
(276,198,ls),
(276,171,o),
(264,153,o),
(242,153,cs)
);
},
{
closed = 1;
nodes = (
(584,270,l),
(584,431,l),
(352,431,l),
(352,270,l)
);
},
{
closed = 1;
nodes = (
(676,0,l),
(676,161,l),
(464,161,l),
(464,539,l),
(676,539,l),
(676,700,l),
(276,700,l),
(276,0,l)
);
}
);
width = 690;
}
);
unicode = 338;
},
{
glyphname = P;
layers = (
{
hints = (
{
horizontal = 1;
origin = (0,17);
target = (0,2);
type = Stem;
},
{
origin = (0,5);
target = (0,14);
type = Stem;
},
{
horizontal = 1;
origin = (0,11);
target = (0,8);
type = Stem;
},
{
origin = (0,18);
target = (0,1);
type = Stem;
}
);
layerId = "262880E7-CFE1-4BDA-902E-E24798F3240A";
shapes = (
{
closed = 1;
nodes = (
(122,0,l),
(122,681,l),
(360,681,ls),
(452,681,o),
(514,617,o),
(514,520,cs),
(514,425,o),
(452,361,o),
(360,361,cs),
(117,361,l),
(117,340,l),
(358,340,ls),
(465,340,o),
(536,411,o),
(536,520,cs),
(536,629,o),
(465,702,o),
(358,702,cs),
(100,702,l),
(100,0,l)
);
}
);
width = 581;
},
{
hints = (
{
horizontal = 1;
origin = (0,18);
type = TTSnap;
},
{
horizontal = 1;
origin = (0,19);
type = TTSnap;
},
{
horizontal = 1;
origin = (0,11);
stem = -1;
target = (0,8);
type = TTStem;
},
{
horizontal = 1;
origin = (0,17);
stem = -1;
target = (0,2);
type = TTStem;
}
);
layerId = "4E2227F3-52E4-4048-A8EE-327B486EF0A4";
shapes = (
{
closed = 1;
nodes = (
(218,0,l),
(218,539,l),
(237,539,ls),
(266,539,o),
(287,517,o),
(287,471,cs),
(287,426,o),
(266,405,o),
(237,405,cs),
(202,405,l),
(202,260,l),
(280,260,ls),
(396,260,o),
(475,345,o),
(475,475,cs),
(475,608,o),
(392,700,o),
(270,700,cs),
(30,700,l),
(30,0,l)
);
}
);
width = 483;
},
{
layerId = "FFFA8D72-12AC-4CE0-B2CA-57A29829F4DA";
shapes = (
{
closed = 1;
nodes = (
(240,0,l),
(240,539,l),
(329,539,ls),
(378,539,o),
(411,510,o),
(411,466,cs),
(411,423,o),
(378,395,o),
(329,395,cs),
(223,395,l),
(223,245,l),
(351,245,ls),
(499,245,o),
(598,335,o),
(598,470,cs),
(598,608,o),
(503,700,o),
(360,700,cs),
(52,700,l),
(52,0,l)
);
}
);
width = 615;
},
{
layerId = "DCBE1F7B-116A-43E0-B7B4-8657BA77D8B5";
shapes = (
{
closed = 1;
nodes = (
(91,0,l),
(91,681,l),
(217,681,ls),
(291,681,o),
(340,617,o),
(340,520,cs),
(340,425,o),
(291,361,o),
(217,361,cs),
(87,361,l),
(87,340,l),
(217,340,ls),
(304,340,o),
(362,412,o),
(362,520,cs),
(362,629,o),
(304,702,o),
(217,702,cs),
(69,702,l),
(69,0,l)
);
}
);
width = 393;
}
);
unicode = 80;
},
{
glyphname = Thorn;
layers = (
{
hints = (
{
horizontal = 1;
place = (460, -21);
place = (460, -21);
type = Stem;
},
{
place = (472, 22);
place = (472, 22);
type = Stem;
},
{
horizontal = 1;
place = (98, 21);
place = (98, 21);
type = Stem;
},
{
origin = (0,2);
target = (0,1);
type = Stem;
}
);
layerId = "262880E7-CFE1-4BDA-902E-E24798F3240A";
shapes = (
{
closed = 1;
nodes = (
(122,0,l),
(122,700,l),
(100,700,l),
(100,0,l)
);
},
{
closed = 1;
nodes = (
(328,169,ls),
(435,169,o),
(506,240,o),
(506,349,cs),
(506,458,o),
(435,531,o),
(328,531,cs),
(122,531,l),
(122,510,l),
(330,510,ls),
(422,510,o),
(484,446,o),
(484,349,cs),
(484,254,o),
(422,190,o),
(330,190,cs),
(122,190,l),
(122,169,l)
);
}
);
width = 566;
},
{
layerId = "FFFA8D72-12AC-4CE0-B2CA-57A29829F4DA";
shapes = (
{
closed = 1;
nodes = (
(240,0,l),
(240,700,l),
(52,700,l),
(52,0,l)
);
},
{
closed = 1;
nodes = (
(341,127,ls),
(477,127,o),
(588,215,o),
(588,348,cs),
(588,481,o),
(492,573,o),
(350,573,cs),
(240,573,l),
(240,412,l),
(319,412,ls),
(367,412,o),
(401,390,o),
(401,344,cs),
(401,299,o),
(367,278,o),
(319,278,cs),
(240,278,l),
(240,127,l)
);
}
);
width = 609;
},
{
layerId = "DCBE1F7B-116A-43E0-B7B4-8657BA77D8B5";
shapes = (
{
closed = 1;
nodes = (
(91,0,l),
(91,700,l),
(69,700,l),
(69,0,l)
);
},
{
closed = 1;
nodes = (
(217,171,ls),
(304,171,o),
(362,243,o),
(362,351,cs),
(362,460,o),
(304,533,o),
(217,533,cs),
(91,533,l),
(91,512,l),
(217,512,ls),
(291,512,o),
(340,448,o),
(340,351,cs),
(340,256,o),
(291,192,o),
(217,192,cs),
(91,192,l),
(91,171,l)
);
}
);
width = 403;
},
{
hints = (
{
horizontal = 1;
origin = (0,2);
type = TTSnap;
},
{
horizontal = 1;
origin = (0,3);
type = TTSnap;
},
{
horizontal = 1;
origin = (1,9);
stem = -1;
target = (1,6);
type = TTStem;
},
{
horizontal = 1;
origin = (1,0);
stem = -1;
target = (1,15);
type = TTStem;
}
);
layerId = "4E2227F3-52E4-4048-A8EE-327B486EF0A4";
shapes = (
{
closed = 1;
nodes = (
(218,0,l),
(218,700,l),
(30,700,l),
(30,0,l)
);
},
{
closed = 1;
nodes = (
(279,129,ls),
(395,129,o),
(474,215,o),
(474,346,cs),
(474,479,o),
(391,571,o),
(269,571,cs),
(218,571,l),
(218,410,l),
(236,410,ls),
(265,410,o),
(286,388,o),
(286,342,cs),
(286,297,o),
(265,276,o),
(236,276,cs),
(218,276,l),
(218,129,l)
);
}
);
width = 483;
}
);
unicode = 222;
},
{
glyphname = Q;
layers = (
{
hints = (
{
horizontal = 1;
place = (708, -21);
place = (708, -21);
type = Stem;
},
{
place = (70, 22);
place = (70, 22);
type = Stem;
},
{
place = (472, 22);
place = (472, 22);
type = Stem;
},
{
horizontal = 1;
place = (-8, 0);
place = (-8, 0);
type = Stem;
},
{
origin = (1,3);
target = (1,0);
type = Stem;
},
{
horizontal = 1;
origin = (0,13);
target = (2,13);
type = Stem;
}
);
layerId = "262880E7-CFE1-4BDA-902E-E24798F3240A";
shapes = (
{
closed = 1;
nodes = (
(408,-8,o),
(493,76,o),
(493,201,cs),
(493,499,ls),
(493,624,o),
(408,708,o),
(281,708,cs),
(154,708,o),
(69,624,o),
(69,499,cs),
(69,201,ls),
(69,76,o),
(154,-8,o),
(281,-8,cs)
);
},
{
closed = 1;
nodes = (
(292,-127,l),
(292,0,l),
(270,0,l),
(270,-127,l)
);
},
{
closed = 1;
nodes = (
(167,13,o),
(91,88,o),
(91,200,cs),
(91,500,ls),
(91,612,o),
(167,687,o),
(281,687,cs),
(395,687,o),
(471,612,o),
(471,500,cs),
(471,200,ls),
(471,88,o),
(395,13,o),
(281,13,cs)
);
}
);
width = 562;
},
{
hints = (
{
horizontal = 1;
origin = (0,13);
stem = -1;
target = (2,13);
type = TTStem;
},
{
horizontal = 1;
origin = (0,6);
stem = -1;
target = (2,6);
type = TTStem;
},
{
horizontal = 1;
origin = (0,6);
type = TTSnap;
},
{
horizontal = 1;
origin = (0,13);
type = TTSnap;
}
);
layerId = "4E2227F3-52E4-4048-A8EE-327B486EF0A4";
shapes = (
{
closed = 1;
nodes = (
(367,-8,o),
(453,81,o),
(453,215,cs),
(453,485,ls),
(453,619,o),
(367,708,o),
(236,708,cs),
(106,708,o),
(20,619,o),
(20,485,cs),
(20,215,ls),
(20,81,o),
(106,-8,o),
(236,-8,cs)
);
},
{
closed = 1;
nodes = (
(330,-87,l),
(330,113,l),
(142,113,l),
(142,-87,l)
);
},
{
closed = 1;
nodes = (
(219,153,o),
(208,170,o),
(208,195,cs),
(208,505,ls),
(208,530,o),
(219,547,o),
(236,547,cs),
(254,547,o),
(265,530,o),
(265,505,cs),
(265,195,ls),
(265,170,o),
(254,153,o),
(236,153,cs)
);
}
);
width = 473;
},
{
layerId = "FFFA8D72-12AC-4CE0-B2CA-57A29829F4DA";
shapes = (
{
closed = 1;
nodes = (
(464,-8,o),
(573,93,o),
(573,245,cs),
(573,440,ls),
(573,601,o),
(464,708,o),
(300,708,cs),
(137,708,o),
(28,601,o),
(28,440,cs),
(28,245,ls),
(28,93,o),
(137,-8,o),
(300,-8,cs)
);
},
{
closed = 1;
nodes = (
(395,-87,l),
(395,113,l),
(207,113,l),
(207,-87,l)
);
},
{
closed = 1;
nodes = (
(250,153,o),
(216,192,o),
(216,250,cs),
(216,450,ls),
(216,508,o),
(250,547,o),
(300,547,cs),
(351,547,o),
(385,508,o),
(385,450,cs),
(385,250,ls),
(385,192,o),
(351,153,o),
(300,153,cs)
);
}
);
width = 601;
},
{
layerId = "DCBE1F7B-116A-43E0-B7B4-8657BA77D8B5";
shapes = (
{
closed = 1;
nodes = (
(288,-8,o),
(347,57,o),
(347,151,cs),
(347,549,ls),
(347,643,o),
(288,708,o),
(202,708,cs),
(116,708,o),
(56,643,o),
(56,549,cs),
(56,151,ls),
(56,57,o),
(116,-8,o),
(202,-8,cs)
);
},
{
closed = 1;
nodes = (
(213,-127,l),
(213,0,l),
(190,0,l),
(190,-127,l)
);
},
{
closed = 1;
nodes = (
(129,13,o),
(78,69,o),
(78,150,cs),
(78,550,ls),
(78,631,o),
(129,687,o),
(202,687,cs),
(275,687,o),
(325,631,o),
(325,550,cs),
(325,150,ls),
(325,69,o),
(275,13,o),
(202,13,cs)
);
}
);
width = 403;
}
);
unicode = 81;
},
{
glyphname = R;
layers = (
{
anchors = (
{
name = bottom;
pos = (293,0);
},
{
name = top;
pos = (293,700);
}
);
hints = (
{
horizontal = 1;
origin = (0,18);
target = (0,1);
type = Stem;
},
{
horizontal = 1;
origin = (0,10);
target = (0,9);
type = Stem;
},
{
origin = (0,19);
target = (0,0);
type = Stem;
},
{
place = (458, 0);
place = (458, 0);
type = Stem;
},
{
place = (445, 0);
place = (445, 0);
type = Stem;
},
{
origin = (0,5);
target = (0,14);
type = Stem;
}
);
layerId = "262880E7-CFE1-4BDA-902E-E24798F3240A";
shapes = (
{
closed = 1;
nodes = (
(122,0,l),
(122,679,l),
(350,679,ls),
(442,679,o),
(504,615,o),
(504,520,cs),
(504,427,o),
(442,363,o),
(350,363,cs),
(117,363,l),
(117,342,l),
(348,342,ls),
(455,342,o),
(526,413,o),
(526,520,cs),
(526,627,o),
(455,700,o),
(348,700,cs),
(100,700,l),
(100,0,l)
);
},
{
closed = 1;
nodes = (
(539,0,l),
(366,355,l),
(348,347,l),
(518,0,l)
);
}
);
width = 586;
},
{
anchors = (
{
name = bottom;
pos = (245,0);
},
{
name = top;
pos = (245,700);
}
);
hints = (
{
horizontal = 1;
origin = (0,19);
type = TTSnap;
},
{
horizontal = 1;
options = 4;
origin = (0,19);
target = (1,3);
type = TTShift;
},
{
horizontal = 1;
origin = (0,18);
type = TTSnap;
},
{
horizontal = 1;
origin = (0,17);
stem = -1;
target = (0,2);
type = TTStem;
},
{
horizontal = 1;
origin = (0,11);
stem = -1;
target = (0,8);
type = TTStem;
}
);
layerId = "4E2227F3-52E4-4048-A8EE-327B486EF0A4";
shapes = (
{
closed = 1;
nodes = (
(218,0,l),
(218,539,l),
(237,539,ls),
(266,539,o),
(287,518,o),
(287,475,cs),
(287,434,o),
(266,412,o),
(237,412,cs),
(202,412,l),
(202,269,l),
(280,269,ls),
(396,269,o),
(475,352,o),
(475,477,cs),
(475,608,o),
(392,700,o),
(270,700,cs),
(30,700,l),
(30,0,l)
);
},
{
closed = 1;
nodes = (
(484,0,l),
(385,349,l),
(206,349,l),
(290,0,l)
);
}
);
width = 490;
},
{
anchors = (
{
name = bottom;
pos = (311,0);
},
{
name = top;
pos = (311,700);
}
);
layerId = "FFFA8D72-12AC-4CE0-B2CA-57A29829F4DA";
shapes = (
{
closed = 1;
nodes = (
(240,0,l),
(240,539,l),
(339,539,ls),
(382,539,o),
(411,513,o),
(411,475,cs),
(411,437,o),
(382,412,o),
(339,412,cs),
(223,412,l),
(223,269,l),
(370,269,ls),
(507,269,o),
(598,352,o),
(598,477,cs),
(598,611,o),
(507,700,o),
(370,700,cs),
(52,700,l),
(52,0,l)
);
},
{
closed = 1;
nodes = (
(608,0,l),
(441,349,l),
(256,349,l),
(408,0,l)
);
}
);
width = 622;
},
{
anchors = (
{
name = bottom;
pos = (200,0);
},
{
name = top;
pos = (200,700);
}
);
layerId = "DCBE1F7B-116A-43E0-B7B4-8657BA77D8B5";
shapes = (
{
closed = 1;
nodes = (
(91,0,l),
(91,679,l),
(217,679,ls),
(291,679,o),
(340,615,o),
(340,520,cs),
(340,426,o),
(291,363,o),
(217,363,cs),
(87,363,l),
(87,342,l),
(217,342,ls),
(304,342,o),
(362,413,o),
(362,520,cs),
(362,628,o),
(304,700,o),
(217,700,cs),
(69,700,l),
(69,0,l)
);
},
{
closed = 1;
nodes = (
(367,0,l),
(236,353,l),
(217,345,l),
(345,0,l)
);
}
);
width = 400;
}
);
unicode = 82;
},
{
glyphname = S;
layers = (
{
anchors = (
{
name = bottom;
pos = (278,-8);
},
{
name = top;
pos = (273,700);
}
);
hints = (
{
horizontal = 1;
origin = (0,20);
target = (0,11);
type = Stem;
},
{
origin = (0,14);
target = (0,17);
type = Stem;
},
{
horizontal = 1;
origin = (0,41);
target = (0,32);
type = Stem;
},
{
origin = (0,37);
target = (0,36);
type = Stem;
}
);
layerId = "262880E7-CFE1-4BDA-902E-E24798F3240A";
shapes = (
{
closed = 1;
nodes = (
(425,-8,o),
(503,63,o),
(503,163,cs),
(503,298,o),
(395,332,o),
(290,365,cs),
(190,397,o),
(93,427,o),
(93,544,cs),
(93,622,o),
(157,687,o),
(272,687,cs),
(397,687,o),
(468,627,o),
(468,548,cs),
(468,540,l),
(490,540,l),
(490,550,ls),
(490,641,o),
(413,708,o),
(274,708,cs),
(144,708,o),
(72,635,o),
(72,544,cs),
(72,411,o),
(177,379,o),
(281,347,cs),
(382,316,o),
(481,285,o),
(481,163,cs),
(481,69,o),
(409,13,o),
(287,13,cs),
(163,13,o),
(76,71,o),
(76,179,cs),
(76,190,l),
(54,190,l),
(54,177,ls),
(54,57,o),
(150,-8,o),
(287,-8,cs)
);
}
);
width = 556;
},
{
anchors = (
{
name = bottom;
pos = (227,-8);
},
{
name = top;
pos = (223,700);
}
);
hints = (
{
horizontal = 1;
origin = (0,20);
type = TTSnap;
},
{
horizontal = 1;
origin = (0,41);
type = TTSnap;
},
{
horizontal = 1;
origin = (0,20);
stem = -1;
target = (0,11);
type = TTStem;
},
{
horizontal = 1;
origin = (0,41);
stem = -1;
target = (0,32);
type = TTStem;
}
);
layerId = "4E2227F3-52E4-4048-A8EE-327B486EF0A4";
shapes = (
{
closed = 1;
nodes = (
(354,-8,o),
(441,68,o),
(441,191,cs),
(441,294,o),
(380,341,o),
(275,418,cs),
(211,465,o),
(195,483,o),
(195,510,cs),
(195,532,o),
(206,547,o),
(223,547,cs),
(240,547,o),
(252,533,o),
(252,513,cs),
(252,472,l),
(437,472,l),
(437,509,ls),
(437,628,o),
(352,708,o),
(223,708,cs),
(95,708,o),
(10,628,o),
(10,509,cs),
(10,386,o),
(102,321,o),
(173,271,cs),
(238,225,o),
(256,209,o),
(256,185,cs),
(256,166,o),
(244,153,o),
(228,153,cs),
(212,153,o),
(200,167,o),
(200,189,cs),
(200,226,l),
(14,226,l),
(14,180,ls),
(14,70,o),
(98,-8,o),
(227,-8,cs)
);
}
);
width = 451;
},
{
anchors = (
{
name = bottom;
pos = (311,-8);
},
{
name = top;
pos = (308,700);
}
);
layerId = "FFFA8D72-12AC-4CE0-B2CA-57A29829F4DA";
shapes = (
{
closed = 1;
nodes = (
(483,-8,o),
(583,62,o),
(583,208,cs),
(583,363,o),
(448,400,o),
(344,428,cs),
(278,445,o),
(225,459,o),
(225,498,cs),
(225,532,o),
(251,554,o),
(306,554,cs),
(359,554,o),
(394,525,o),
(394,478,cs),
(394,465,l),
(579,465,l),
(579,476,ls),
(579,588,o),
(488,708,o),
(302,708,cs),
(150,708,o),
(37,635,o),
(37,498,cs),
(37,342,o),
(170,306,o),
(274,277,cs),
(340,259,o),
(395,244,o),
(395,203,cs),
(395,173,o),
(382,146,o),
(311,146,cs),
(249,146,o),
(218,186,o),
(218,234,cs),
(218,240,l),
(33,240,l),
(33,226,ls),
(33,80,o),
(132,-8,o),
(310,-8,cs)
);
}
);
width = 616;
},
{
anchors = (
{
name = bottom;
pos = (185,-8);
},
{
name = top;
pos = (179,700);
}
);
layerId = "DCBE1F7B-116A-43E0-B7B4-8657BA77D8B5";
shapes = (
{
closed = 1;
nodes = (
(271,-8,o),
(333,51,o),
(333,163,cs),
(333,267,o),
(290,300,o),
(188,378,cs),
(96,448,o),
(60,490,o),
(60,551,cs),
(60,641,o),
(112,687,o),
(179,687,cs),
(254,687,o),
(305,626,o),
(305,534,cs),
(305,510,l),
(327,510,l),
(327,535,ls),
(327,639,o),
(268,708,o),
(179,708,cs),
(99,708,o),
(38,652,o),
(38,551,cs),
(38,463,o),
(98,418,o),
(176,360,cs),
(254,302,o),
(311,259,o),
(311,156,cs),
(311,64,o),
(256,13,o),
(184,13,cs),
(112,13,o),
(60,65,o),
(60,165,cs),
(60,192,l),
(38,192,l),
(38,164,ls),
(38,52,o),
(99,-8,o),
(185,-8,cs)
);
}
);
width = 373;
}
);
unicode = 83;
userData = {
KernOnName = S;
};
},
{
color = 3;
glyphname = Schwa;
layers = (
{
anchors = (
{
name = top;
pos = (227,699);
}
);
layerId = "DCBE1F7B-116A-43E0-B7B4-8657BA77D8B5";
shapes = (
{
closed = 1;
nodes = (
(138,708,o),
(65,642,o),
(51,548,c),
(73,549,l),
(88,632,o),
(151,687,o),
(233,687,cs),
(328,687,o),
(395,614,o),
(395,511,cs),
(395,457,o),
(395,403,o),
(395,350,cs),
(395,296,o),
(395,241,o),
(395,187,cs),
(395,84,o),
(328,10,o),
(233,10,cs),
(137,10,o),
(70,84,o),
(70,187,cs),
(70,236,o),
(70,333,o),
(70,335,c),
(60,328,l),
(404,328,l),
(404,350,l),
(48,350,l),
(48,235,o),
(48,239,o),
(48,187,cs),
(48,73,o),
(124,-11,o),
(233,-11,cs),
(340,-11,o),
(417,72,o),
(417,187,cs),
(417,241,o),
(417,296,o),
(417,350,cs),
(417,403,o),
(417,456,o),
(417,510,cs),
(417,624,o),
(341,708,o),
(233,708,cs)
);
}
);
width = 472;
},
{
anchors = (
{
name = top;
pos = (278,718);
}
);
hints = (
{
horizontal = 1;
origin = (0,46);
type = TTSnap;
},
{
horizontal = 1;
origin = (0,46);
stem = -1;
target = (0,6);
type = TTStem;
},
{
horizontal = 1;
origin = (0,34);
stem = -1;
target = (0,18);
type = TTStem;
},
{
horizontal = 1;
origin = (0,34);
type = TTSnap;
}
);
layerId = "4E2227F3-52E4-4048-A8EE-327B486EF0A4";
shapes = (
{
closed = 1;
nodes = (
(112,708,o),
(26,626,o),
(20,477,c),
(203,466,l),
(207,508,o),
(233,546,o),
(277,546,cs),
(319,546,o),
(349,511,o),
(349,461,cs),
(349,420,o),
(349,400,o),
(349,359,cs),
(349,323,o),
(349,238,o),
(349,236,cs),
(349,185,o),
(319,150,o),
(277,150,cs),
(234,150,o),
(204,186,o),
(204,236,cs),
(204,271,o),
(204,285,o),
(204,315,c),
(141,279,l),
(400,279,l),
(400,400,l),
(17,400,l),
(17,375,o),
(17,295,o),
(17,222,cs),
(17,84,o),
(113,-11,o),
(277,-11,cs),
(440,-11,o),
(537,84,o),
(537,222,cs),
(537,261,o),
(537,319,o),
(537,359,cs),
(537,404,o),
(537,429,o),
(537,475,cs),
(537,619,o),
(440,708,o),
(277,708,cs)
);
}
);
width = 556;
},
{
anchors = (
{
name = top;
pos = (289,603);
}
);
associatedMasterId = "4E2227F3-52E4-4048-A8EE-327B486EF0A4";
attr = {
coordinates = (
100,
500
);
};
hints = (
{
horizontal = 1;
origin = (0,27);
target = (0,26);
type = Stem;
},
{
origin = (0,24);
target = (0,28);
type = Stem;
},
{
origin = (0,40);
target = (0,12);
type = Stem;
},
{
horizontal = 1;
origin = (0,46);
target = (0,6);
type = Stem;
},
{
horizontal = 1;
origin = (0,34);
target = (0,18);
type = Stem;
}
);
layerId = "2A2B9E74-0281-441B-9A83-648CC11D66AE";
name = "{100,500}";
shapes = (
{
closed = 1;
nodes = (
(176,613,o),
(94,563,o),
(54,484,c),
(132,430,l),
(159,487,o),
(210,525,o),
(277,526,cs),
(361,527,o),
(413,484,o),
(431,421,cs),
(440,396,o),
(443,358,o),
(443,302,cs),
(443,252,o),
(441,210,o),
(434,183,cs),
(418,120,o),
(369,77,o),
(294,77,cs),
(218,77,o),
(166,121,o),
(151,186,cs),
(145,210,o),
(143,253,o),
(143,295,c),
(104,251,l),
(474,251,l),
(474,337,l),
(43,337,l),
(42,274,o),
(42,236,o),
(48,199,cs),
(68,75,o),
(154,-10,o),
(295,-10,cs),
(413,-10,o),
(500,59,o),
(529,161,cs),
(539,199,o),
(542,239,o),
(542,298,cs),
(542,360,o),
(538,406,o),
(524,448,cs),
(490,549,o),
(406,612,o),
(287,612,cs)
);
}
);
width = 590;
},
{
anchors = (
{
name = top;
pos = (250,708);
}
);
associatedMasterId = "4E2227F3-52E4-4048-A8EE-327B486EF0A4";
attr = {
coordinates = (
100,
300
);
};
hints = (
{
horizontal = 1;
origin = (0,27);
target = (0,26);
type = Stem;
},
{
origin = (0,24);
target = (0,28);
type = Stem;
},
{
origin = (0,40);
target = (0,12);
type = Stem;
},
{
horizontal = 1;
origin = (0,46);
target = (0,6);
type = Stem;
},
{
horizontal = 1;
origin = (0,34);
target = (0,18);
type = Stem;
}
);
layerId = "08201EB5-B49F-440A-802B-CA47CCD12539";
name = "{100,300}";
shapes = (
{
closed = 1;
nodes = (
(125,708,o),
(46,634,o),
(36,515,c),
(141,510,l),
(150,574,o),
(189,621,o),
(253,621,cs),
(323,621,o),
(373,566,o),
(373,488,cs),
(373,440,o),
(373,402,o),
(373,354,cs),
(373,309,o),
(373,240,o),
(373,210,cs),
(373,131,o),
(323,76,o),
(253,76,cs),
(182,76,o),
(132,132,o),
(132,210,cs),
(132,252,o),
(132,310,o),
(132,326,c),
(97,291,l),
(402,291,l),
(402,383,l),
(33,383,l),
(33,311,o),
(33,265,o),
(33,203,cs),
(33,78,o),
(118,-11,o),
(253,-11,cs),
(386,-11,o),
(473,78,o),
(473,203,cs),
(473,250,o),
(473,307,o),
(473,354,cs),
(473,403,o),
(473,443,o),
(473,494,cs),
(473,622,o),
(387,708,o),
(253,708,cs)
);
}
);
width = 512;
},
{
anchors = (
{
name = top;
pos = (318,661);
}
);
associatedMasterId = "4E2227F3-52E4-4048-A8EE-327B486EF0A4";
attr = {
coordinates = (
144,
500
);
};
hints = (
{
horizontal = 1;
origin = (0,27);
target = (0,26);
type = Stem;
},
{
origin = (0,24);
target = (0,28);
type = Stem;
},
{
origin = (0,40);
target = (0,12);
type = Stem;
},
{
horizontal = 1;
origin = (0,46);
target = (0,6);
type = Stem;
},
{
horizontal = 1;
origin = (0,34);
target = (0,18);
type = Stem;
}
);
layerId = "2A2CF652-FDA6-4CD5-BE40-6F49EDC401C9";
name = "{144,500}";
shapes = (
{
closed = 1;
nodes = (
(190,672,o),
(99,624,o),
(48,540,c),
(143,455,l),
(172,510,o),
(221,547,o),
(297,548,cs),
(380,548,o),
(429,511,o),
(450,453,cs),
(461,425,o),
(466,387,o),
(466,331,cs),
(466,283,o),
(463,240,o),
(454,211,cs),
(437,152,o),
(393,114,o),
(324,114,cs),
(252,114,o),
(204,154,o),
(188,215,cs),
(181,241,o),
(179,284,o),
(179,325,c),
(123,263,l),
(509,263,l),
(509,385,l),
(35,385,l),
(33,334,o),
(33,285,o),
(39,242,cs),
(61,92,o),
(157,-11,o),
(325,-11,cs),
(458,-11,o),
(557,66,o),
(592,183,cs),
(604,224,o),
(608,267,o),
(608,326,cs),
(608,391,o),
(602,441,o),
(584,489,cs),
(542,603,o),
(446,671,o),
(312,671,cs)
);
}
);
width = 646;
},
{
anchors = (
{
name = top;
pos = (239,500);
}
);
hints = (
{
horizontal = 1;
origin = (0,27);
target = (0,26);
type = Stem;
},
{
origin = (0,24);
target = (0,28);
type = Stem;
},
{
origin = (0,40);
target = (0,12);
type = Stem;
},
{
horizontal = 1;
origin = (0,46);
target = (0,6);
type = Stem;
},
{
horizontal = 1;
origin = (0,34);
target = (0,18);
type = Stem;
}
);
layerId = "262880E7-CFE1-4BDA-902E-E24798F3240A";
shapes = (
{
closed = 1;
nodes = (
(151,508,o),
(86,456,o),
(66,384,c),
(88,383,l),
(107,444,o),
(163,487,o),
(242,487,cs),
(327,487,o),
(384,437,o),
(398,365,cs),
(402,344,o),
(402,307,o),
(402,250,cs),
(402,198,o),
(402,157,o),
(398,135,cs),
(385,64,o),
(327,13,o),
(242,13,cs),
(157,13,o),
(99,64,o),
(85,135,cs),
(81,155,o),
(80,198,o),
(80,242,c),
(71,233,l),
(412,233,l),
(412,253,l),
(58,253,l),
(58,167,o),
(58,150,o),
(64,123,cs),
(81,46,o),
(149,-8,o),
(242,-8,cs),
(334,-8,o),
(399,46,o),
(417,123,cs),
(424,155,o),
(424,190,o),
(424,249,cs),
(424,305,o),
(425,344,o),
(417,377,cs),
(398,454,o),
(334,508,o),
(242,508,cs)
);
}
);
width = 491;
},
{
anchors = (
{
name = top;
pos = (346,719);
}
);
guides = (
{
pos = (796,79);
},
{
pos = (1454,267);
},
{
pos = (1196,193);
},
{
pos = (1584,306);
},
{
pos = (913,113);
}
);
layerId = "FFFA8D72-12AC-4CE0-B2CA-57A29829F4DA";
shapes = (
{
closed = 1;
nodes = (
(204,731,o),
(103,684,o),
(41,596,c),
(163,480,l),
(195,534,o),
(242,568,o),
(316,569,cs),
(399,570,o),
(445,538,o),
(468,485,cs),
(482,454,o),
(488,416,o),
(488,360,cs),
(488,313,o),
(484,269,o),
(474,238,cs),
(456,183,o),
(416,150,o),
(353,150,cs),
(286,150,o),
(241,186,o),
(225,243,cs),
(217,271,o),
(214,315,o),
(214,354,c),
(142,293,l),
(543,293,l),
(543,420,l),
(26,420,l),
(24,382,o),
(23,333,o),
(30,284,cs),
(54,108,o),
(160,-12,o),
(354,-12,cs),
(502,-12,o),
(613,73,o),
(655,204,cs),
(669,248,o),
(674,295,o),
(674,354,cs),
(674,422,o),
(665,475,o),
(644,529,cs),
(594,657,o),
(486,729,o),
(337,730,cs)
);
}
);
width = 701;
},
{
anchors = (
{
name = top;
pos = (271,716);
}
);
associatedMasterId = "4E2227F3-52E4-4048-A8EE-327B486EF0A4";
attr = {
coordinates = (
166,
300
);
};
hints = (
{
horizontal = 1;
origin = (0,27);
target = (0,26);
type = Stem;
},
{
origin = (0,24);
target = (0,28);
type = Stem;
},
{
origin = (0,40);
target = (0,12);
type = Stem;
},
{
horizontal = 1;
origin = (0,46);
target = (0,6);
type = Stem;
},
{
horizontal = 1;
origin = (0,34);
target = (0,18);
type = Stem;
}
);
layerId = "6A71C6C0-6498-4E03-A0EC-57F8322562B8";
name = "{166,300}";
shapes = (
{
closed = 1;
nodes = (
(115,708,o),
(31,628,o),
(24,487,c),
(186,477,l),
(191,525,o),
(222,565,o),
(271,565,cs),
(320,565,o),
(355,525,o),
(355,468,cs),
(355,425,o),
(355,408,o),
(355,358,cs),
(355,320,o),
(355,239,o),
(355,230,cs),
(355,172,o),
(320,132,o),
(271,132,cs),
(221,132,o),
(186,173,o),
(186,230,cs),
(186,266,o),
(186,291,o),
(186,318,c),
(130,276,l),
(401,276,l),
(401,403,l),
(21,403,l),
(21,366,o),
(21,288,o),
(21,217,cs),
(21,83,o),
(114,-11,o),
(271,-11,cs),
(427,-11,o),
(521,83,o),
(521,217,cs),
(521,258,o),
(521,316,o),
(521,358,cs),
(521,404,o),
(521,433,o),
(521,480,cs),
(521,620,o),
(427,708,o),
(271,708,cs)
);
}
);
width = 545;
},
{
anchors = (
{
name = top;
pos = (313,719);
}
);
associatedMasterId = "262880E7-CFE1-4BDA-902E-E24798F3240A";
attr = {
coordinates = (
188,
400
);
};
hints = (
{
horizontal = 1;
origin = (0,27);
target = (0,26);
type = Stem;
},
{
origin = (0,24);
target = (0,28);
type = Stem;
},
{
origin = (0,40);
target = (0,12);
type = Stem;
},
{
horizontal = 1;
origin = (0,46);
target = (0,6);
type = Stem;
},
{
horizontal = 1;
origin = (0,34);
target = (0,18);
type = Stem;
}
);
layerId = "77539BFB-0A83-4960-9558-E507C43AA1DE";
name = "{188,400}";
shapes = (
{
closed = 1;
nodes = (
(159,708,o),
(65,644,o),
(31,526,c),
(184,462,l),
(202,510,o),
(238,546,o),
(297,547,cs),
(360,548,o),
(397,514,o),
(409,462,cs),
(417,426,o),
(419,408,o),
(419,360,cs),
(419,318,o),
(417,254,o),
(412,237,cs),
(403,184,o),
(368,150,o),
(316,150,cs),
(261,150,o),
(223,186,o),
(215,240,cs),
(211,271,o),
(210,310,o),
(210,345,c),
(142,296,l),
(472,296,l),
(472,420,l),
(22,420,l),
(20,360,o),
(21,306,o),
(27,257,cs),
(46,89,o),
(121,-12,o),
(316,-12,cs),
(487,-12,o),
(567,72,o),
(595,218,cs),
(603,259,o),
(606,306,o),
(606,357,cs),
(606,405,o),
(601,449,o),
(592,488,cs),
(559,627,o),
(466,708,o),
(308,708,cs)
);
}
);
width = 629;
}
);
unicode = 399;
},
{
glyphname = T;
layers = (
{
anchors = (
{
name = bottom;
pos = (248,0);
},
{
name = top;
pos = (243,700);
}
);
hints = (
{
horizontal = 1;
origin = (1,2);
target = (1,3);
type = Stem;
},
{
origin = (0,3);
target = (0,0);
type = Stem;
}
);
layerId = "262880E7-CFE1-4BDA-902E-E24798F3240A";
shapes = (
{
closed = 1;
nodes = (
(254,0,l),
(254,689,l),
(232,689,l),
(232,0,l)
);
},
{
closed = 1;
nodes = (
(473,679,l),
(473,700,l),
(23,700,l),
(23,679,l)
);
}
);
width = 496;
},
{
anchors = (
{
name = bottom;
pos = (233,0);
},
{
name = top;
pos = (242,700);
}
);
hints = (
{
horizontal = 1;
origin = (1,1);
type = TTSnap;
},
{
horizontal = 1;
origin = (0,0);
type = TTSnap;
},
{
horizontal = 1;
origin = (1,1);
stem = -1;
target = (1,0);
type = TTStem;
}
);
layerId = "4E2227F3-52E4-4048-A8EE-327B486EF0A4";
shapes = (
{
closed = 1;
nodes = (
(332,0,l),
(332,689,l),
(144,689,l),
(144,0,l)
);
},
{
closed = 1;
nodes = (
(471,539,l),
(471,700,l),
(8,700,l),
(8,539,l)
);
}
);
width = 479;
},
{
anchors = (
{
name = bottom;
pos = (292,0);
},
{
name = top;
pos = (293,700);
}
);
layerId = "FFFA8D72-12AC-4CE0-B2CA-57A29829F4DA";
shapes = (
{
closed = 1;
nodes = (
(387,0,l),
(387,689,l),
(199,689,l),
(199,0,l)
);
},
{
closed = 1;
nodes = (
(575,538,l),
(575,700,l),
(16,700,l),
(16,538,l)
);
}
);
width = 591;
},
{
anchors = (
{
name = bottom;
pos = (171,-4);
},
{
name = top;
pos = (168,700);
}
);
layerId = "DCBE1F7B-116A-43E0-B7B4-8657BA77D8B5";
shapes = (
{
closed = 1;
nodes = (
(178,0,l),
(178,689,l),
(156,689,l),
(156,0,l)
);
},
{
closed = 1;
nodes = (
(327,679,l),
(327,700,l),
(16,700,l),
(16,679,l)
);
}
);
width = 343;
}
);
unicode = 84;
userData = {
KernOnName = T;
};
},
{
glyphname = U;
layers = (
{
anchors = (
{
name = bottom;
pos = (319,0);
},
{
name = ogonek;
pos = (326,-5);
},
{
name = top;
pos = (317,700);
},
{
name = topright;
pos = (579,700);
}
);
hints = (
{
origin = (0,5);
target = (0,2);
type = Stem;
},
{
origin = (0,14);
target = (0,11);
type = Stem;
},
{
horizontal = 1;
origin = (0,17);
target = (0,8);
type = Stem;
}
);
layerId = "262880E7-CFE1-4BDA-902E-E24798F3240A";
shapes = (
{
closed = 1;
nodes = (
(451,-8,o),
(540,77,o),
(540,205,cs),
(540,700,l),
(518,700,l),
(518,202,ls),
(518,89,o),
(438,13,o),
(317,13,cs),
(197,13,o),
(117,89,o),
(117,202,cs),
(117,700,l),
(95,700,l),
(95,205,ls),
(95,77,o),
(184,-8,o),
(317,-8,cs)
);
}
);
width = 635;
},
{
anchors = (
{
name = bottom;
pos = (244,0);
},
{
name = ogonek;
pos = (436,10);
},
{
name = top;
pos = (244,700);
},
{
name = topright;
pos = (464,700);
}
);
hints = (
{
horizontal = 1;
origin = (0,13);
type = TTSnap;
},
{
horizontal = 1;
origin = (0,17);
type = TTSnap;
},
{
horizontal = 1;
origin = (0,17);
stem = -1;
target = (0,8);
type = TTStem;
}
);
layerId = "4E2227F3-52E4-4048-A8EE-327B486EF0A4";
shapes = (
{
closed = 1;
nodes = (
(374,-8,o),
(460,78,o),
(460,208,cs),
(460,700,l),
(272,700,l),
(272,190,ls),
(272,168,o),
(261,153,o),
(244,153,cs),
(226,153,o),
(215,168,o),
(215,190,cs),
(215,700,l),
(27,700,l),
(27,208,ls),
(27,78,o),
(113,-8,o),
(244,-8,cs)
);
}
);
width = 487;
},
{
anchors = (
{
name = bottom;
pos = (321,0);
},
{
name = ogonek;
pos = (566,10);
},
{
name = top;
pos = (320,700);
},
{
name = topright;
pos = (608,700);
}
);
layerId = "FFFA8D72-12AC-4CE0-B2CA-57A29829F4DA";
shapes = (
{
closed = 1;
nodes = (
(484,-8,o),
(593,92,o),
(593,243,cs),
(593,700,l),
(405,700,l),
(405,243,ls),
(405,189,o),
(371,153,o),
(320,153,cs),
(268,153,o),
(234,189,o),
(234,243,cs),
(234,700,l),
(46,700,l),
(46,243,ls),
(46,92,o),
(156,-8,o),
(320,-8,cs)
);
}
);
width = 639;
},
{
anchors = (
{
name = bottom;
pos = (219,0);
},
{
name = ogonek;
pos = (408,10);
},
{
name = top;
pos = (217,700);
},
{
name = topright;
pos = (402,700);
}
);
layerId = "DCBE1F7B-116A-43E0-B7B4-8657BA77D8B5";
shapes = (
{
closed = 1;
nodes = (
(309,-8,o),
(371,65,o),
(371,175,cs),
(371,700,l),
(349,700,l),
(349,172,ls),
(349,77,o),
(296,13,o),
(217,13,cs),
(139,13,o),
(87,77,o),
(87,172,cs),
(87,700,l),
(65,700,l),
(65,175,ls),
(65,65,o),
(126,-8,o),
(217,-8,cs)
);
}
);
width = 436;
}
);
unicode = 85;
userData = {
KernOnName = U;
};
},
{
glyphname = V;
layers = (
{
hints = (
{
origin = (0,7);
target = (0,0);
type = Stem;
},
{
origin = (0,6);
target = (0,5);
type = Stem;
},
{
origin = (0,2);
target = (0,1);
type = Stem;
}
);
layerId = "262880E7-CFE1-4BDA-902E-E24798F3240A";
shapes = (
{
closed = 1;
nodes = (
(284,0,l),
(516,700,l),
(495,700,l),
(270,24,l),
(276,24,l),
(53,700,l),
(31,700,l),
(262,0,l)
);
}
);
width = 547;
},
{
hints = (
{
horizontal = 1;
origin = (0,6);
type = TTSnap;
},
{
horizontal = 1;
origin = (0,7);
type = TTSnap;
}
);
layerId = "4E2227F3-52E4-4048-A8EE-327B486EF0A4";
shapes = (
{
closed = 1;
nodes = (
(348,0,l),
(496,700,l),
(298,700,l),
(244,233,l),
(261,233,l),
(202,700,l),
(-1,700,l),
(145,0,l)
);
}
);
width = 494;
},
{
layerId = "FFFA8D72-12AC-4CE0-B2CA-57A29829F4DA";
shapes = (
{
closed = 1;
nodes = (
(433,0,l),
(671,700,l),
(473,700,l),
(324,171,l),
(357,171,l),
(204,700,l),
(2,700,l),
(238,0,l)
);
}
);
width = 672;
},
{
layerId = "DCBE1F7B-116A-43E0-B7B4-8657BA77D8B5";
shapes = (
{
closed = 1;
nodes = (
(195,0,l),
(344,700,l),
(322,700,l),
(182,33,l),
(186,33,l),
(46,700,l),
(23,700,l),
(173,0,l)
);
}
);
width = 368;
}
);
unicode = 86;
userData = {
KernOnName = V;
};
},
{
color = 3;
glyphname = W;
layers = (
{
anchors = (
{
name = top;
pos = (443,700);
}
);
hints = (
{
origin = (0,14);
target = (0,13);
type = Stem;
},
{
origin = (0,15);
target = (0,0);
type = Stem;
},
{
origin = (0,10);
target = (0,9);
type = Stem;
},
{
origin = (0,3);
target = (0,4);
type = Stem;
},
{
origin = (0,6);
target = (0,5);
type = Stem;
}
);
layerId = "262880E7-CFE1-4BDA-902E-E24798F3240A";
shapes = (
{
closed = 1;
nodes = (
(261,0,l),
(444,675,l),
(440,675,l),
(623,0,l),
(645,0,l),
(856,700,l),
(834,700,l),
(632,31,l),
(638,31,l),
(452,700,l),
(430,700,l),
(249,31,l),
(254,31,l),
(55,700,l),
(33,700,l),
(239,0,l)
);
}
);
width = 886;
},
{
anchors = (
{
name = top;
pos = (339,700);
}
);
hints = (
{
horizontal = 1;
origin = (0,15);
type = TTSnap;
},
{
horizontal = 1;
origin = (0,14);
type = TTSnap;
}
);
layerId = "4E2227F3-52E4-4048-A8EE-327B486EF0A4";
shapes = (
{
closed = 1;
nodes = (
(305,0,l),
(352,434,l),
(334,434,l),
(392,0,l),
(558,0,l),
(692,700,l),
(502,700,l),
(462,281,l),
(479,281,l),
(421,700,l),
(271,700,l),
(220,281,l),
(237,281,l),
(190,700,l),
(-4,700,l),
(138,0,l)
);
}
);
width = 692;
},
{
anchors = (
{
name = top;
pos = (453,700);
}
);
hints = (
{
place = (-23.609, 0);
place = (-23.609, 0);
type = Stem;
}
);
layerId = "FFFA8D72-12AC-4CE0-B2CA-57A29829F4DA";
shapes = (
{
closed = 1;
nodes = (
(385,0,l),
(470,443,l),
(434,443,l),
(531,0,l),
(718,0,l),
(903,700,l),
(702,700,l),
(605,277,l),
(637,277,l),
(540,700,l),
(367,700,l),
(279,277,l),
(312,278,l),
(203,700,l),
(2,700,l),
(209,0,l)
);
}
);
width = 906;
},
{
anchors = (
{
name = top;
pos = (281,700);
}
);
layerId = "DCBE1F7B-116A-43E0-B7B4-8657BA77D8B5";
shapes = (
{
closed = 1;
nodes = (
(177,0,l),
(282,665,l),
(280,665,l),
(384,0,l),
(407,0,l),
(533,700,l),
(509,700,l),
(395,31,l),
(398,31,l),
(292,700,l),
(269,700,l),
(166,31,l),
(169,31,l),
(45,700,l),
(22,700,l),
(155,0,l)
);
}
);
width = 559;
},
{
anchors = (
{
name = top;
pos = (326,700);
}
);
associatedMasterId = "4E2227F3-52E4-4048-A8EE-327B486EF0A4";
attr = {
coordinates = (
150,
300
);
};
layerId = "D22352A1-5D91-4C5D-8547-45DDB8692B1B";
name = "{150,300}";
shapes = (
{
closed = 1;
nodes = (
(280,0,l),
(340,426,l),
(327,425,l),
(395,0,l),
(533,0,l),
(665,700,l),
(514,700,l),
(456,286,l),
(469,287,l),
(401,700,l),
(270,700,l),
(208,286,l),
(222,287,l),
(157,700,l),
(2,700,l),
(142,0,l)
);
}
);
width = 671;
},
{
anchors = (
{
name = top;
pos = (427,700);
}
);
associatedMasterId = "4E2227F3-52E4-4048-A8EE-327B486EF0A4";
attr = {
coordinates = (
150,
500
);
};
hints = (
{
origin = (0,14);
target = (0,13);
type = Stem;
},
{
origin = (0,15);
target = (0,0);
type = Stem;
},
{
origin = (0,10);
target = (0,9);
type = Stem;
},
{
origin = (0,3);
target = (0,4);
type = Stem;
},
{
origin = (0,6);
target = (0,5);
type = Stem;
}
);
layerId = "57C718F0-B010-4458-8453-AE0C9B5C9C77";
name = "{150,500}";
shapes = (
{
closed = 1;
nodes = (
(333,0,l),
(436,484,l),
(417,484,l),
(529,0,l),
(678,0,l),
(845,700,l),
(693,700,l),
(595,243,l),
(615,243,l),
(504,700,l),
(352,700,l),
(251,243,l),
(271,243,l),
(168,700,l),
(9,700,l),
(192,0,l)
);
}
);
width = 854;
}
);
unicode = 87;
},
{
glyphname = X;
layers = (
{
hints = (
{
origin = (0,15);
target = (0,0);
type = Stem;
},
{
origin = (0,3);
target = (0,4);
type = Stem;
}
);
layerId = "262880E7-CFE1-4BDA-902E-E24798F3240A";
shapes = (
{
closed = 1;
nodes = (
(55,0,l),
(277,340,l),
(267,340,l),
(488,0,l),
(513,0,l),
(277,357,l),
(277,341,l),
(513,700,l),
(488,700,l),
(267,359,l),
(277,359,l),
(55,700,l),
(30,700,l),
(266,342,l),
(266,358,l),
(30,0,l)
);
}
);
width = 543;
},
{
hints = (
{
horizontal = 1;
origin = (0,12);
type = TTSnap;
},
{
horizontal = 1;
origin = (0,15);
type = TTSnap;
}
);
layerId = "4E2227F3-52E4-4048-A8EE-327B486EF0A4";
shapes = (
{
closed = 1;
nodes = (
(182,0,l),
(252,231,l),
(210,231,l),
(280,0,l),
(470,0,l),
(303,417,l),
(303,283,l),
(470,700,l),
(279,700,l),
(211,468,l),
(251,468,l),
(183,700,l),
(-9,700,l),
(158,283,l),
(158,417,l),
(-9,0,l)
);
}
);
width = 461;
},
{
layerId = "FFFA8D72-12AC-4CE0-B2CA-57A29829F4DA";
shapes = (
{
closed = 1;
nodes = (
(200,0,l),
(342,270,l),
(274,270,l),
(416,0,l),
(619,0,l),
(391,413,l),
(391,287,l),
(619,700,l),
(415,700,l),
(275,429,l),
(341,429,l),
(201,700,l),
(-4,700,l),
(225,287,l),
(225,413,l),
(-4,0,l)
);
}
);
width = 615;
},
{
layerId = "DCBE1F7B-116A-43E0-B7B4-8657BA77D8B5";
shapes = (
{
closed = 1;
nodes = (
(46,0,l),
(186,339,l),
(178,339,l),
(317,0,l),
(342,0,l),
(188,358,l),
(188,340,l),
(342,700,l),
(317,700,l),
(178,360,l),
(186,360,l),
(46,700,l),
(21,700,l),
(174,341,l),
(174,359,l),
(21,0,l)
);
}
);
width = 363;
}
);
unicode = 88;
},
{
glyphname = Y;
layers = (
{
anchors = (
{
name = bottom;
pos = (261,0);
},
{
name = top;
pos = (261,699);
},
{
name = topleft;
pos = (15,700);
}
);
hints = (
{
origin = (0,9);
target = (0,0);
type = Stem;
}
);
layerId = "262880E7-CFE1-4BDA-902E-E24798F3240A";
shapes = (
{
closed = 1;
nodes = (
(272,0,l),
(272,339,l),
(489,700,l),
(467,700,l),
(256,350,l),
(266,350,l),
(55,700,l),
(33,700,l),
(250,339,l),
(250,0,l)
);
}
);
width = 522;
},
{
anchors = (
{
name = bottom;
pos = (243,0);
},
{
name = top;
pos = (243,700);
},
{
name = topleft;
pos = (9,700);
}
);
hints = (
{
horizontal = 1;
origin = (0,7);
type = TTSnap;
},
{
horizontal = 1;
origin = (0,9);
type = TTSnap;
}
);
layerId = "4E2227F3-52E4-4048-A8EE-327B486EF0A4";
shapes = (
{
closed = 1;
nodes = (
(336,2,l),
(336,251,l),
(485,700,l),
(287,700,l),
(229,400,l),
(257,400,l),
(199,700,l),
(1,700,l),
(148,251,l),
(148,2,l)
);
}
);
width = 484;
},
{
anchors = (
{
name = bottom;
pos = (311,0);
},
{
name = top;
pos = (310,700);
},
{
name = topleft;
pos = (5,700);
}
);
layerId = "FFFA8D72-12AC-4CE0-B2CA-57A29829F4DA";
shapes = (
{
closed = 1;
nodes = (
(403,2,l),
(403,241,l),
(618,700,l),
(413,700,l),
(283,374,l),
(337,374,l),
(207,700,l),
(3,700,l),
(216,241,l),
(216,2,l)
);
}
);
width = 620;
},
{
anchors = (
{
name = bottom;
pos = (176,0);
},
{
name = top;
pos = (176,700);
},
{
name = topleft;
pos = (1,700);
}
);
layerId = "DCBE1F7B-116A-43E0-B7B4-8657BA77D8B5";
shapes = (
{
closed = 1;
nodes = (
(187,0,l),
(187,339,l),
(328,700,l),
(305,700,l),
(173,349,l),
(179,349,l),
(46,700,l),
(23,700,l),
(165,339,l),
(165,0,l)
);
}
);
width = 352;
}
);
unicode = 89;
userData = {
KernOnName = Y;
};
},
{
glyphname = Z;
layers = (
{
anchors = (
{
name = top;
pos = (251,700);
}
);
hints = (
{
horizontal = 1;
origin = (0,6);
target = (0,11);
type = Stem;
},
{
horizontal = 1;
origin = (0,0);
target = (0,11);
type = Stem;
}
);
layerId = "262880E7-CFE1-4BDA-902E-E24798F3240A";
shapes = (
{
closed = 1;
nodes = (
(470,0,l),
(470,21,l),
(60,21,l),
(64,13,l),
(470,679,l),
(470,700,l),
(44,700,l),
(44,679,l),
(455,679,l),
(451,687,l),
(44,21,l),
(44,0,l)
);
}
);
width = 514;
},
{
anchors = (
{
name = top;
pos = (213,700);
}
);
hints = (
{
horizontal = 1;
origin = (0,6);
stem = -1;
target = (0,7);
type = TTStem;
},
{
horizontal = 1;
origin = (0,6);
type = TTSnap;
},
{
horizontal = 1;
origin = (0,0);
stem = -1;
target = (0,1);
type = TTStem;
},
{
horizontal = 1;
origin = (0,11);
type = TTSnap;
}
);
layerId = "4E2227F3-52E4-4048-A8EE-327B486EF0A4";
shapes = (
{
closed = 1;
nodes = (
(413,0,l),
(413,161,l),
(139,161,l),
(177,97,l),
(413,539,l),
(413,700,l),
(15,700,l),
(15,539,l),
(287,539,l),
(249,603,l),
(15,161,l),
(15,0,l)
);
}
);
width = 427;
},
{
anchors = (
{
name = top;
pos = (291,700);
}
);
layerId = "FFFA8D72-12AC-4CE0-B2CA-57A29829F4DA";
shapes = (
{
closed = 1;
nodes = (
(542,0,l),
(542,161,l),
(165,161,l),
(195,105,l),
(542,540,l),
(542,700,l),
(31,700,l),
(31,539,l),
(406,539,l),
(376,595,l),
(31,160,l),
(31,0,l)
);
}
);
width = 573;
},
{
anchors = (
{
name = top;
pos = (178,700);
}
);
layerId = "DCBE1F7B-116A-43E0-B7B4-8657BA77D8B5";
shapes = (
{
closed = 1;
nodes = (
(321,0,l),
(321,21,l),
(45,21,l),
(50,12,l),
(321,679,l),
(321,700,l),
(29,700,l),
(29,679,l),
(306,679,l),
(301,688,l),
(29,21,l),
(29,0,l)
);
}
);
width = 350;
}
);
unicode = 90;
},
{
color = 3;
glyphname = a;
layers = (
{
anchors = (
{
name = bottom;
pos = (179,0);
},
{
name = ogonek;
pos = (334,0);
},
{
name = top;
pos = (179,500);
}
);
layerId = "DCBE1F7B-116A-43E0-B7B4-8657BA77D8B5";
shapes = (
{
closed = 1;
nodes = (
(215,-8,o),
(268,17,o),
(291,73,c),
(288,76,l),
(288,0,l),
(310,0,l),
(310,342,ls),
(310,442,o),
(266,508,o),
(180,508,cs),
(111,508,o),
(50,461,o),
(47,388,c),
(70,385,l),
(70,446,o),
(122,487,o),
(179,487,cs),
(251,487,o),
(288,430,o),
(288,345,cs),
(288,142,ls),
(288,52,o),
(224,13,o),
(161,13,cs),
(104,13,o),
(59,45,o),
(59,127,cs),
(59,219,o),
(115,262,o),
(193,262,cs),
(293,262,l),
(293,283,l),
(191,283,ls),
(102,283,o),
(37,236,o),
(37,126,cs),
(37,18,o),
(101,-8,o),
(158,-8,cs)
);
}
);
width = 368;
},
{
anchors = (
{
name = bottom;
pos = (230,0);
},
{
name = ogonek;
pos = (378,0);
},
{
name = top;
pos = (230,520);
}
);
hints = (
{
horizontal = 1;
origin = (0,9);
stem = -1;
target = (0,16);
type = TTStem;
},
{
horizontal = 1;
origin = (0,9);
type = TTSnap;
},
{
horizontal = 1;
origin = (0,38);
type = TTSnap;
},
{
horizontal = 1;
options = 4;
origin = (0,38);
target = (0,4);
type = TTShift;
}
);
layerId = "4E2227F3-52E4-4048-A8EE-327B486EF0A4";
shapes = (
{
closed = 1;
nodes = (
(222,-7,o),
(259,31,o),
(276,94,c),
(257,120,l),
(257,0,l),
(445,0,l),
(445,360,ls),
(445,461,o),
(358,528,o),
(228,528,cs),
(103,528,o),
(17,457,o),
(17,337,c),
(200,335,l),
(200,355,o),
(212,367,o),
(230,367,cs),
(248,367,o),
(257,355,o),
(257,337,cs),
(257,154,ls),
(257,137,o),
(239,127,o),
(225,127,cs),
(212,127,o),
(200,136,o),
(200,155,cs),
(200,172,o),
(212,187,o),
(231,187,cs),
(273,187,l),
(273,309,l),
(217,309,ls),
(91,309,o),
(8,297,o),
(8,151,cs),
(8,7,o),
(92,-9,o),
(149,-8,cs)
);
}
);
width = 464;
},
{
anchors = (
{
name = bottom;
pos = (240,0);
},
{
name = ogonek;
pos = (395,0);
},
{
name = top;
pos = (240,500);
}
);
hints = (
{
horizontal = 1;
origin = (0,29);
target = (0,32);
type = Stem;
},
{
horizontal = 1;
origin = (0,38);
target = (0,23);
type = Stem;
},
{
origin = (0,35);
target = (0,26);
type = Stem;
},
{
origin = (0,4);
target = (0,5);
type = Stem;
},
{
horizontal = 1;
origin = (0,9);
target = (0,16);
type = Stem;
}
);
layerId = "262880E7-CFE1-4BDA-902E-E24798F3240A";
shapes = (
{
closed = 1;
nodes = (
(285,-8,o),
(358,19,o),
(389,78,c),
(386,82,l),
(386,0,l),
(408,0,l),
(408,342,ls),
(408,442,o),
(359,508,o),
(243,508,cs),
(149,508,o),
(84,462,o),
(74,392,c),
(96,388,l),
(103,449,o),
(159,487,o),
(240,487,cs),
(346,487,o),
(386,425,o),
(386,345,cs),
(386,142,ls),
(386,52,o),
(296,13,o),
(212,13,cs),
(135,13,o),
(73,49,o),
(73,129,cs),
(73,213,o),
(148,261,o),
(253,261,cs),
(391,261,l),
(391,282,l),
(256,282,ls),
(129,282,o),
(51,224,o),
(51,128,cs),
(51,26,o),
(135,-8,o),
(213,-8,cs)
);
}
);
width = 494;
},
{
anchors = (
{
name = bottom;
pos = (277,0);
},
{
name = ogonek;
pos = (445,0);
},
{
name = top;
pos = (277,520);
}
);
layerId = "FFFA8D72-12AC-4CE0-B2CA-57A29829F4DA";
shapes = (
{
closed = 1;
nodes = (
(289,-8,o),
(327,31,o),
(339,114,c),
(326,135,l),
(326,0,l),
(514,0,l),
(514,345,ls),
(514,451,o),
(405,528,o),
(266,528,cs),
(130,528,o),
(32,448,o),
(31,348,c),
(213,332,l),
(214,352,o),
(237,367,o),
(269,367,cs),
(304,367,o),
(326,348,o),
(326,320,cs),
(326,185,ls),
(326,145,o),
(295,122,o),
(253,122,cs),
(222,122,o),
(208,140,o),
(208,162,cs),
(208,190,o),
(230,203,o),
(271,203,cs),
(342,203,l),
(342,297,l),
(228,297,ls),
(90,297,o),
(19,239,o),
(19,139,cs),
(19,41,o),
(88,-8,o),
(195,-8,cs)
);
}
);
width = 551;
},
{
anchors = (
{
name = bottom;
pos = (204,0);
},
{
name = ogonek;
pos = (355,0);
},
{
name = top;
pos = (207,517);
}
);
associatedMasterId = "FFFA8D72-12AC-4CE0-B2CA-57A29829F4DA";
attr = {
coordinates = (
100,
300
);
};
background = {
shapes = (
{
closed = 1;
nodes = (
(375,0,l),
(375,350,ls),
(375,451,o),
(305,517,o),
(207,517,cs),
(112,517,o),
(42,454,o),
(40,362,c),
(146,362,l),
(146,403,o),
(170,431,o),
(205,431,cs),
(245,431,o),
(275,395,o),
(275,341,cs),
(275,0,l)
);
},
{
closed = 1;
nodes = (
(253,-8,o),
(311,42,o),
(311,177,c),
(311,309,l),
(215,309,ls),
(110,309,o),
(23,266,o),
(23,141,cs),
(23,15,o),
(111,-8,o),
(168,-8,cs)
);
},
{
closed = 1;
nodes = (
(154,79,o),
(126,100,o),
(126,149,cs),
(126,204,o),
(162,230,o),
(212,230,cs),
(275,230,l),
(275,161,ls),
(275,107,o),
(232,79,o),
(190,79,cs)
);
}
);
};
layerId = "018758E2-A88A-4CB4-AAF3-687FDBC090D8";
name = "{100,300}";
shapes = (
{
closed = 1;
nodes = (
(214,-8,o),
(251,6,o),
(276,39,c),
(275,40,l),
(275,0,l),
(375,0,l),
(375,350,ls),
(375,451,o),
(305,517,o),
(207,517,cs),
(112,517,o),
(42,454,o),
(40,362,c),
(146,362,l),
(146,403,o),
(170,431,o),
(205,431,cs),
(245,431,o),
(275,395,o),
(275,341,cs),
(275,161,ls),
(275,107,o),
(232,79,o),
(190,79,cs),
(154,79,o),
(126,100,o),
(126,149,cs),
(126,204,o),
(162,230,o),
(212,230,cs),
(291,230,l),
(291,309,l),
(215,309,ls),
(110,309,o),
(23,266,o),
(23,141,cs),
(23,15,o),
(111,-8,o),
(168,-8,cs)
);
}
);
width = 415;
},
{
anchors = (
{
name = bottom;
pos = (258,0);
},
{
name = ogonek;
pos = (419,0);
},
{
name = top;
pos = (255,517);
}
);
associatedMasterId = "FFFA8D72-12AC-4CE0-B2CA-57A29829F4DA";
attr = {
coordinates = (
100,
500
);
};
layerId = "BAE5EEA3-611C-40EA-B886-6100A765A59D";
name = "{100,500}";
shapes = (
{
closed = 1;
nodes = (
(273,-8,o),
(325,13,o),
(359,53,c),
(358,54,l),
(358,0,l),
(458,0,l),
(458,348,ls),
(458,446,o),
(381,517,o),
(255,517,cs),
(139,517,o),
(57,457,o),
(51,375,c),
(157,362,l),
(161,404,o),
(196,431,o),
(258,431,cs),
(327,431,o),
(358,397,o),
(358,341,cs),
(358,174,ls),
(358,116,o),
(297,76,o),
(229,76,cs),
(177,76,o),
(136,100,o),
(136,149,cs),
(136,204,o),
(186,234,o),
(262,234,cs),
(374,234,l),
(374,311,l),
(243,311,ls),
(111,311,o),
(36,247,o),
(36,144,cs),
(36,37,o),
(117,-8,o),
(207,-8,cs)
);
}
);
width = 521;
}
);
unicode = 97;
userData = {
KernOnName = a;
};
},
{
color = 3;
glyphname = ae;
layers = (
{
hints = (
{
horizontal = 1;
origin = (1,5);
target = (0,43);
type = Stem;
},
{
horizontal = 1;
origin = (0,49);
target = (1,10);
type = Stem;
},
{
origin = (0,46);
target = (1,2);
type = Stem;
},
{
origin = (1,7);
target = (0,15);
type = Stem;
},
{
horizontal = 1;
origin = (0,31);
target = (0,38);
type = Stem;
},
{
origin = (0,34);
target = (0,35);
type = Stem;
},
{
origin = (1,6);
target = (0,18);
type = Stem;
},
{
origin = (2,11);
target = (0,19);
type = Stem;
},
{
horizontal = 1;
origin = (0,19);
target = (0,0);
type = Stem;
},
{
horizontal = 1;
origin = (0,25);
target = (2,5);
type = Stem;
},
{
horizontal = 1;
origin = (0,5);
target = (0,12);
type = Stem;
},
{
origin = (0,9);
target = (0,8);
type = Stem;
}
);
layerId = "262880E7-CFE1-4BDA-902E-E24798F3240A";
shapes = (
{
closed = 1;
nodes = (
(298,-8,o),
(381,26,o),
(401,95,c),
(420,26,o),
(484,-8,o),
(566,-8,cs),
(654,-8,o),
(718,44,o),
(737,118,c),
(715,117,l),
(697,56,o),
(642,13,o),
(566,13,cs),
(484,13,o),
(411,56,o),
(411,142,c),
(411,180,o),
(411,217,o),
(411,255,c),
(745,255,l),
(745,341,o),
(745,350,o),
(739,377,cs),
(722,454,o),
(656,508,o),
(566,508,cs),
(487,508,o),
(428,466,o),
(404,403,c),
(386,468,o),
(337,508,o),
(246,508,cs),
(152,508,o),
(87,462,o),
(77,392,c),
(99,388,l),
(106,449,o),
(162,487,o),
(243,487,cs),
(349,487,o),
(389,425,o),
(389,345,cs),
(389,276,l),
(259,276,ls),
(132,276,o),
(54,224,o),
(54,128,cs),
(54,26,o),
(138,-8,o),
(216,-8,cs)
);
},
{
closed = 1;
nodes = (
(138,13,o),
(76,49,o),
(76,129,cs),
(76,213,o),
(151,255,o),
(256,255,cs),
(389,255,l),
(389,142,l),
(389,52,o),
(299,13,o),
(215,13,cs)
);
},
{
closed = 1;
nodes = (
(411,316,o),
(412,347,o),
(415,365,cs),
(427,436,o),
(484,487,o),
(566,487,cs),
(648,487,o),
(706,436,o),
(719,365,cs),
(722,348,o),
(723,313,o),
(723,276,c),
(411,276,l)
);
}
);
width = 807;
},
{
layerId = "FFFA8D72-12AC-4CE0-B2CA-57A29829F4DA";
shapes = (
{
closed = 1;
nodes = (
(327,-8,o),
(400,34,o),
(426,83,c),
(447,34,o),
(517,-8,o),
(609,-8,cs),
(690,-8,o),
(759,24,o),
(814,81,c),
(727,187,l),
(706,162,o),
(668,149,o),
(620,149,cs),
(576,149,o),
(540,160,o),
(527,193,cs),
(524,201,o),
(523,206,o),
(523,208,c),
(838,208,l),
(838,302,o),
(829,344,o),
(819,372,cs),
(784,469,o),
(682,528,o),
(591,528,cs),
(514,528,o),
(455,485,o),
(434,450,c),
(405,492,o),
(336,528,o),
(255,528,cs),
(138,528,o),
(28,452,o),
(28,356,c),
(216,332,l),
(217,352,o),
(240,367,o),
(272,367,cs),
(307,367,o),
(329,348,o),
(329,320,cs),
(329,305,l),
(231,305,ls),
(92,305,o),
(23,242,o),
(23,150,cs),
(23,50,o),
(105,-8,o),
(225,-8,cs)
);
},
{
closed = 1;
nodes = (
(224,120,o),
(211,144,o),
(211,164,cs),
(211,190,o),
(233,208,o),
(274,208,cs),
(329,208,l),
(329,184,ls),
(329,147,o),
(296,120,o),
(259,120,cs)
);
},
{
closed = 1;
nodes = (
(522,313,o),
(524,320,o),
(527,327,c),
(536,351,o),
(556,367,o),
(583,367,cs),
(611,367,o),
(629,351,o),
(639,327,cs),
(642,320,o),
(644,313,o),
(645,305,c),
(521,305,l)
);
}
);
width = 859;
},
{
layerId = "DCBE1F7B-116A-43E0-B7B4-8657BA77D8B5";
shapes = (
{
closed = 1;
nodes = (
(219,-8,o),
(276,21,o),
(296,87,c),
(312,30,o),
(360,-8,o),
(423,-8,cs),
(494,-8,o),
(546,40,o),
(556,109,c),
(534,108,l),
(524,51,o),
(481,13,o),
(423,13,cs),
(357,13,o),
(311,63,o),
(311,135,cs),
(311,175,o),
(311,214,o),
(311,254,c),
(558,254,l),
(558,291,o),
(558,328,o),
(558,365,cs),
(558,448,o),
(503,508,o),
(423,508,cs),
(364,508,o),
(318,474,o),
(299,422,c),
(280,476,o),
(240,508,o),
(180,508,cs),
(111,508,o),
(50,461,o),
(47,388,c),
(70,385,l),
(70,446,o),
(122,487,o),
(179,487,cs),
(251,487,o),
(288,430,o),
(288,345,cs),
(288,274,l),
(191,274,ls),
(102,274,o),
(37,236,o),
(37,126,cs),
(37,18,o),
(101,-8,o),
(158,-8,cs)
);
},
{
closed = 1;
nodes = (
(104,13,o),
(59,45,o),
(59,127,cs),
(59,219,o),
(115,253,o),
(193,253,cs),
(288,253,l),
(288,142,ls),
(288,52,o),
(224,13,o),
(161,13,cs)
);
},
{
closed = 1;
nodes = (
(311,304,o),
(311,334,o),
(311,365,cs),
(311,437,o),
(357,487,o),
(423,487,cs),
(490,487,o),
(536,437,o),
(536,365,cs),
(536,334,o),
(536,304,o),
(536,273,c),
(311,273,l)
);
}
);
width = 601;
},
{
hints = (
{
horizontal = 1;
origin = (0,31);
stem = -1;
target = (0,38);
type = TTStem;
},
{
horizontal = 1;
origin = (0,49);
stem = -1;
target = (1,10);
type = TTStem;
},
{
horizontal = 1;
origin = (0,5);
stem = -1;
target = (0,12);
type = TTStem;
},
{
horizontal = 1;
origin = (0,25);
stem = -1;
target = (2,5);
type = TTStem;
},
{
horizontal = 1;
origin = (0,31);
type = TTSnap;
},
{
horizontal = 1;
origin = (0,49);
type = TTSnap;
}
);
layerId = "4E2227F3-52E4-4048-A8EE-327B486EF0A4";
shapes = (
{
closed = 1;
nodes = (
(274,-8,o),
(345,22,o),
(351,47,c),
(355,23,o),
(410,-8,o),
(496,-8,cs),
(619,-8,o),
(685,55,o),
(688,171,c),
(505,182,l),
(505,176,o),
(499,153,o),
(480,153,cs),
(466,153,o),
(457,166,o),
(457,185,cs),
(457,194,o),
(457,189,o),
(457,198,c),
(690,198,l),
(690,244,o),
(690,304,o),
(690,350,cs),
(690,456,o),
(611,528,o),
(487,528,cs),
(428,528,o),
(384,512,o),
(351,489,c),
(313,514,o),
(277,528,o),
(224,528,cs),
(105,528,o),
(14,459,o),
(14,341,c),
(203,337,l),
(203,355,o),
(214,367,o),
(230,367,cs),
(246,367,o),
(258,355,o),
(258,337,cs),
(258,305,l),
(218,305,ls),
(93,305,o),
(9,289,o),
(9,153,cs),
(9,3,o),
(112,-8,o),
(176,-8,cs)
);
},
{
closed = 1;
nodes = (
(213,125,o),
(201,134,o),
(201,158,cs),
(201,183,o),
(213,198,o),
(232,198,cs),
(258,198,l),
(258,152,ls),
(258,135,o),
(240,125,o),
(226,125,cs)
);
},
{
closed = 1;
nodes = (
(457,315,o),
(457,325,o),
(457,335,cs),
(457,354,o),
(466,367,o),
(480,367,cs),
(493,367,o),
(502,354,o),
(502,335,cs),
(502,325,o),
(502,315,o),
(502,305,c),
(457,305,l)
);
}
);
width = 704;
},
{
associatedMasterId = "262880E7-CFE1-4BDA-902E-E24798F3240A";
attr = {
coordinates = (
100,
500
);
};
hints = (
{
horizontal = 1;
origin = (1,5);
target = (0,43);
type = Stem;
},
{
horizontal = 1;
origin = (0,49);
target = (1,10);
type = Stem;
},
{
origin = (0,46);
target = (1,2);
type = Stem;
},
{
origin = (1,7);
target = (0,15);
type = Stem;
},
{
horizontal = 1;
origin = (0,31);
target = (0,38);
type = Stem;
},
{
origin = (0,34);
target = (0,35);
type = Stem;
},
{
origin = (1,6);
target = (0,18);
type = Stem;
},
{
origin = (2,11);
target = (0,19);
type = Stem;
},
{
horizontal = 1;
place = (215, 0);
place = (215, 0);
type = Stem;
},
{
horizontal = 1;
origin = (0,25);
target = (2,5);
type = Stem;
},
{
horizontal = 1;
origin = (0,5);
target = (0,12);
type = Stem;
},
{
origin = (0,9);
target = (0,8);
type = Stem;
}
);
layerId = "E7B60026-6285-4AF7-81D0-E2C0967E1F1B";
name = "{100,500}";
shapes = (
{
closed = 1;
nodes = (
(309,-8,o),
(381,24,o),
(412,74,c),
(439,28,o),
(502,-8,o),
(578,-8,cs),
(681,-8,o),
(754,50,o),
(779,111,c),
(709,156,l),
(688,111,o),
(654,86,o),
(592,86,cs),
(525,86,o),
(471,115,o),
(465,176,c),
(464,195,o),
(463,194,o),
(463,215,c),
(786,215,l),
(786,305,o),
(782,347,o),
(774,375,cs),
(749,463,o),
(666,517,o),
(576,517,cs),
(501,517,o),
(439,470,o),
(418,430,c),
(398,474,o),
(334,517,o),
(253,517,cs),
(144,517,o),
(59,457,o),
(54,375,c),
(154,362,l),
(158,404,o),
(198,431,o),
(256,431,cs),
(329,431,o),
(361,389,o),
(361,333,cs),
(361,299,l),
(246,299,ls),
(113,299,o),
(39,233,o),
(39,135,cs),
(39,31,o),
(123,-8,o),
(224,-8,cs)
);
},
{
closed = 1;
nodes = (
(178,71,o),
(139,99,o),
(139,143,cs),
(139,193,o),
(189,215,o),
(264,215,cs),
(361,215,l),
(361,170,l),
(361,102,o),
(298,71,o),
(236,71,cs)
);
},
{
closed = 1;
nodes = (
(463,319,o),
(464,334,o),
(467,347,cs),
(478,396,o),
(518,431,o),
(574,431,cs),
(631,431,o),
(671,395,o),
(682,347,cs),
(685,335,o),
(686,317,o),
(687,299,c),
(462,299,l)
);
}
);
width = 828;
},
{
associatedMasterId = "262880E7-CFE1-4BDA-902E-E24798F3240A";
attr = {
coordinates = (
100,
300
);
};
layerId = "29303AE9-139B-4911-9A39-4D32E7983952";
name = "{100,300}";
shapes = (
{
closed = 1;
nodes = (
(245,-8,o),
(308,25,o),
(322,64,c),
(332,31,o),
(383,-8,o),
(457,-8,cs),
(552,-8,o),
(611,47,o),
(618,138,c),
(521,150,l),
(515,116,o),
(489,85,o),
(450,85,cs),
(408,85,o),
(379,118,o),
(379,158,cs),
(379,174,o),
(379,188,o),
(379,214,c),
(620,214,l),
(620,255,o),
(620,317,o),
(620,358,cs),
(620,452,o),
(553,517,o),
(453,517,cs),
(394,517,o),
(349,492,o),
(323,453,c),
(295,494,o),
(257,517,o),
(201,517,cs),
(108,517,o),
(33,460,o),
(32,366,c),
(132,363,l),
(132,404,o),
(165,431,o),
(203,431,cs),
(249,431,o),
(274,395,o),
(274,341,cs),
(274,298,l),
(204,298,ls),
(98,298,o),
(24,261,o),
(24,139,cs),
(24,11,o),
(106,-8,o),
(166,-8,cs)
);
},
{
closed = 1;
nodes = (
(155,72,o),
(125,94,o),
(125,141,cs),
(125,188,o),
(161,213,o),
(211,213,cs),
(274,213,l),
(274,147,ls),
(274,98,o),
(232,72,o),
(191,72,cs)
);
},
{
closed = 1;
nodes = (
(379,319,o),
(379,330,o),
(379,351,cs),
(379,398,o),
(408,431,o),
(450,431,cs),
(491,431,o),
(520,398,o),
(520,351,cs),
(520,330,o),
(520,319,o),
(520,298,c),
(379,298,l)
);
}
);
width = 649;
}
);
unicode = 230;
},
{
glyphname = b;
layers = (
{
hints = (
{
origin = (0,2);
target = (0,1);
type = Stem;
},
{
horizontal = 1;
place = (508, -21);
place = (508, -21);
type = Stem;
},
{
origin = (0,3);
target = (0,0);
type = Stem;
},
{
place = (429, 22);
place = (429, 22);
type = Stem;
},
{
horizontal = 1;
place = (0, 0);
place = (0, 0);
type = Stem;
}
);
layerId = "262880E7-CFE1-4BDA-902E-E24798F3240A";
shapes = (
{
closed = 1;
nodes = (
(113,0,l),
(113,700,l),
(91,700,l),
(91,0,l)
);
},
{
pos = (94,0);
ref = b.bowl;
}
);
width = 508;
},
{
hints = (
{
horizontal = 1;
origin = (0,2);
type = TTSnap;
},
{
horizontal = 1;
origin = (0,3);
type = TTSnap;
}
);
layerId = "4E2227F3-52E4-4048-A8EE-327B486EF0A4";
shapes = (
{
closed = 1;
nodes = (
(210,0,l),
(210,700,l),
(22,700,l),
(22,0,l)
);
},
{
pos = (175,0);
ref = b.bowl;
}
);
width = 458;
},
{
layerId = "FFFA8D72-12AC-4CE0-B2CA-57A29829F4DA";
shapes = (
{
closed = 1;
nodes = (
(230,0,l),
(230,700,l),
(42,700,l),
(42,0,l)
);
},
{
pos = (189,0);
ref = b.bowl;
}
);
width = 589;
},
{
layerId = "DCBE1F7B-116A-43E0-B7B4-8657BA77D8B5";
shapes = (
{
closed = 1;
nodes = (
(84,0,l),
(84,700,l),
(62,700,l),
(62,0,l)
);
},
{
pos = (69,0);
ref = b.bowl;
}
);
width = 377;
}
);
unicode = 98;
},
{
color = 3;
glyphname = c;
layers = (
{
anchors = (
{
name = bottom;
pos = (238,-8);
},
{
name = top;
pos = (250,500);
}
);
hints = (
{
origin = (0,43);
target = (0,18);
type = Stem;
},
{
horizontal = 1;
origin = (0,49);
target = (0,12);
type = Stem;
},
{
horizontal = 1;
origin = (0,37);
target = (0,24);
type = Stem;
},
{
origin = (0,30);
target = (0,31);
type = Stem;
}
);
layerId = "262880E7-CFE1-4BDA-902E-E24798F3240A";
shapes = (
{
closed = 1;
nodes = (
(343,-8,o),
(413,45,o),
(427,113,cs),
(430,124,o),
(430,129,o),
(431,137,c),
(410,139,l),
(408,131,o),
(409,131,o),
(408,125,cs),
(398,64,o),
(335,13,o),
(250,13,cs),
(165,13,o),
(108,63,o),
(94,135,cs),
(90,156,o),
(86,193,o),
(86,250,cs),
(86,302,o),
(90,343,o),
(94,365,cs),
(107,436,o),
(165,487,o),
(250,487,cs),
(335,487,o),
(395,436,o),
(407,375,cs),
(409,369,o),
(410,361,o),
(411,352,c),
(433,353,l),
(432,363,o),
(430,376,o),
(427,387,cs),
(411,454,o),
(343,508,o),
(250,508,cs),
(158,508,o),
(93,454,o),
(75,377,cs),
(68,345,o),
(64,310,o),
(64,251,cs),
(64,195,o),
(67,156,o),
(75,123,cs),
(94,46,o),
(158,-8,o),
(250,-8,cs)
);
}
);
width = 483;
},
{
anchors = (
{
name = bottom;
pos = (227,-8);
},
{
name = top;
pos = (227,520);
}
);
hints = (
{
horizontal = 1;
origin = (0,37);
stem = -1;
target = (0,24);
type = TTStem;
},
{
horizontal = 1;
origin = (0,49);
stem = -1;
target = (0,12);
type = TTStem;
},
{
horizontal = 1;
origin = (0,37);
type = TTSnap;
},
{
horizontal = 1;
origin = (0,49);
type = TTSnap;
}
);
layerId = "4E2227F3-52E4-4048-A8EE-327B486EF0A4";
shapes = (
{
closed = 1;
nodes = (
(361,-8,o),
(437,57,o),
(437,170,cs),
(437,181,o),
(437,197,o),
(437,213,c),
(249,215,l),
(249,205,o),
(249,195,o),
(249,185,cs),
(249,166,o),
(240,153,o),
(227,153,cs),
(213,153,o),
(204,166,o),
(204,185,cs),
(204,210,o),
(204,235,o),
(204,260,cs),
(204,285,o),
(204,310,o),
(204,335,cs),
(204,354,o),
(213,367,o),
(227,367,cs),
(240,367,o),
(249,354,o),
(249,335,cs),
(249,325,o),
(249,316,o),
(249,306,c),
(437,313,l),
(437,327,o),
(437,340,o),
(437,350,cs),
(437,456,o),
(361,528,o),
(227,528,cs),
(93,528,o),
(16,456,o),
(16,350,cs),
(16,327,o),
(16,283,o),
(16,260,cs),
(16,237,o),
(16,193,o),
(16,170,cs),
(16,57,o),
(93,-8,o),
(227,-8,cs)
);
}
);
width = 446;
},
{
anchors = (
{
name = bottom;
pos = (278,-8);
},
{
name = top;
pos = (278,520);
}
);
layerId = "FFFA8D72-12AC-4CE0-B2CA-57A29829F4DA";
shapes = (
{
closed = 1;
nodes = (
(391,-8,o),
(486,45,o),
(521,144,cs),
(528,164,o),
(529,185,o),
(529,189,c),
(344,219,l),
(343,208,o),
(342,202,o),
(341,199,cs),
(330,167,o),
(308,153,o),
(281,153,cs),
(253,153,o),
(234,167,o),
(223,193,cs),
(216,211,o),
(212,234,o),
(212,262,cs),
(212,291,o),
(216,314,o),
(224,331,cs),
(235,355,o),
(254,367,o),
(281,367,cs),
(311,367,o),
(334,349,o),
(341,327,cs),
(344,318,o),
(346,305,o),
(347,298,c),
(531,327,l),
(531,329,o),
(532,349,o),
(521,379,cs),
(491,462,o),
(399,528,o),
(282,528,cs),
(170,528,o),
(79,471,o),
(42,376,cs),
(31,348,o),
(22,310,o),
(22,263,cs),
(22,225,o),
(28,185,o),
(42,149,cs),
(80,51,o),
(169,-8,o),
(282,-8,cs)
);
}
);
width = 543;
},
{
anchors = (
{
name = bottom;
pos = (182,-8);
},
{
name = top;
pos = (182,500);
}
);
layerId = "DCBE1F7B-116A-43E0-B7B4-8657BA77D8B5";
shapes = (
{
closed = 1;
nodes = (
(262,-8,o),
(317,52,o),
(317,115,cs),
(317,117,o),
(317,125,o),
(317,127,c),
(295,127,l),
(295,125,o),
(295,117,o),
(295,115,cs),
(295,63,o),
(249,13,o),
(182,13,cs),
(116,13,o),
(70,63,o),
(70,135,cs),
(70,173,o),
(70,212,o),
(70,250,cs),
(70,288,o),
(70,327,o),
(70,365,cs),
(70,437,o),
(116,487,o),
(182,487,cs),
(249,487,o),
(295,437,o),
(295,385,cs),
(295,383,o),
(295,375,o),
(295,373,c),
(317,373,l),
(317,374,o),
(317,384,o),
(317,385,cs),
(317,448,o),
(262,508,o),
(182,508,cs),
(103,508,o),
(48,448,o),
(48,365,cs),
(48,327,o),
(48,288,o),
(48,250,cs),
(48,212,o),
(48,173,o),
(48,135,cs),
(48,52,o),
(103,-8,o),
(182,-8,cs)
);
}
);
width = 351;
},
{
anchors = (
{
name = bottom;
pos = (253,-8);
},
{
name = top;
pos = (253,520);
}
);
associatedMasterId = "4E2227F3-52E4-4048-A8EE-327B486EF0A4";
attr = {
coordinates = (
188,
400
);
};
layerId = "A708B374-6D5B-4775-AA6A-F8146B244141";
name = "{188,400}";
shapes = (
{
closed = 1;
nodes = (
(378,-8,o),
(464,53,o),
(480,163,cs),
(482,175,o),
(483,188,o),
(483,201,c),
(297,217,l),
(296,207,o),
(295,197,o),
(293,188,cs),
(289,168,o),
(279,153,o),
(254,153,cs),
(233,153,o),
(221,165,o),
(215,186,cs),
(209,205,o),
(208,231,o),
(208,261,cs),
(208,288,o),
(209,313,o),
(214,332,cs),
(220,354,o),
(232,367,o),
(254,367,cs),
(275,367,o),
(288,355,o),
(294,335,cs),
(297,326,o),
(298,315,o),
(298,302,c),
(484,320,l),
(484,337,o),
(482,353,o),
(479,368,cs),
(459,467,o),
(373,528,o),
(255,528,cs),
(132,528,o),
(48,464,o),
(29,363,cs),
(24,338,o),
(19,297,o),
(19,262,cs),
(19,231,o),
(22,189,o),
(29,160,cs),
(48,54,o),
(131,-8,o),
(255,-8,cs)
);
}
);
width = 495;
}
);
unicode = 99;
userData = {
KernOnName = c;
};
},
{
glyphname = eth;
layers = (
{
hints = (
{
horizontal = 1;
place = (508, 0);
place = (508, 0);
type = Stem;
},
{
origin = (0,25);
target = (0,22);
type = Stem;
},
{
origin = (0,15);
target = (0,5);
type = Stem;
},
{
horizontal = 1;
place = (-8, 0);
place = (-8, 0);
type = Stem;
}
);
layerId = "262880E7-CFE1-4BDA-902E-E24798F3240A";
shapes = (
{
closed = 1;
nodes = (
(330,-8,o),
(396,46,o),
(413,123,cs),
(420,155,o),
(418,191,o),
(418,250,cs),
(418,290,o),
(419,321,o),
(417,348,cs),
(404,562,o),
(283,642,o),
(209,700,c),
(177,700,l),
(263,634,o),
(369,539,o),
(384,427,c),
(391,430,l),
(362,478,o),
(307,508,o),
(240,508,cs),
(151,508,o),
(87,454,o),
(70,377,cs),
(62,345,o),
(63,310,o),
(63,251,cs),
(63,195,o),
(62,156,o),
(70,123,cs),
(88,46,o),
(150,-8,o),
(240,-8,cs)
);
},
{
closed = 1;
nodes = (
(158,13,o),
(102,63,o),
(89,135,cs),
(85,156,o),
(85,193,o),
(85,250,cs),
(85,302,o),
(85,343,o),
(89,365,cs),
(102,436,o),
(158,487,o),
(240,487,cs),
(322,487,o),
(380,436,o),
(393,365,cs),
(397,344,o),
(396,307,o),
(396,250,cs),
(396,198,o),
(397,157,o),
(393,135,cs),
(380,64,o),
(322,13,o),
(240,13,cs)
);
},
{
closed = 1;
nodes = (
(383,634,l),
(377,653,l),
(190,589,l),
(196,570,l)
);
}
);
width = 488;
},
{
layerId = "FFFA8D72-12AC-4CE0-B2CA-57A29829F4DA";
shapes = (
{
closed = 1;
nodes = (
(384,-8,o),
(471,49,o),
(508,129,cs),
(520,155,o),
(528,189,o),
(528,228,cs),
(528,279,o),
(522,328,o),
(510,373,cs),
(487,463,o),
(433,551,o),
(320,700,c),
(119,700,l),
(204,608,o),
(262,539,o),
(315,420,c),
(325,422,l),
(313,463,o),
(169,446,o),
(119,415,cs),
(84,393,o),
(57,362,o),
(40,325,cs),
(27,296,o),
(20,263,o),
(20,227,cs),
(20,192,o),
(26,160,o),
(40,129,cs),
(78,45,o),
(166,-8,o),
(274,-8,cs)
);
},
{
closed = 1;
nodes = (
(252,132,o),
(234,145,o),
(223,167,cs),
(215,183,o),
(210,199,o),
(210,222,cs),
(210,243,o),
(214,258,o),
(222,274,cs),
(233,296,o),
(252,307,o),
(274,307,cs),
(296,307,o),
(313,296,o),
(325,274,cs),
(333,259,o),
(338,243,o),
(338,222,cs),
(338,199,o),
(333,182,o),
(325,167,cs),
(313,145,o),
(296,132,o),
(274,132,cs)
);
},
{
closed = 1;
nodes = (
(498,561,l),
(474,658,l),
(126,572,l),
(150,475,l)
);
}
);
width = 552;
},
{
layerId = "DCBE1F7B-116A-43E0-B7B4-8657BA77D8B5";
shapes = (
{
closed = 1;
nodes = (
(262,-8,o),
(317,52,o),
(317,135,cs),
(317,173,o),
(317,212,o),
(317,250,cs),
(317,298,o),
(318,327,o),
(317,365,cs),
(311,580,o),
(221,660,o),
(175,700,c),
(150,700,l),
(208,654,o),
(285,561,o),
(290,443,c),
(293,452,l),
(269,487,o),
(229,508,o),
(182,508,cs),
(103,508,o),
(48,448,o),
(48,365,cs),
(48,327,o),
(48,298,o),
(48,250,cs),
(48,212,o),
(48,173,o),
(48,135,cs),
(48,52,o),
(103,-8,o),
(182,-8,cs)
);
},
{
closed = 1;
nodes = (
(116,13,o),
(70,63,o),
(70,135,cs),
(70,173,o),
(70,212,o),
(70,250,cs),
(70,298,o),
(70,327,o),
(70,365,cs),
(70,437,o),
(116,487,o),
(182,487,c),
(249,487,o),
(295,437,o),
(295,365,cs),
(295,327,o),
(295,298,o),
(295,250,cs),
(295,212,o),
(295,173,o),
(295,135,cs),
(295,63,o),
(249,13,o),
(182,13,cs)
);
},
{
closed = 1;
nodes = (
(342,638,l),
(336,657,l),
(149,593,l),
(155,574,l)
);
}
);
width = 372;
},
{
hints = (
{
horizontal = 1;
origin = (0,31);
type = TTSnap;
},
{
horizontal = 1;
origin = (0,31);
stem = -1;
target = (1,23);
type = TTStem;
},
{
horizontal = 1;
origin = (1,11);
stem = -1;
target = (0,19);
type = TTStem;
}
);
layerId = "4E2227F3-52E4-4048-A8EE-327B486EF0A4";
shapes = (
{
closed = 1;
nodes = (
(363,-8,o),
(439,57,o),
(439,170,cs),
(439,193,o),
(439,217,o),
(439,240,cs),
(439,263,o),
(439,287,o),
(439,310,cs),
(439,435,o),
(399,550,o),
(295,700,c),
(114,700,l),
(195,576,o),
(231,501,o),
(245,452,c),
(257,452,l),
(249,465,o),
(249,488,o),
(193,488,cs),
(95,488,o),
(14,416,o),
(14,310,cs),
(14,287,o),
(14,263,o),
(14,240,cs),
(14,217,o),
(14,193,o),
(14,170,cs),
(14,57,o),
(91,-8,o),
(227,-8,cs)
);
},
{
closed = 1;
nodes = (
(212,153,o),
(202,166,o),
(202,185,cs),
(202,210,o),
(202,215,o),
(202,240,cs),
(202,265,o),
(202,270,o),
(202,295,cs),
(202,314,o),
(212,327,o),
(227,327,cs),
(241,327,o),
(251,314,o),
(251,295,cs),
(251,270,o),
(251,265,o),
(251,240,cs),
(251,215,o),
(251,210,o),
(251,185,cs),
(251,166,o),
(241,153,o),
(227,153,cs)
);
},
{
closed = 1;
nodes = (
(437,582,l),
(420,661,l),
(100,585,l),
(119,510,l)
);
}
);
width = 455;
}
);
unicode = 240;
},
{
color = 3;
glyphname = e;
layers = (
{
anchors = (
{
name = bottom;
pos = (179,0);
},
{
name = ogonek;
pos = (251,17);
},
{
name = top;
pos = (179,500);
}
);
layerId = "DCBE1F7B-116A-43E0-B7B4-8657BA77D8B5";
shapes = (
{
closed = 1;
nodes = (
(253,-8,o),
(305,40,o),
(315,109,c),
(293,109,l),
(283,52,o),
(240,13,o),
(182,13,cs),
(116,13,o),
(70,63,o),
(70,135,cs),
(70,173,o),
(70,212,o),
(70,250,cs),
(70,288,o),
(70,327,o),
(70,365,cs),
(70,437,o),
(116,487,o),
(182,487,cs),
(249,487,o),
(295,437,o),
(295,365,cs),
(295,327,o),
(295,288,o),
(295,261,c),
(304,267,l),
(62,267,l),
(62,247,l),
(317,247,l),
(317,287,o),
(317,327,o),
(317,365,cs),
(317,448,o),
(262,508,o),
(182,508,cs),
(103,508,o),
(48,448,o),
(48,365,cs),
(48,327,o),
(48,288,o),
(48,250,cs),
(48,212,o),
(48,173,o),
(48,135,cs),
(48,52,o),
(103,-8,o),
(182,-8,cs)
);
}
);
width = 360;
},
{
anchors = (
{
name = bottom;
pos = (226,0);
},
{
name = ogonek;
pos = (312,35);
},
{
name = top;
pos = (226,520);
}
);
hints = (
{
horizontal = 1;
origin = (0,34);
stem = -1;
target = (0,18);
type = TTStem;
},
{
horizontal = 1;
origin = (0,46);
stem = -1;
target = (0,6);
type = TTStem;
},
{
horizontal = 1;
origin = (0,34);
type = TTSnap;
},
{
horizontal = 1;
origin = (0,46);
type = TTSnap;
}
);
layerId = "4E2227F3-52E4-4048-A8EE-327B486EF0A4";
shapes = (
{
closed = 1;
nodes = (
(368,-8,o),
(433,53,o),
(435,180,c),
(252,192,l),
(252,176,o),
(246,153,o),
(227,153,cs),
(213,153,o),
(204,166,o),
(204,185,cs),
(204,210,o),
(204,235,o),
(204,260,cs),
(204,285,o),
(204,310,o),
(204,335,cs),
(204,354,o),
(213,367,o),
(227,367,cs),
(240,367,o),
(249,354,o),
(249,335,cs),
(249,316,o),
(249,298,o),
(249,279,c),
(312,305,l),
(154,305,l),
(154,213,l),
(437,213,l),
(437,221,o),
(437,291,o),
(437,350,cs),
(437,456,o),
(361,528,o),
(227,528,cs),
(93,528,o),
(16,456,o),
(16,350,cs),
(16,327,o),
(16,283,o),
(16,260,cs),
(16,230,o),
(16,200,o),
(16,170,cs),
(16,57,o),
(93,-8,o),
(227,-8,cs)
);
}
);
width = 451;
},
{
anchors = (
{
name = top;
pos = (235,517);
}
);
associatedMasterId = "4E2227F3-52E4-4048-A8EE-327B486EF0A4";
layerId = "A47C68F1-3740-4053-814E-50DA5F989A02";
name = "Feb 24 17, 00:22";
shapes = (
{
closed = 1;
nodes = (
(345,-8,o),
(415,47,o),
(436,143,c),
(338,152,l),
(324,106,o),
(289,79,o),
(240,79,cs),
(169,79,o),
(131,134,o),
(131,230,cs),
(131,282,ls),
(131,377,o),
(169,433,o),
(239,433,cs),
(309,433,o),
(348,378,o),
(348,284,c),
(348,296,l),
(109,296,l),
(109,211,l),
(448,211,l),
(448,281,ls),
(448,432,o),
(371,519,o),
(239,519,cs),
(107,519,o),
(31,432,o),
(31,281,cs),
(31,231,ls),
(31,79,o),
(107,-8,o),
(240,-8,cs)
);
}
);
width = 479;
},
{
anchors = (
{
name = bottom;
pos = (265,-9);
},
{
name = ogonek;
pos = (343,10);
},
{
name = top;
pos = (259,509);
}
);
associatedMasterId = "4E2227F3-52E4-4048-A8EE-327B486EF0A4";
attr = {
coordinates = (
100,
500
);
};
hints = (
{
place = (47.795, 47.368);
place = (47.795, 47.368);
type = Stem;
},
{
place = (295.094, 29.778);
place = (295.094, 29.778);
type = Stem;
},
{
horizontal = 1;
place = (160.547, 20.991);
place = (160.547, 20.991);
type = Stem;
},
{
horizontal = 1;
place = (359.265, -38.051);
place = (359.265, -38.051);
type = Stem;
},
{
horizontal = 1;
place = (-5.607, 38.051);
place = (-5.607, 38.051);
type = Stem;
},
{
place = (278.359, 43.778);
place = (278.359, 43.778);
type = Stem;
}
);
layerId = "2A2B9E74-0281-441B-9A83-648CC11D66AE";
name = "{100,500}";
shapes = (
{
closed = 1;
nodes = (
(357,-10,o),
(432,29,o),
(470,95,c),
(394,147,l),
(368,102,o),
(330,77,o),
(274,78,cs),
(207,79,o),
(164,110,o),
(150,161,cs),
(144,180,o),
(143,216,o),
(143,255,cs),
(143,294,o),
(145,329,o),
(153,354,cs),
(166,400,o),
(202,431,o),
(259,431,cs),
(318,431,o),
(357,397,o),
(370,347,cs),
(375,329,o),
(377,294,o),
(377,260,c),
(415,297,l),
(113,297,l),
(113,214,l),
(476,214,l),
(477,254,o),
(476,284,o),
(473,315,cs),
(459,441,o),
(402,517,o),
(259,517,cs),
(155,517,o),
(79,459,o),
(55,368,cs),
(46,337,o),
(44,300,o),
(44,257,cs),
(44,201,o),
(52,153,o),
(69,113,cs),
(102,37,o),
(167,-7,o),
(265,-9,cs)
);
}
);
width = 514;
},
{
anchors = (
{
name = bottom;
pos = (203,-8);
},
{
name = ogonek;
pos = (368,10);
},
{
name = top;
pos = (203,509);
}
);
associatedMasterId = "4E2227F3-52E4-4048-A8EE-327B486EF0A4";
attr = {
coordinates = (
100,
300
);
};
layerId = "08201EB5-B49F-440A-802B-CA47CCD12539";
name = "{100,300}";
shapes = (
{
closed = 1;
nodes = (
(307,-8,o),
(365,49,o),
(371,142,c),
(274,147,l),
(269,109,o),
(243,78,o),
(203,78,cs),
(162,78,o),
(133,111,o),
(133,158,cs),
(133,190,o),
(133,223,o),
(133,255,cs),
(133,286,o),
(133,319,o),
(133,351,cs),
(133,398,o),
(162,431,o),
(203,431,cs),
(245,431,o),
(274,398,o),
(274,351,cs),
(274,322,o),
(274,293,o),
(274,270,c),
(308,296,l),
(105,296,l),
(105,213,l),
(373,213,l),
(373,238,o),
(373,310,o),
(373,358,cs),
(373,452,o),
(309,517,o),
(203,517,cs),
(98,517,o),
(33,452,o),
(33,358,cs),
(33,327,o),
(33,286,o),
(33,255,cs),
(33,221,o),
(33,185,o),
(33,151,cs),
(33,54,o),
(98,-8,o),
(203,-8,cs)
);
}
);
width = 403;
},
{
anchors = (
{
name = bottom;
pos = (233,-5);
},
{
name = ogonek;
pos = (266,0);
},
{
name = top;
pos = (233,504);
}
);
associatedMasterId = "4E2227F3-52E4-4048-A8EE-327B486EF0A4";
attr = {
coordinates = (
53,
400
);
};
hints = (
{
horizontal = 1;
origin = (0,27);
target = (0,26);
type = Stem;
},
{
origin = (0,24);
target = (0,28);
type = Stem;
},
{
origin = (0,40);
target = (0,12);
type = Stem;
},
{
horizontal = 1;
origin = (0,46);
target = (0,6);
type = Stem;
},
{
horizontal = 1;
origin = (0,34);
target = (0,18);
type = Stem;
}
);
layerId = "760AC3E6-CE82-4E46-8443-13CF55BA59C8";
name = "{53,400}";
shapes = (
{
closed = 1;
nodes = (
(323,-8,o),
(385,42,o),
(403,118,c),
(354,127,l),
(340,75,o),
(297,39,o),
(237,39,cs),
(170,39,o),
(125,82,o),
(118,145,cs),
(116,172,o),
(116,209,o),
(116,252,cs),
(116,293,o),
(116,330,o),
(118,359,cs),
(125,421,o),
(169,465,o),
(235,465,cs),
(300,465,o),
(345,421,o),
(352,359,cs),
(354,332,o),
(355,295,o),
(355,262,c),
(375,277,l),
(99,277,l),
(99,232,l),
(408,232,l),
(408,285,o),
(408,325,o),
(405,360,cs),
(397,449,o),
(333,512,o),
(234,512,cs),
(142,512,o),
(77,452,o),
(67,367,cs),
(63,334,o),
(63,297,o),
(63,252,cs),
(63,207,o),
(63,168,o),
(69,132,cs),
(81,49,o),
(143,-8,o),
(236,-8,cs)
);
}
);
width = 465;
},
{
anchors = (
{
name = bottom;
pos = (280,-10);
},
{
name = ogonek;
pos = (311,0);
},
{
name = top;
pos = (266,515);
}
);
associatedMasterId = "4E2227F3-52E4-4048-A8EE-327B486EF0A4";
attr = {
coordinates = (
144,
500
);
};
hints = (
{
place = (23.898, 23.684);
place = (23.898, 23.684);
type = Stem;
},
{
place = (147.547, 14.889);
place = (147.547, 14.889);
type = Stem;
},
{
horizontal = 1;
place = (80.273, 10.495);
place = (80.273, 10.495);
type = Stem;
},
{
horizontal = 1;
place = (179.632, -19.026);
place = (179.632, -19.026);
type = Stem;
},
{
horizontal = 1;
place = (-2.804, 19.026);
place = (-2.804, 19.026);
type = Stem;
},
{
place = (139.18, 21.889);
place = (139.18, 21.889);
type = Stem;
}
);
layerId = "2A2CF652-FDA6-4CD5-BE40-6F49EDC401C9";
name = "{144,500}";
shapes = (
{
closed = 1;
nodes = (
(371,-9,o),
(449,25,o),
(493,86,c),
(403,177,l),
(382,142,o),
(348,116,o),
(296,115,cs),
(239,114,o),
(208,136,o),
(192,169,cs),
(181,192,o),
(176,217,o),
(176,257,cs),
(176,290,o),
(179,319,o),
(186,341,cs),
(199,378,o),
(225,399,o),
(267,399,cs),
(311,399,o),
(341,377,o),
(353,337,cs),
(358,318,o),
(361,290,o),
(361,261,c),
(416,306,l),
(134,306,l),
(134,213,l),
(505,213,l),
(507,248,o),
(507,279,o),
(502,310,cs),
(484,435,o),
(403,523,o),
(266,523,cs),
(160,523,o),
(79,462,o),
(48,368,cs),
(37,337,o),
(32,300,o),
(33,262,cs),
(33,216,o),
(40,176,o),
(54,142,cs),
(88,50,o),
(168,-8,o),
(283,-8,cs)
);
}
);
width = 534;
},
{
anchors = (
{
name = bottom;
pos = (242,-8);
},
{
name = ogonek;
pos = (349,27);
},
{
name = top;
pos = (245,500);
}
);
hints = (
{
horizontal = 1;
origin = (0,27);
target = (0,26);
type = Stem;
},
{
origin = (0,24);
target = (0,28);
type = Stem;
},
{
origin = (0,40);
target = (0,12);
type = Stem;
},
{
horizontal = 1;
origin = (0,46);
target = (0,6);
type = Stem;
},
{
horizontal = 1;
origin = (0,34);
target = (0,18);
type = Stem;
}
);
layerId = "262880E7-CFE1-4BDA-902E-E24798F3240A";
shapes = (
{
closed = 1;
nodes = (
(339,-8,o),
(404,44,o),
(424,116,c),
(402,117,l),
(383,56,o),
(327,13,o),
(246,13,cs),
(161,13,o),
(103,63,o),
(90,135,cs),
(86,156,o),
(86,193,o),
(86,250,cs),
(86,302,o),
(86,343,o),
(90,365,cs),
(103,436,o),
(161,487,o),
(246,487,cs),
(331,487,o),
(389,436,o),
(403,365,cs),
(407,345,o),
(408,302,o),
(408,258,c),
(417,267,l),
(76,267,l),
(76,247,l),
(430,247,l),
(430,333,o),
(430,350,o),
(424,377,cs),
(407,454,o),
(339,508,o),
(246,508,cs),
(154,508,o),
(89,454,o),
(71,377,cs),
(64,345,o),
(64,310,o),
(64,251,cs),
(64,195,o),
(63,156,o),
(71,123,cs),
(90,46,o),
(154,-8,o),
(246,-8,cs)
);
}
);
width = 488;
},
{
anchors = (
{
name = bottom;
pos = (275,0);
},
{
name = ogonek;
pos = (372,23);
},
{
name = top;
pos = (275,520);
}
);
guides = (
{
pos = (828,79);
},
{
pos = (1486,267);
},
{
pos = (1228,193);
},
{
pos = (1616,306);
},
{
pos = (945,113);
}
);
layerId = "FFFA8D72-12AC-4CE0-B2CA-57A29829F4DA";
shapes = (
{
closed = 1;
nodes = (
(379,-8,o),
(458,15,o),
(507,69,c),
(412,190,l),
(392,165,o),
(355,148,o),
(312,148,cs),
(268,148,o),
(232,166,o),
(219,188,cs),
(208,206,o),
(206,230,o),
(206,258,cs),
(206,288,o),
(209,309,o),
(216,327,cs),
(226,352,o),
(251,367,o),
(280,367,cs),
(312,367,o),
(334,352,o),
(341,327,cs),
(346,310,o),
(350,290,o),
(350,262,c),
(413,310,l),
(153,310,l),
(153,213,l),
(532,213,l),
(535,242,o),
(534,270,o),
(531,297,cs),
(516,430,o),
(439,528,o),
(277,528,cs),
(164,528,o),
(75,466,o),
(39,366,cs),
(27,333,o),
(21,295,o),
(21,254,cs),
(21,212,o),
(29,175,o),
(43,142,cs),
(83,47,o),
(175,-8,o),
(298,-8,cs)
);
}
);
width = 549;
},
{
anchors = (
{
name = bottom;
pos = (240,-7);
},
{
name = ogonek;
pos = (291,0);
},
{
name = top;
pos = (236,509);
}
);
associatedMasterId = "4E2227F3-52E4-4048-A8EE-327B486EF0A4";
attr = {
coordinates = (
100,
400
);
};
hints = (
{
place = (2.063, 28.899);
place = (2.063, 28.899);
type = Stem;
},
{
place = (150.309, 25.722);
place = (150.309, 25.722);
type = Stem;
},
{
horizontal = 1;
place = (50.868, 28.535);
place = (50.868, 28.535);
type = Stem;
},
{
horizontal = 1;
place = (218.464, 21.155);
place = (218.464, 21.155);
type = Stem;
},
{
horizontal = 1;
place = (-0.701, 4.756);
place = (-0.701, 4.756);
type = Stem;
},
{
place = (285.106, -17.506);
place = (285.106, -17.506);
type = Stem;
}
);
layerId = "6A71C6C0-6498-4E03-A0EC-57F8322562B8";
name = "{100,400}";
shapes = (
{
closed = 1;
nodes = (
(338,-8,o),
(404,43,o),
(427,128,c),
(337,148,l),
(324,106,o),
(291,78,o),
(243,78,cs),
(190,78,o),
(155,111,o),
(148,159,cs),
(145,184,o),
(145,217,o),
(145,255,cs),
(145,291,o),
(145,323,o),
(148,350,cs),
(154,398,o),
(187,431,o),
(238,431,cs),
(288,431,o),
(322,397,o),
(328,349,cs),
(331,325,o),
(332,294,o),
(332,265,c),
(368,289,l),
(115,289,l),
(115,209,l),
(432,209,l),
(432,248,o),
(432,307,o),
(429,345,cs),
(421,447,o),
(351,517,o),
(237,517,cs),
(133,517,o),
(62,454,o),
(50,361,cs),
(45,331,o),
(44,293,o),
(45,255,cs),
(45,212,o),
(46,174,o),
(53,139,cs),
(70,49,o),
(135,-8,o),
(242,-8,cs)
);
}
);
width = 473;
},
{
anchors = (
{
name = bottom;
pos = (261,-9);
},
{
name = ogonek;
pos = (302,0);
},
{
name = top;
pos = (251,520);
}
);
associatedMasterId = "262880E7-CFE1-4BDA-902E-E24798F3240A";
attr = {
coordinates = (
188,
400
);
};
layerId = "77539BFB-0A83-4960-9558-E507C43AA1DE";
name = "{188,400}";
shapes = (
{
closed = 1;
nodes = (
(374,-8,o),
(449,48,o),
(481,156,c),
(309,188,l),
(301,166,o),
(286,153,o),
(262,152,cs),
(236,151,o),
(221,164,o),
(214,186,cs),
(208,205,o),
(207,231,o),
(207,259,cs),
(207,287,o),
(208,310,o),
(212,331,cs),
(217,353,o),
(230,367,o),
(252,367,cs),
(274,367,o),
(288,353,o),
(292,331,cs),
(295,313,o),
(297,293,o),
(297,271,c),
(364,308,l),
(155,308,l),
(155,213,l),
(485,213,l),
(486,232,o),
(486,281,o),
(484,324,cs),
(475,443,o),
(385,528,o),
(250,528,cs),
(127,528,o),
(42,457,o),
(25,349,cs),
(21,325,o),
(18,286,o),
(19,260,cs),
(19,223,o),
(22,190,o),
(29,160,cs),
(54,52,o),
(126,-8,o),
(263,-8,cs)
);
}
);
width = 502;
},
{
anchors = (
{
name = bottom;
pos = (233,-5);
},
{
name = ogonek;
pos = (266,0);
},
{
name = top;
pos = (233,504);
}
);
associatedMasterId = "4E2227F3-52E4-4048-A8EE-327B486EF0A4";
attr = {
coordinates = (
53,
400
);
};
hints = (
{
horizontal = 1;
origin = (0,27);
target = (0,26);
type = Stem;
},
{
origin = (0,24);
target = (0,28);
type = Stem;
},
{
origin = (0,40);
target = (0,12);
type = Stem;
},
{
horizontal = 1;
origin = (0,46);
target = (0,6);
type = Stem;
},
{
horizontal = 1;
origin = (0,34);
target = (0,18);
type = Stem;
}
);
layerId = "B9A583A1-7CC2-472E-97DA-5B156B5B5DEE";
name = "{53,400} Jan 10 18, 13:34";
shapes = (
{
closed = 1;
nodes = (
(323,-8,o),
(385,42,o),
(403,118,c),
(354,127,l),
(340,75,o),
(297,39,o),
(237,39,cs),
(170,39,o),
(125,82,o),
(118,145,cs),
(116,172,o),
(116,209,o),
(116,252,cs),
(116,293,o),
(116,330,o),
(118,359,cs),
(125,421,o),
(169,465,o),
(235,465,cs),
(300,465,o),
(345,421,o),
(352,359,cs),
(354,332,o),
(355,295,o),
(355,262,c),
(375,277,l),
(99,277,l),
(99,232,l),
(408,232,l),
(408,285,o),
(408,325,o),
(405,360,cs),
(397,449,o),
(333,512,o),
(234,512,cs),
(142,512,o),
(77,452,o),
(67,367,cs),
(63,334,o),
(63,297,o),
(63,252,cs),
(63,207,o),
(63,168,o),
(69,132,cs),
(81,49,o),
(143,-8,o),
(236,-8,cs)
);
}
);
width = 465;
}
);
unicode = 101;
userData = {
KernOnName = e;
};
},
{
glyphname = ezh;
layers = (
{
anchors = (
{
name = bottom;
pos = (188,0);
},
{
name = top;
pos = (188,500);
}
);
layerId = "DCBE1F7B-116A-43E0-B7B4-8657BA77D8B5";
shapes = (
{
closed = 1;
nodes = (
(226,-215,o),
(352,-153,o),
(352,13,cs),
(352,146,o),
(270,236,o),
(64,223,c),
(68,215,l),
(316,479,l),
(316,500,l),
(50,500,l),
(50,479,l),
(298,479,l),
(295,486,l),
(46,221,l),
(46,204,l),
(283,217,o),
(330,109,o),
(330,11,cs),
(330,-145,o),
(209,-193,o),
(108,-193,cs),
(72,-193,o),
(39,-187,o),
(14,-177,c),
(12,-198,l),
(41,-209,o),
(76,-215,o),
(111,-215,cs)
);
}
);
width = 376;
},
{
anchors = (
{
name = bottom;
pos = (237,0);
},
{
name = top;
pos = (237,520);
}
);
layerId = "FFFA8D72-12AC-4CE0-B2CA-57A29829F4DA";
shapes = (
{
closed = 1;
nodes = (
(338,-208,o),
(454,-109,o),
(454,30,cs),
(454,124,o),
(400,259,o),
(203,251,c),
(219,202,l),
(419,360,l),
(419,520,l),
(27,520,l),
(27,350,l),
(277,350,l),
(263,394,l),
(39,225,l),
(114,119,l),
(188,186,o),
(266,125,o),
(266,49,cs),
(266,-7,o),
(223,-38,o),
(152,-38,cs),
(119,-38,o),
(80,-32,o),
(37,-18,c),
(29,-184,l),
(80,-201,o),
(129,-208,o),
(174,-208,cs)
);
}
);
width = 473;
},
{
anchors = (
{
name = bottom;
pos = (190,0);
},
{
name = top;
pos = (190,520);
}
);
hints = (
{
horizontal = 1;
origin = (0,9);
stem = -1;
target = (0,10);
type = TTStem;
},
{
horizontal = 1;
origin = (0,9);
type = TTSnap;
},
{
horizontal = 1;
origin = (0,27);
stem = -1;
target = (0,20);
type = TTStem;
},
{
horizontal = 1;
origin = (0,27);
type = TTSnap;
}
);
layerId = "4E2227F3-52E4-4048-A8EE-327B486EF0A4";
shapes = (
{
closed = 1;
nodes = (
(279,-193,o),
(380,-79,o),
(380,47,cs),
(380,160,o),
(298,247,o),
(187,263,c),
(181,204,l),
(351,350,l),
(351,520,l),
(11,520,l),
(11,350,l),
(212,350,l),
(197,395,l),
(14,250,l),
(72,127,l),
(134,187,o),
(192,132,o),
(192,62,cs),
(192,-5,o),
(148,-28,o),
(101,-28,cs),
(73,-28,o),
(44,-20,o),
(23,-8,c),
(20,-174,l),
(58,-187,o),
(95,-193,o),
(129,-193,cs)
);
}
);
width = 380;
},
{
anchors = (
{
name = bottom;
pos = (231,0);
},
{
name = top;
pos = (231,500);
}
);
layerId = "262880E7-CFE1-4BDA-902E-E24798F3240A";
shapes = (
{
closed = 1;
nodes = (
(318,-192,o),
(416,-118,o),
(416,29,cs),
(416,186,o),
(306,306,o),
(87,243,c),
(91,235,l),
(369,479,l),
(369,500,l),
(52,500,l),
(52,479,l),
(347,479,l),
(345,485,l),
(66,241,l),
(67,224,l),
(314,287,o),
(395,157,o),
(395,29,cs),
(395,-112,o),
(301,-172,o),
(184,-172,cs),
(141,-172,o),
(95,-164,o),
(50,-149,c),
(48,-168,l),
(97,-184,o),
(143,-192,o),
(187,-192,cs)
);
}
);
width = 461;
},
{
anchors = (
{
name = bottom;
pos = (229,0);
},
{
name = top;
pos = (229,509);
}
);
associatedMasterId = "FFFA8D72-12AC-4CE0-B2CA-57A29829F4DA";
attr = {
coordinates = (
100,
500
);
};
layerId = "E2F40EC3-97F2-4742-AF5B-8D22F1BE2629";
name = "{100,500}";
shapes = (
{
closed = 1;
nodes = (
(308,-199,o),
(425,-116,o),
(425,44,cs),
(425,167,o),
(356,291,o),
(140,273,c),
(167,219,l),
(385,423,l),
(385,509,l),
(40,509,l),
(40,418,l),
(251,418,l),
(251,420,l),
(52,233,l),
(87,175,l),
(247,240,o),
(325,142,o),
(325,39,cs),
(325,-62,o),
(258,-109,o),
(166,-109,cs),
(129,-109,o),
(87,-102,o),
(44,-87,c),
(39,-176,l),
(82,-191,o),
(127,-199,o),
(168,-199,cs)
);
}
);
width = 458;
},
{
anchors = (
{
name = bottom;
pos = (191,0);
},
{
name = top;
pos = (191,509);
}
);
associatedMasterId = "FFFA8D72-12AC-4CE0-B2CA-57A29829F4DA";
attr = {
coordinates = (
100,
300
);
};
layerId = "09BBA6B8-2AC5-4141-9398-553614FAB229";
name = "{100,300}";
shapes = (
{
closed = 1;
nodes = (
(252,-204,o),
(369,-120,o),
(369,29,cs),
(369,153,o),
(287,259,o),
(126,260,c),
(135,210,l),
(337,418,l),
(337,509,l),
(16,509,l),
(16,418,l),
(215,418,l),
(215,420,l),
(35,235,l),
(63,168,l),
(217,203,o),
(269,120,o),
(269,35,cs),
(269,-78,o),
(186,-115,o),
(110,-115,cs),
(77,-115,o),
(46,-108,o),
(23,-98,c),
(20,-187,l),
(54,-199,o),
(88,-204,o),
(122,-204,cs)
);
}
);
width = 382;
}
);
unicode = 658;
},
{
color = 3;
glyphname = f;
layers = (
{
hints = (
{
horizontal = 1;
origin = (1,1);
target = (1,0);
type = Stem;
},
{
horizontal = 1;
origin = (0,5);
target = (0,6);
type = Stem;
},
{
origin = (0,10);
target = (0,1);
type = Stem;
}
);
layerId = "262880E7-CFE1-4BDA-902E-E24798F3240A";
shapes = (
{
closed = 1;
nodes = (
(132,0,l),
(132,540,ls),
(132,627,o),
(151,679,o),
(246,679,cs),
(277,679,l),
(277,700,l),
(246,700,ls),
(138,700,o),
(111,640,o),
(111,540,cs),
(111,0,l)
);
},
{
closed = 1;
nodes = (
(272,479,l),
(272,500,l),
(32,500,l),
(32,479,l)
);
}
);
width = 296;
},
{
hints = (
{
horizontal = 1;
origin = (1,1);
type = TTSnap;
},
{
horizontal = 1;
origin = (0,0);
type = TTSnap;
}
);
layerId = "4E2227F3-52E4-4048-A8EE-327B486EF0A4";
shapes = (
{
closed = 1;
nodes = (
(239,0,l),
(239,539,ls),
(239,557,o),
(252,572,o),
(276,575,c),
(283,575,l),
(283,700,l),
(276,700,l),
(134,707,o),
(51,683,o),
(51,556,cs),
(51,0,l)
);
},
{
closed = 1;
nodes = (
(297,390,l),
(297,520,l),
(10,520,l),
(10,390,l)
);
}
);
width = 299;
},
{
layerId = "FFFA8D72-12AC-4CE0-B2CA-57A29829F4DA";
shapes = (
{
closed = 1;
nodes = (
(282,0,l),
(282,539,ls),
(282,562,o),
(292,572,o),
(319,575,c),
(376,575,l),
(376,700,l),
(319,700,l),
(157,708,o),
(94,668,o),
(94,556,cs),
(94,0,l)
);
},
{
closed = 1;
nodes = (
(390,370,l),
(390,520,l),
(23,520,l),
(23,370,l)
);
}
);
width = 399;
},
{
layerId = "DCBE1F7B-116A-43E0-B7B4-8657BA77D8B5";
shapes = (
{
closed = 1;
nodes = (
(100,0,l),
(100,550,ls),
(100,637,o),
(113,689,o),
(183,689,cs),
(208,689,l),
(208,710,l),
(182,710,ls),
(100,710,o),
(78,650,o),
(78,550,cs),
(78,0,l)
);
},
{
closed = 1;
nodes = (
(204,479,l),
(204,500,l),
(18,500,l),
(18,479,l)
);
}
);
width = 218;
},
{
associatedMasterId = "FFFA8D72-12AC-4CE0-B2CA-57A29829F4DA";
attr = {
coordinates = (
100,
500
);
};
layerId = "2C93A357-82AB-483E-BCC8-F28359C8C182";
name = "{100,500}";
shapes = (
{
closed = 1;
nodes = (
(209,0,l),
(209,524,l),
(209,593,o),
(228,613,o),
(293,613,cs),
(327,613,l),
(327,700,l),
(283,700,ls),
(149,700,o),
(109,661,o),
(109,530,c),
(109,0,l)
);
},
{
closed = 1;
nodes = (
(327,418,l),
(327,510,l),
(28,510,l),
(28,418,l)
);
}
);
width = 344;
},
{
associatedMasterId = "FFFA8D72-12AC-4CE0-B2CA-57A29829F4DA";
attr = {
coordinates = (
100,
300
);
};
layerId = "4E721415-DD60-4F72-A196-6C5252F73DBA";
name = "{100,300}";
shapes = (
{
closed = 1;
nodes = (
(164,0,l),
(164,535,ls),
(164,594,o),
(183,620,o),
(226,620,cs),
(246,620,l),
(248,705,l),
(225,705,ls),
(113,705,o),
(65,659,o),
(65,538,cs),
(65,0,l)
);
},
{
closed = 1;
nodes = (
(247,437,l),
(247,509,l),
(14,509,l),
(14,437,l)
);
}
);
width = 256;
}
);
unicode = 102;
userData = {
KernOnName = f;
};
},
{
glyphname = g;
layers = (
{
anchors = (
{
name = top;
pos = (254,500);
}
);
hints = (
{
origin = (0,4);
target = (0,15);
type = Stem;
},
{
horizontal = 1;
place = (-200, 21);
place = (-200, 21);
type = Stem;
},
{
horizontal = 1;
place = (500, 0);
place = (500, 0);
type = Stem;
},
{
origin = (0,3);
target = (0,15);
type = Stem;
},
{
place = (87, 0);
place = (87, 0);
type = Stem;
},
{
horizontal = 1;
place = (0, 0);
place = (0, 0);
type = Stem;
},
{
horizontal = 1;
origin = (0,21);
target = (0,21);
type = Stem;
},
{
horizontal = 1;
origin = (0,9);
target = (0,21);
type = Stem;
},
{
origin = (0,15);
target = (0,15);
type = Stem;
}
);
layerId = "262880E7-CFE1-4BDA-902E-E24798F3240A";
shapes = (
{
closed = 1;
nodes = (
(347,-206,o),
(421,-132,o),
(421,0,cs),
(421,500,l),
(399,500,l),
(399,407,l),
(398,410,l),
(373,470,o),
(320,508,o),
(247,508,cs),
(157,508,o),
(94,453,o),
(75,377,cs),
(67,345,o),
(65,304,o),
(65,250,cs),
(65,191,o),
(68,151,o),
(75,123,cs),
(94,46,o),
(157,-8,o),
(247,-8,cs),
(323,-8,o),
(379,31,o),
(400,89,c),
(399,92,l),
(399,0,ls),
(399,-118,o),
(333,-184,o),
(180,-179,c),
(180,-200,l)
);
},
{
closed = 1;
nodes = (
(167,13,o),
(110,67,o),
(95,135,cs),
(92,149,o),
(87,184,o),
(87,250,cs),
(87,318,o),
(90,345,o),
(95,365,cs),
(112,432,o),
(166,487,o),
(249,487,cs),
(330,487,o),
(381,432,o),
(391,365,cs),
(394,344,o),
(399,336,o),
(399,249,cs),
(399,162,o),
(398,154,o),
(395,135,cs),
(385,70,o),
(334,13,o),
(249,13,cs)
);
}
);
width = 511;
},
{
anchors = (
{
name = top;
pos = (231,520);
}
);
hints = (
{
horizontal = 1;
origin = (0,3);
type = TTSnap;
},
{
horizontal = 1;
origin = (0,30);
type = TTSnap;
},
{
horizontal = 1;
origin = (0,21);
type = TTSnap;
},
{
horizontal = 1;
origin = (0,21);
stem = -1;
target = (1,23);
type = TTStem;
},
{
horizontal = 1;
origin = (0,9);
stem = -1;
target = (1,11);
type = TTStem;
}
);
layerId = "4E2227F3-52E4-4048-A8EE-327B486EF0A4";
shapes = (
{
closed = 1;
nodes = (
(384,-233,o),
(437,-115,o),
(437,34,cs),
(437,520,l),
(249,520,l),
(249,400,l),
(273,379,l),
(261,520,o),
(187,528,o),
(154,528,cs),
(58,528,o),
(17,466,o),
(17,350,cs),
(17,320,o),
(17,290,o),
(17,260,cs),
(17,230,o),
(17,200,o),
(17,170,cs),
(17,60,o),
(54,-8,o),
(154,-8,cs),
(181,-8,o),
(266,-4,o),
(273,130,c),
(250,87,l),
(250,63,ls),
(250,-10,o),
(248,-56,o),
(97,-45,c),
(97,-207,l)
);
},
{
closed = 1;
nodes = (
(213,153,o),
(205,166,o),
(205,185,cs),
(205,210,o),
(205,235,o),
(205,260,cs),
(205,285,o),
(205,310,o),
(205,335,cs),
(205,354,o),
(213,367,o),
(226,367,cs),
(240,367,o),
(249,354,o),
(249,335,cs),
(249,310,o),
(249,284,o),
(249,259,cs),
(249,234,o),
(249,210,o),
(249,185,cs),
(249,166,o),
(240,153,o),
(226,153,cs)
);
}
);
width = 459;
},
{
anchors = (
{
name = top;
pos = (300,520);
}
);
layerId = "FFFA8D72-12AC-4CE0-B2CA-57A29829F4DA";
shapes = (
{
closed = 1;
nodes = (
(293,-219,o),
(537,-203,o),
(537,69,cs),
(537,520,l),
(349,520,l),
(349,407,l),
(370,440,l),
(348,492,o),
(307,528,o),
(227,528,cs),
(141,528,o),
(75,472,o),
(43,391,cs),
(27,351,o),
(22,306,o),
(22,265,cs),
(22,234,o),
(25,189,o),
(39,148,cs),
(77,36,o),
(176,16,o),
(232,16,cs),
(316,16,o),
(352,50,o),
(369,94,c),
(346,122,l),
(346,54,ls),
(346,-47,o),
(229,-53,o),
(133,-26,c),
(128,-184,l)
);
},
{
closed = 1;
nodes = (
(256,159,o),
(239,173,o),
(228,194,cs),
(217,213,o),
(212,239,o),
(212,263,cs),
(212,287,o),
(217,313,o),
(228,332,cs),
(239,353,o),
(256,367,o),
(281,367,cs),
(306,367,o),
(323,353,o),
(334,332,cs),
(345,313,o),
(350,287,o),
(350,263,cs),
(350,239,o),
(345,213,o),
(334,194,cs),
(323,173,o),
(306,159,o),
(281,159,cs)
);
}
);
width = 579;
},
{
anchors = (
{
name = top;
pos = (182,500);
}
);
layerId = "DCBE1F7B-116A-43E0-B7B4-8657BA77D8B5";
shapes = (
{
closed = 1;
nodes = (
(261,-204,o),
(316,-130,o),
(316,0,cs),
(316,500,l),
(293,500,l),
(293,430,l),
(296,433,l),
(276,478,o),
(235,508,o),
(182,508,cs),
(102,508,o),
(48,448,o),
(48,365,cs),
(48,327,o),
(48,288,o),
(48,250,cs),
(48,212,o),
(48,173,o),
(48,135,cs),
(48,52,o),
(102,-8,o),
(182,-8,cs),
(235,-8,o),
(276,22,o),
(296,67,c),
(293,70,l),
(293,0,ls),
(293,-117,o),
(247,-183,o),
(138,-179,c),
(138,-200,l)
);
},
{
closed = 1;
nodes = (
(117,13,o),
(70,63,o),
(70,135,cs),
(70,173,o),
(70,212,o),
(70,250,cs),
(70,288,o),
(70,327,o),
(70,365,cs),
(70,437,o),
(117,487,o),
(184,487,cs),
(248,487,o),
(293,437,o),
(293,365,cs),
(293,326,o),
(293,288,o),
(293,249,cs),
(293,211,o),
(293,173,o),
(293,135,cs),
(293,63,o),
(248,13,o),
(184,13,cs)
);
}
);
width = 378;
},
{
anchors = (
{
name = top;
pos = (276,509);
}
);
associatedMasterId = "FFFA8D72-12AC-4CE0-B2CA-57A29829F4DA";
attr = {
coordinates = (
100,
500
);
};
hints = (
{
origin = (0,4);
target = (0,15);
type = Stem;
},
{
horizontal = 1;
place = (-106.024, 11.133);
place = (-106.024, 11.133);
type = Stem;
},
{
horizontal = 1;
place = (509, 0);
place = (509, 0);
type = Stem;
},
{
origin = (0,3);
target = (0,15);
type = Stem;
},
{
place = (66, 0);
place = (66, 0);
type = Stem;
},
{
horizontal = 1;
place = (31, 0);
place = (31, 0);
type = Stem;
},
{
horizontal = 1;
origin = (0,21);
target = (0,21);
type = Stem;
},
{
horizontal = 1;
origin = (0,9);
target = (0,21);
type = Stem;
},
{
origin = (0,15);
target = (0,15);
type = Stem;
}
);
layerId = "0BDFE4D0-635C-422C-A6D6-8B6625469A4F";
name = "{100,500}";
shapes = (
{
closed = 1;
nodes = (
(323,-212,o),
(475,-172,o),
(475,27,cs),
(475,509,l),
(375,509,l),
(375,459,l),
(376,460,l),
(349,497,o),
(306,517,o),
(242,517,cs),
(152,517,o),
(85,462,o),
(60,384,cs),
(48,348,o),
(45,305,o),
(45,256,cs),
(45,211,o),
(48,169,o),
(58,135,cs),
(86,41,o),
(169,0,o),
(249,0,cs),
(311,0,o),
(350,21,o),
(376,54,c),
(375,55,l),
(375,31,ls),
(375,-85,o),
(312,-115,o),
(164,-103,c),
(160,-196,l)
);
},
{
closed = 1;
nodes = (
(208,83,o),
(169,119,o),
(156,165,c),
(150,180,o),
(146,209,o),
(146,257,cs),
(146,303,o),
(150,330,o),
(157,349,cs),
(172,395,o),
(208,431,o),
(264,431,cs),
(321,431,o),
(358,395,o),
(368,349,cs),
(373,329,o),
(375,316,o),
(375,257,cs),
(375,198,o),
(373,183,o),
(369,164,cs),
(359,120,o),
(324,83,o),
(265,83,cs)
);
}
);
width = 542;
},
{
anchors = (
{
name = top;
pos = (204,509);
}
);
associatedMasterId = "FFFA8D72-12AC-4CE0-B2CA-57A29829F4DA";
attr = {
coordinates = (
100,
300
);
};
layerId = "BED7CD07-10CC-47CF-B4CD-7EED2CD8E392";
name = "{100,300}";
shapes = (
{
closed = 1;
nodes = (
(318,-218,o),
(372,-123,o),
(372,16,cs),
(372,509,l),
(272,509,l),
(272,462,l),
(273,463,l),
(248,503,o),
(208,517,o),
(170,517,cs),
(83,517,o),
(33,456,o),
(33,358,cs),
(33,324,o),
(33,289,o),
(33,255,cs),
(33,223,o),
(33,191,o),
(33,159,cs),
(33,64,o),
(81,0,o),
(170,0,cs),
(207,0,o),
(248,14,o),
(273,56,c),
(272,56,l),
(272,25,ls),
(272,-69,o),
(244,-123,o),
(118,-116,c),
(118,-203,l)
);
},
{
closed = 1;
nodes = (
(162,87,o),
(133,119,o),
(133,166,cs),
(133,196,o),
(133,225,o),
(133,255,cs),
(133,287,o),
(133,319,o),
(133,351,cs),
(133,398,o),
(162,431,o),
(203,431,cs),
(244,431,o),
(272,398,o),
(272,351,cs),
(272,319,o),
(272,288,o),
(272,256,cs),
(272,226,o),
(272,196,o),
(272,166,cs),
(272,119,o),
(244,87,o),
(203,87,cs)
);
}
);
width = 415;
}
);
unicode = 103;
},
{
glyphname = h;
layers = (
{
anchors = (
{
name = shortstroke;
pos = (159,547);
}
);
hints = (
{
origin = (0,2);
target = (0,1);
type = Stem;
}
);
layerId = "262880E7-CFE1-4BDA-902E-E24798F3240A";
shapes = (
{
closed = 1;
nodes = (
(113,0,l),
(113,700,l),
(91,700,l),
(91,0,l)
);
},
{
pos = (95,0);
ref = n.curve;
}
);
width = 523;
},
{
anchors = (
{
name = shortstroke;
pos = (133,546);
}
);
hints = (
{
horizontal = 1;
origin = (0,2);
type = TTSnap;
},
{
horizontal = 1;
origin = (0,3);
type = TTSnap;
}
);
layerId = "4E2227F3-52E4-4048-A8EE-327B486EF0A4";
shapes = (
{
closed = 1;
nodes = (
(210,0,l),
(210,700,l),
(22,700,l),
(22,0,l)
);
},
{
pos = (167,0);
ref = n.curve;
}
);
width = 462;
},
{
anchors = (
{
name = shortstroke;
pos = (175,543);
}
);
layerId = "FFFA8D72-12AC-4CE0-B2CA-57A29829F4DA";
shapes = (
{
closed = 1;
nodes = (
(230,0,l),
(230,700,l),
(42,700,l),
(42,0,l)
);
},
{
pos = (192,0);
ref = n.curve;
}
);
width = 569;
},
{
anchors = (
{
name = shortstroke;
pos = (130,547);
}
);
layerId = "DCBE1F7B-116A-43E0-B7B4-8657BA77D8B5";
shapes = (
{
closed = 1;
nodes = (
(84,0,l),
(84,700,l),
(62,700,l),
(62,0,l)
);
},
{
pos = (69,0);
ref = n.curve;
}
);
width = 382;
}
);
unicode = 104;
userData = {
KernOnName = h;
};
},
{
glyphname = i;
layers = (
{
anchors = (
{
name = bottom;
pos = (121,0);
},
{
name = top;
pos = (120,500);
}
);
layerId = "262880E7-CFE1-4BDA-902E-E24798F3240A";
shapes = (
{
closed = 1;
nodes = (
(129,1,l),
(129,501,l),
(107,501,l),
(107,1,l)
);
},
{
pos = (79,0);
ref = dotaccentcomb;
}
);
width = 242;
},
{
anchors = (
{
name = bottom;
pos = (115,0);
},
{
name = top;
pos = (116,520);
}
);
hints = (
{
horizontal = 1;
origin = (0,2);
type = TTSnap;
},
{
horizontal = 1;
origin = (0,3);
type = TTSnap;
}
);
layerId = "4E2227F3-52E4-4048-A8EE-327B486EF0A4";
shapes = (
{
closed = 1;
nodes = (
(210,0,l),
(210,520,l),
(22,520,l),
(22,0,l)
);
},
{
pos = (9,0);
ref = dotaccentcomb;
}
);
width = 232;
},
{
anchors = (
{
name = bottom;
pos = (136,0);
},
{
name = top;
pos = (136,520);
}
);
layerId = "FFFA8D72-12AC-4CE0-B2CA-57A29829F4DA";
shapes = (
{
closed = 1;
nodes = (
(230,0,l),
(230,520,l),
(42,520,l),
(42,0,l)
);
},
{
pos = (32,0);
ref = dotaccentcomb;
}
);
width = 269;
},
{
anchors = (
{
name = bottom;
pos = (73,0);
},
{
name = top;
pos = (73,500);
}
);
layerId = "DCBE1F7B-116A-43E0-B7B4-8657BA77D8B5";
shapes = (
{
closed = 1;
nodes = (
(84,0,l),
(84,500,l),
(62,500,l),
(62,0,l)
);
},
{
pos = (31,0);
ref = dotaccentcomb;
}
);
width = 146;
}
);
unicode = 105;
userData = {
KernOnName = i;
};
},
{
glyphname = idotless;
layers = (
{
anchors = (
{
name = bottom;
pos = (102,0);
},
{
name = ogonek;
pos = (100,0);
},
{
name = top;
pos = (102,500);
}
);
hints = (
{
origin = (0,2);
target = (0,1);
type = Stem;
}
);
layerId = "262880E7-CFE1-4BDA-902E-E24798F3240A";
shapes = (
{
closed = 1;
nodes = (
(113,0,l),
(113,500,l),
(91,500,l),
(91,0,l)
);
}
);
width = 204;
},
{
anchors = (
{
name = bottom;
pos = (136,0);
},
{
name = ogonek;
pos = (160,0);
},
{
name = top;
pos = (136,520);
}
);
layerId = "FFFA8D72-12AC-4CE0-B2CA-57A29829F4DA";
shapes = (
{
closed = 1;
nodes = (
(230,0,l),
(230,520,l),
(42,520,l),
(42,0,l)
);
}
);
width = 272;
},
{
anchors = (
{
name = bottom;
pos = (73,0);
},
{
name = ogonek;
pos = (73,0);
},
{
name = top;
pos = (73,500);
}
);
layerId = "DCBE1F7B-116A-43E0-B7B4-8657BA77D8B5";
shapes = (
{
closed = 1;
nodes = (
(84,0,l),
(84,500,l),
(62,500,l),
(62,0,l)
);
}
);
width = 146;
},
{
anchors = (
{
name = bottom;
pos = (116,0);
},
{
name = ogonek;
pos = (142,0);
},
{
name = top;
pos = (116,520);
}
);
hints = (
{
horizontal = 1;
origin = (0,3);
type = TTSnap;
},
{
horizontal = 1;
origin = (0,2);
type = TTSnap;
}
);
layerId = "4E2227F3-52E4-4048-A8EE-327B486EF0A4";
shapes = (
{
closed = 1;
nodes = (
(210,0,l),
(210,520,l),
(22,520,l),
(22,0,l)
);
}
);
width = 232;
}
);
unicode = 305;
},
{
glyphname = j;
layers = (
{
anchors = (
{
name = top;
pos = (110,500);
}
);
hints = (
{
place = (99, 0);
place = (99, 0);
type = Stem;
},
{
horizontal = 1;
place = (-211, 0);
place = (-211, 0);
type = Stem;
}
);
layerId = "262880E7-CFE1-4BDA-902E-E24798F3240A";
shapes = (
{
closed = 1;
nodes = (
(68,-211,o),
(121,-159,o),
(121,-74,cs),
(121,500,l),
(99,500,l),
(99,-74,ls),
(99,-146,o),
(55,-190,o),
(-18,-190,c),
(-18,-211,l)
);
},
{
pos = (69,0);
ref = dotaccentcomb;
}
);
width = 212;
},
{
anchors = (
{
name = top;
pos = (110,520);
}
);
hints = (
{
horizontal = 1;
origin = (0,4);
type = TTSnap;
},
{
horizontal = 1;
origin = (0,9);
stem = -1;
target = (0,8);
type = TTStem;
}
);
layerId = "4E2227F3-52E4-4048-A8EE-327B486EF0A4";
shapes = (
{
closed = 1;
nodes = (
(199,-210,o),
(204,-120,o),
(204,29,cs),
(204,520,l),
(16,520,l),
(16,29,ls),
(16,-19,o),
(1,-49,o),
(-80,-41,c),
(-80,-201,l)
);
},
{
pos = (5,0);
ref = dotaccentcomb;
}
);
width = 226;
},
{
anchors = (
{
name = top;
pos = (144,520);
}
);
layerId = "FFFA8D72-12AC-4CE0-B2CA-57A29829F4DA";
shapes = (
{
closed = 1;
nodes = (
(184,-209,o),
(235,-183,o),
(235,19,cs),
(235,520,l),
(47,520,l),
(47,26,ls),
(47,-41,o),
(23,-52,o),
(-69,-44,c),
(-69,-201,l)
);
},
{
pos = (36,0);
ref = dotaccentcomb;
}
);
width = 277;
},
{
anchors = (
{
name = top;
pos = (75,500);
}
);
layerId = "DCBE1F7B-116A-43E0-B7B4-8657BA77D8B5";
shapes = (
{
closed = 1;
nodes = (
(47,-211,o),
(86,-159,o),
(86,-74,cs),
(86,500,l),
(64,500,l),
(64,-74,ls),
(64,-146,o),
(32,-190,o),
(-24,-190,c),
(-24,-211,l)
);
},
{
pos = (33,0);
ref = dotaccentcomb;
}
);
width = 148;
}
);
unicode = 106;
userData = {
KernOnName = j;
};
},
{
glyphname = jdotless;
layers = (
{
anchors = (
{
name = top;
pos = (78,500);
}
);
layerId = "DCBE1F7B-116A-43E0-B7B4-8657BA77D8B5";
shapes = (
{
closed = 1;
nodes = (
(50,-211,o),
(89,-159,o),
(89,-74,cs),
(89,500,l),
(67,500,l),
(67,-74,ls),
(67,-146,o),
(35,-190,o),
(-21,-190,c),
(-21,-211,l)
);
}
);
width = 151;
},
{
anchors = (
{
name = top;
pos = (116,520);
}
);
layerId = "4E2227F3-52E4-4048-A8EE-327B486EF0A4";
shapes = (
{
closed = 1;
nodes = (
(205,-210,o),
(210,-120,o),
(210,29,cs),
(210,520,l),
(22,520,l),
(22,29,ls),
(22,-19,o),
(7,-49,o),
(-74,-41,c),
(-74,-201,l)
);
}
);
width = 232;
},
{
anchors = (
{
name = top;
pos = (110,500);
}
);
hints = (
{
origin = (0,4);
target = (0,3);
type = Stem;
},
{
horizontal = 1;
origin = (0,9);
target = (0,8);
type = Stem;
}
);
layerId = "262880E7-CFE1-4BDA-902E-E24798F3240A";
shapes = (
{
closed = 1;
nodes = (
(68,-211,o),
(121,-159,o),
(121,-74,cs),
(121,500,l),
(99,500,l),
(99,-74,ls),
(99,-146,o),
(55,-190,o),
(-18,-190,c),
(-18,-211,l)
);
}
);
width = 212;
},
{
anchors = (
{
name = top;
pos = (137,520);
}
);
layerId = "FFFA8D72-12AC-4CE0-B2CA-57A29829F4DA";
shapes = (
{
closed = 1;
nodes = (
(170,-209,o),
(231,-163,o),
(231,29,cs),
(231,520,l),
(40,520,l),
(43,26,ls),
(43,-38,o),
(19,-52,o),
(-76,-44,c),
(-76,-201,l)
);
}
);
width = 273;
}
);
unicode = 567;
},
{
glyphname = k;
layers = (
{
anchors = (
{
name = bottom;
pos = (235,0);
},
{
name = top;
pos = (235,700);
}
);
guides = (
{
angle = 180;
pos = (273,0);
showMeasurement = 1;
}
);
hints = (
{
place = (108, 5);
place = (108, 5);
type = Stem;
}
);
layerId = "262880E7-CFE1-4BDA-902E-E24798F3240A";
shapes = (
{
closed = 1;
nodes = (
(113,0,l),
(113,700,l),
(91,700,l),
(91,0,l)
);
},
{
closed = 1;
nodes = (
(437,0,l),
(275,366,l),
(259,350,l),
(413,0,l)
);
},
{
closed = 1;
nodes = (
(269,353,l),
(274,358,l),
(417,500,l),
(387,500,l),
(108,221,l),
(108,193,l)
);
}
);
width = 469;
},
{
anchors = (
{
name = bottom;
pos = (227,0);
},
{
name = top;
pos = (227,700);
}
);
hints = (
{
horizontal = 1;
origin = (0,2);
type = TTSnap;
},
{
horizontal = 1;
origin = (0,3);
type = TTSnap;
},
{
horizontal = 1;
origin = (2,2);
type = TTSnap;
},
{
horizontal = 1;
options = 4;
origin = (0,3);
target = (1,3);
type = TTShift;
}
);
layerId = "4E2227F3-52E4-4048-A8EE-327B486EF0A4";
shapes = (
{
closed = 1;
nodes = (
(210,0,l),
(210,700,l),
(22,700,l),
(22,0,l)
);
},
{
closed = 1;
nodes = (
(469,0,l),
(332,330,l),
(217,180,l),
(275,0,l)
);
},
{
closed = 1;
nodes = (
(228,180,l),
(330,301,l),
(463,520,l),
(268,520,l),
(203,375,l),
(204,121,l)
);
}
);
width = 453;
},
{
anchors = (
{
name = bottom;
pos = (274,0);
},
{
name = top;
pos = (274,700);
}
);
layerId = "FFFA8D72-12AC-4CE0-B2CA-57A29829F4DA";
shapes = (
{
closed = 1;
nodes = (
(230,0,l),
(230,700,l),
(42,700,l),
(42,0,l)
);
},
{
closed = 1;
nodes = (
(556,0,l),
(391,339,l),
(264,223,l),
(358,0,l)
);
},
{
closed = 1;
nodes = (
(279,221,l),
(388,312,l),
(542,520,l),
(328,520,l),
(221,357,l),
(221,133,l)
);
}
);
width = 548;
},
{
anchors = (
{
name = bottom;
pos = (171,0);
},
{
name = top;
pos = (171,700);
}
);
guides = (
{
angle = 180;
pos = (268,0);
showMeasurement = 1;
}
);
layerId = "DCBE1F7B-116A-43E0-B7B4-8657BA77D8B5";
shapes = (
{
closed = 1;
nodes = (
(84,0,l),
(84,700,l),
(62,700,l),
(62,0,l)
);
},
{
closed = 1;
nodes = (
(327,0,l),
(205,369,l),
(190,351,l),
(303,0,l)
);
},
{
closed = 1;
nodes = (
(195,350,l),
(203,358,l),
(311,500,l),
(285,500,l),
(79,226,l),
(79,194,l)
);
}
);
width = 342;
}
);
unicode = 107;
userData = {
KernOnName = k;
};
},
{
glyphname = l;
layers = (
{
anchors = (
{
name = top;
pos = (103,700);
}
);
hints = (
{
origin = (0,3);
target = (0,0);
type = Stem;
}
);
layerId = "262880E7-CFE1-4BDA-902E-E24798F3240A";
shapes = (
{
closed = 1;
nodes = (
(113,0,l),
(113,700,l),
(91,700,l),
(91,0,l)
);
}
);
width = 204;
},
{
anchors = (
{
name = top;
pos = (118,700);
}
);
hints = (
{
horizontal = 1;
origin = (0,2);
type = TTSnap;
},
{
horizontal = 1;
origin = (0,3);
type = TTSnap;
}
);
layerId = "4E2227F3-52E4-4048-A8EE-327B486EF0A4";
shapes = (
{
closed = 1;
nodes = (
(210,0,l),
(210,700,l),
(22,700,l),
(22,0,l)
);
}
);
width = 232;
},
{
anchors = (
{
name = top;
pos = (137,700);
}
);
layerId = "FFFA8D72-12AC-4CE0-B2CA-57A29829F4DA";
shapes = (
{
closed = 1;
nodes = (
(230,0,l),
(230,700,l),
(42,700,l),
(42,0,l)
);
}
);
width = 272;
},
{
anchors = (
{
name = top;
pos = (73,700);
}
);
layerId = "DCBE1F7B-116A-43E0-B7B4-8657BA77D8B5";
shapes = (
{
closed = 1;
nodes = (
(84,0,l),
(84,700,l),
(62,700,l),
(62,0,l)
);
}
);
width = 146;
}
);
unicode = 108;
userData = {
KernOnName = l;
};
},
{
glyphname = lslash;
layers = (
{
layerId = "262880E7-CFE1-4BDA-902E-E24798F3240A";
shapes = (
{
closed = 1;
nodes = (
(256,409,l),
(244,428,l),
(33,291,l),
(45,273,l)
);
},
{
pos = (30,0);
ref = l;
}
);
width = 287;
},
{
layerId = "FFFA8D72-12AC-4CE0-B2CA-57A29829F4DA";
shapes = (
{
closed = 1;
nodes = (
(486,401,l),
(420,521,l),
(7,298,l),
(69,179,l)
);
},
{
pos = (111,0);
ref = l;
}
);
width = 474;
},
{
layerId = "DCBE1F7B-116A-43E0-B7B4-8657BA77D8B5";
shapes = (
{
closed = 1;
nodes = (
(199,379,l),
(187,398,l),
(16,291,l),
(28,273,l)
);
},
{
pos = (23,0);
ref = l;
}
);
width = 216;
},
{
layerId = "4E2227F3-52E4-4048-A8EE-327B486EF0A4";
shapes = (
{
closed = 1;
nodes = (
(440,391,l),
(374,511,l),
(1,308,l),
(63,189,l)
);
},
{
pos = (98,0);
ref = l;
}
);
width = 425;
}
);
unicode = 322;
},
{
color = 3;
glyphname = m;
layers = (
{
hints = (
{
origin = (1,3);
target = (1,0);
type = Stem;
},
{
origin = (2,15);
target = (2,0);
type = Stem;
},
{
origin = (0,15);
target = (0,0);
type = Stem;
},
{
horizontal = 1;
origin = (2,4);
target = (2,11);
type = Stem;
}
);
layerId = "262880E7-CFE1-4BDA-902E-E24798F3240A";
shapes = (
{
closed = 1;
nodes = (
(730,0,l),
(730,347,ls),
(730,446,o),
(664,507,o),
(570,507,cs),
(470,507,o),
(404,448,o),
(404,346,c),
(421,346,l),
(421,433,o),
(479,486,o),
(568,486,cs),
(650,486,o),
(708,432,o),
(708,344,cs),
(708,0,l)
);
},
{
closed = 1;
nodes = (
(113,0,l),
(113,500,l),
(91,500,l),
(91,0,l)
);
},
{
closed = 1;
nodes = (
(421,0,l),
(421,347,ls),
(421,446,o),
(356,507,o),
(262,507,cs),
(161,507,o),
(96,448,o),
(96,346,c),
(113,346,l),
(113,433,o),
(170,486,o),
(260,486,cs),
(342,486,o),
(399,432,o),
(399,344,cs),
(399,0,l)
);
}
);
width = 817;
},
{
hints = (
{
horizontal = 1;
origin = (1,2);
type = TTSnap;
},
{
horizontal = 1;
origin = (1,3);
type = TTSnap;
},
{
horizontal = 1;
options = 4;
origin = (1,3);
target = (2,15);
type = TTShift;
},
{
horizontal = 1;
options = 4;
origin = (1,3);
target = (0,15);
type = TTShift;
},
{
horizontal = 1;
options = 4;
origin = (1,1);
target = (2,4);
type = TTShift;
},
{
horizontal = 1;
options = 4;
origin = (1,1);
target = (0,4);
type = TTShift;
},
{
horizontal = 1;
origin = (2,4);
stem = -1;
target = (2,11);
type = TTStem;
},
{
horizontal = 1;
origin = (0,4);
stem = -1;
target = (0,12);
type = TTStem;
}
);
layerId = "4E2227F3-52E4-4048-A8EE-327B486EF0A4";
shapes = (
{
closed = 1;
nodes = (
(674,0,l),
(674,348,ls),
(674,459,o),
(633,528,o),
(532,528,cs),
(491,528,o),
(391,515,o),
(392,335,c),
(442,335,l),
(442,356,o),
(450,367,o),
(465,367,cs),
(479,367,o),
(486,356,o),
(486,335,cs),
(486,0,l)
);
},
{
closed = 1;
nodes = (
(210,0,l),
(210,520,l),
(22,520,l),
(22,0,l)
);
},
{
closed = 1;
nodes = (
(442,0,l),
(442,348,ls),
(442,459,o),
(401,528,o),
(300,528,cs),
(263,528,o),
(163,515,o),
(164,335,c),
(210,335,l),
(210,356,o),
(218,367,o),
(233,367,cs),
(247,367,o),
(254,356,o),
(254,335,cs),
(254,0,l)
);
}
);
width = 694;
},
{
layerId = "FFFA8D72-12AC-4CE0-B2CA-57A29829F4DA";
shapes = (
{
closed = 1;
nodes = (
(824,0,l),
(824,341,ls),
(824,460,o),
(762,528,o),
(667,528,cs),
(559,528,o),
(494,460,o),
(494,300,c),
(530,300,l),
(530,340,o),
(552,367,o),
(584,367,cs),
(615,367,o),
(636,340,o),
(636,300,cs),
(636,0,l)
);
},
{
closed = 1;
nodes = (
(230,0,l),
(230,520,l),
(42,520,l),
(42,0,l)
);
},
{
closed = 1;
nodes = (
(530,0,l),
(530,341,ls),
(530,460,o),
(464,528,o),
(374,528,cs),
(256,528,o),
(207,450,o),
(207,300,c),
(229,300,l),
(229,340,o),
(252,367,o),
(286,367,cs),
(319,367,o),
(342,340,o),
(342,300,cs),
(342,0,l)
);
}
);
width = 862;
},
{
layerId = "DCBE1F7B-116A-43E0-B7B4-8657BA77D8B5";
shapes = (
{
closed = 1;
nodes = (
(544,0,l),
(544,347,ls),
(544,446,o),
(495,507,o),
(425,507,cs),
(351,507,o),
(297,451,o),
(297,346,c),
(314,346,l),
(314,433,o),
(356,486,o),
(420,486,cs),
(480,486,o),
(522,432,o),
(522,344,cs),
(522,0,l)
);
},
{
closed = 1;
nodes = (
(84,0,l),
(84,500,l),
(62,500,l),
(62,0,l)
);
},
{
closed = 1;
nodes = (
(314,0,l),
(314,347,ls),
(314,446,o),
(266,507,o),
(195,507,cs),
(121,507,o),
(68,448,o),
(68,346,c),
(84,346,l),
(84,433,o),
(126,486,o),
(191,486,cs),
(250,486,o),
(292,432,o),
(292,344,cs),
(292,0,l)
);
}
);
width = 603;
},
{
associatedMasterId = "262880E7-CFE1-4BDA-902E-E24798F3240A";
attr = {
coordinates = (
100,
500
);
};
hints = (
{
origin = (1,3);
target = (1,0);
type = Stem;
},
{
origin = (2,15);
target = (2,0);
type = Stem;
},
{
origin = (0,15);
target = (0,0);
type = Stem;
},
{
horizontal = 1;
origin = (2,4);
target = (2,11);
type = Stem;
}
);
layerId = "3D363A3E-CBEB-46DD-BDC0-952664622760";
name = "{100,500}";
shapes = (
{
closed = 1;
nodes = (
(764,0,l),
(764,344,ls),
(764,453,o),
(702,517,o),
(600,517,cs),
(507,517,o),
(420,464,o),
(420,325,c),
(465,325,l),
(465,390,o),
(507,430,o),
(566,430,cs),
(626,430,o),
(665,389,o),
(665,323,cs),
(665,0,l)
);
},
{
closed = 1;
nodes = (
(168,0,l),
(168,509,l),
(68,509,l),
(68,0,l)
);
},
{
closed = 1;
nodes = (
(465,0,l),
(465,344,ls),
(465,453,o),
(404,517,o),
(301,517,cs),
(208,517,o),
(131,464,o),
(131,325,c),
(168,325,l),
(168,390,o),
(208,430,o),
(267,430,cs),
(327,430,o),
(366,389,o),
(366,323,cs),
(366,0,l)
);
}
);
width = 828;
},
{
associatedMasterId = "262880E7-CFE1-4BDA-902E-E24798F3240A";
attr = {
coordinates = (
100,
300
);
};
layerId = "FD7B5D9B-CA7D-42C3-93E7-F3C4034798D2";
name = "{100,300}";
shapes = (
{
closed = 1;
nodes = (
(604,0,l),
(604,347,ls),
(604,452,o),
(559,517,o),
(474,517,cs),
(416,517,o),
(332,481,o),
(333,341,c),
(373,341,l),
(373,397,o),
(399,430,o),
(441,430,cs),
(479,430,o),
(505,397,o),
(505,340,cs),
(505,0,l)
);
},
{
closed = 1;
nodes = (
(142,0,l),
(142,509,l),
(43,509,l),
(43,0,l)
);
},
{
closed = 1;
nodes = (
(373,0,l),
(373,347,ls),
(373,452,o),
(329,517,o),
(244,517,cs),
(187,517,o),
(104,479,o),
(104,341,c),
(142,341,l),
(142,397,o),
(168,430,o),
(210,430,cs),
(248,430,o),
(274,397,o),
(274,340,cs),
(274,0,l)
);
}
);
width = 645;
}
);
unicode = 109;
},
{
color = 3;
glyphname = n;
layers = (
{
anchors = (
{
name = bottom;
pos = (270,0);
},
{
name = top;
pos = (258,500);
}
);
hints = (
{
origin = (0,2);
target = (0,2);
type = Stem;
},
{
origin = (0,2);
target = (0,1);
type = Stem;
}
);
layerId = "262880E7-CFE1-4BDA-902E-E24798F3240A";
shapes = (
{
closed = 1;
nodes = (
(113,0,l),
(113,500,l),
(91,500,l),
(91,0,l)
);
},
{
pos = (95,0);
ref = n.curve;
}
);
width = 523;
},
{
anchors = (
{
name = bottom;
pos = (233,0);
},
{
name = top;
pos = (233,520);
}
);
hints = (
{
horizontal = 1;
origin = (0,2);
type = TTSnap;
},
{
horizontal = 1;
origin = (0,3);
type = TTSnap;
}
);
layerId = "4E2227F3-52E4-4048-A8EE-327B486EF0A4";
shapes = (
{
closed = 1;
nodes = (
(210,0,l),
(210,520,l),
(22,520,l),
(22,0,l)
);
},
{
pos = (167,0);
ref = n.curve;
}
);
width = 462;
},
{
anchors = (
{
name = bottom;
pos = (288,0);
},
{
name = top;
pos = (293,520);
}
);
layerId = "FFFA8D72-12AC-4CE0-B2CA-57A29829F4DA";
shapes = (
{
closed = 1;
nodes = (
(230,0,l),
(230,520,l),
(42,520,l),
(42,0,l)
);
},
{
pos = (192,0);
ref = n.curve;
}
);
width = 569;
},
{
anchors = (
{
name = bottom;
pos = (197,0);
},
{
name = top;
pos = (194,500);
}
);
layerId = "DCBE1F7B-116A-43E0-B7B4-8657BA77D8B5";
shapes = (
{
closed = 1;
nodes = (
(84,0,l),
(84,500,l),
(62,500,l),
(62,0,l)
);
},
{
pos = (69,0);
ref = n.curve;
}
);
width = 382;
}
);
unicode = 110;
userData = {
KernOnName = n;
};
},
{
glyphname = eng;
layers = (
{
hints = (
{
origin = (0,4);
target = (0,3);
type = Stem;
},
{
horizontal = 1;
origin = (0,9);
target = (0,8);
type = Stem;
}
);
layerId = "262880E7-CFE1-4BDA-902E-E24798F3240A";
shapes = (
{
closed = 1;
nodes = (
(393,-161,o),
(436,-105,o),
(436,-24,cs),
(436,200,l),
(414,200,l),
(414,-24,ls),
(414,-92,o),
(380,-140,o),
(317,-140,c),
(317,-161,l)
);
},
{
ref = n;
}
);
width = 497;
},
{
layerId = "FFFA8D72-12AC-4CE0-B2CA-57A29829F4DA";
shapes = (
{
closed = 1;
nodes = (
(496,-203,o),
(531,-143,o),
(531,29,cs),
(531,220,l),
(343,220,l),
(343,23,ls),
(343,-38,o),
(325,-51,o),
(250,-52,c),
(250,-201,l)
);
},
{
ref = n;
}
);
width = 573;
},
{
layerId = "DCBE1F7B-116A-43E0-B7B4-8657BA77D8B5";
shapes = (
{
closed = 1;
nodes = (
(294,-151,o),
(323,-99,o),
(323,-24,cs),
(323,250,l),
(301,250,l),
(301,-24,ls),
(301,-86,o),
(279,-130,o),
(223,-130,c),
(223,-151,l)
);
},
{
ref = n;
}
);
width = 356;
},
{
layerId = "4E2227F3-52E4-4048-A8EE-327B486EF0A4";
shapes = (
{
closed = 1;
nodes = (
(457,-210,o),
(442,-100,o),
(442,29,cs),
(442,220,l),
(254,220,l),
(254,29,ls),
(254,-19,o),
(259,-49,o),
(178,-44,c),
(178,-201,l)
);
},
{
ref = n;
}
);
width = 464;
}
);
unicode = 331;
},
{
color = 3;
glyphname = o;
layers = (
{
anchors = (
{
name = bottom;
pos = (247,0);
},
{
name = center;
pos = (247,250);
},
{
name = ogonek;
pos = (457,10);
},
{
name = top;
pos = (246,500);
},
{
name = topright;
pos = (353,500);
}
);
guides = (
{
pos = (239,135);
}
);
hints = (
{
horizontal = 1;
origin = (0,11);
target = (1,11);
type = Stem;
},
{
origin = (0,17);
target = (1,5);
type = Stem;
},
{
origin = (1,17);
target = (0,5);
type = Stem;
},
{
horizontal = 1;
origin = (0,23);
target = (1,23);
type = Stem;
}
);
layerId = "262880E7-CFE1-4BDA-902E-E24798F3240A";
shapes = (
{
closed = 1;
nodes = (
(339,-8,o),
(407,46,o),
(424,123,cs),
(431,155,o),
(429,191,o),
(429,250,cs),
(429,305,o),
(431,344,o),
(424,377,cs),
(408,454,o),
(339,508,o),
(246,508,cs),
(154,508,o),
(89,454,o),
(71,377,cs),
(64,345,o),
(64,310,o),
(64,251,cs),
(64,195,o),
(63,156,o),
(71,123,cs),
(90,46,o),
(153,-8,o),
(246,-8,cs)
);
},
{
closed = 1;
nodes = (
(161,13,o),
(103,63,o),
(90,135,cs),
(86,156,o),
(86,193,o),
(86,250,cs),
(86,302,o),
(86,343,o),
(90,365,cs),
(103,436,o),
(161,487,o),
(246,487,cs),
(331,487,o),
(391,436,o),
(404,365,cs),
(408,344,o),
(407,307,o),
(407,250,cs),
(407,198,o),
(408,157,o),
(404,135,cs),
(391,64,o),
(331,13,o),
(246,13,cs)
);
}
);
width = 493;
},
{
anchors = (
{
name = bottom;
pos = (229,0);
},
{
name = center;
pos = (229,260);
},
{
name = ogonek;
pos = (413,10);
},
{
name = top;
pos = (229,520);
},
{
name = topright;
pos = (373,520);
}
);
guides = (
{
angle = 39.959;
pos = (295,232);
showMeasurement = 1;
},
{
angle = -39.959;
pos = (162,232);
showMeasurement = 1;
},
{
angle = 39.959;
pos = (295,404);
showMeasurement = 1;
},
{
angle = -180;
pos = (230,260);
showMeasurement = 1;
},
{
angle = -39.959;
pos = (161,404);
showMeasurement = 1;
},
{
pos = (267,170);
},
{
pos = (266,350);
},
{
pos = (268,260);
}
);
hints = (
{
horizontal = 1;
origin = (0,11);
type = TTSnap;
},
{
horizontal = 1;
origin = (0,23);
type = TTSnap;
},
{
horizontal = 1;
origin = (0,11);
stem = -1;
target = (1,11);
type = TTStem;
},
{
horizontal = 1;
origin = (0,23);
stem = -1;
target = (1,23);
type = TTStem;
}
);
layerId = "4E2227F3-52E4-4048-A8EE-327B486EF0A4";
shapes = (
{
closed = 1;
nodes = (
(365,-8,o),
(441,57,o),
(441,170,cs),
(441,193,o),
(441,237,o),
(441,260,cs),
(441,283,o),
(441,327,o),
(441,350,cs),
(441,456,o),
(365,528,o),
(229,528,cs),
(93,528,o),
(16,456,o),
(16,350,cs),
(16,327,o),
(16,283,o),
(16,260,cs),
(16,237,o),
(16,193,o),
(16,170,cs),
(16,57,o),
(93,-8,o),
(229,-8,cs)
);
},
{
closed = 1;
nodes = (
(214,153,o),
(204,166,o),
(204,185,cs),
(204,210,o),
(204,235,o),
(204,260,c),
(204,285,o),
(204,310,o),
(204,335,cs),
(204,354,o),
(214,367,o),
(229,367,cs),
(243,367,o),
(253,354,o),
(253,335,cs),
(253,310,o),
(253,285,o),
(253,260,cs),
(253,235,o),
(253,210,o),
(253,185,cs),
(253,166,o),
(243,153,o),
(229,153,cs)
);
}
);
width = 457;
},
{
anchors = (
{
name = bottom;
pos = (279,0);
},
{
name = center;
pos = (279,260);
},
{
name = ogonek;
pos = (502,10);
},
{
name = top;
pos = (279,520);
},
{
name = topright;
pos = (439,520);
}
);
guides = (
{
pos = (757,79);
},
{
pos = (1217,267);
},
{
pos = (1037,193);
},
{
pos = (1305,306);
},
{
pos = (838,113);
}
);
layerId = "FFFA8D72-12AC-4CE0-B2CA-57A29829F4DA";
shapes = (
{
closed = 1;
nodes = (
(404,-4,o),
(493,65,o),
(524,174,cs),
(532,201,o),
(536,231,o),
(536,261,cs),
(536,293,o),
(532,323,o),
(524,350,cs),
(493,459,o),
(404,528,o),
(280,528,cs),
(156,528,o),
(67,459,o),
(36,350,cs),
(28,323,o),
(24,295,o),
(24,263,cs),
(24,231,o),
(28,201,o),
(36,174,cs),
(67,65,o),
(156,-4,o),
(280,-4,cs)
);
},
{
closed = 1;
nodes = (
(244,157,o),
(225,181,o),
(217,216,cs),
(213,230,o),
(212,246,o),
(212,262,cs),
(212,278,o),
(213,294,o),
(217,308,cs),
(225,343,o),
(244,367,o),
(280,367,cs),
(316,367,o),
(335,343,o),
(343,308,cs),
(347,294,o),
(348,278,o),
(348,262,cs),
(348,246,o),
(347,230,o),
(343,216,cs),
(335,181,o),
(316,157,o),
(280,157,cs)
);
}
);
width = 560;
},
{
anchors = (
{
name = bottom;
pos = (183,0);
},
{
name = center;
pos = (183,250);
},
{
name = ogonek;
pos = (340,10);
},
{
name = top;
pos = (182,500);
},
{
name = topright;
pos = (275,500);
}
);
guides = (
{
angle = 66;
pos = (183,250);
showMeasurement = 1;
},
{
angle = 112;
pos = (182,250);
showMeasurement = 1;
},
{
angle = -180;
pos = (182,250);
showMeasurement = 1;
}
);
layerId = "DCBE1F7B-116A-43E0-B7B4-8657BA77D8B5";
shapes = (
{
closed = 1;
nodes = (
(262,-8,o),
(317,52,o),
(317,135,cs),
(317,173,o),
(317,212,o),
(317,250,cs),
(317,288,o),
(317,327,o),
(317,365,cs),
(317,448,o),
(262,508,o),
(182,508,cs),
(103,508,o),
(48,448,o),
(48,365,cs),
(48,327,o),
(48,288,o),
(48,250,cs),
(48,212,o),
(48,173,o),
(48,135,cs),
(48,52,o),
(103,-8,o),
(182,-8,cs)
);
},
{
closed = 1;
nodes = (
(116,13,o),
(70,63,o),
(70,135,cs),
(70,173,o),
(70,212,o),
(70,250,cs),
(70,288,o),
(70,327,o),
(70,365,cs),
(70,437,o),
(116,487,o),
(182,487,cs),
(249,487,o),
(295,437,o),
(295,365,cs),
(295,327,o),
(295,288,o),
(295,250,cs),
(295,212,o),
(295,173,o),
(295,135,cs),
(295,63,o),
(249,13,o),
(182,13,cs)
);
}
);
width = 365;
},
{
anchors = (
{
name = top;
pos = (223,532);
}
);
associatedMasterId = "4E2227F3-52E4-4048-A8EE-327B486EF0A4";
guides = (
{
angle = 39.959;
pos = (289,232);
showMeasurement = 1;
},
{
angle = -39.959;
pos = (156,232);
showMeasurement = 1;
},
{
angle = 39.959;
pos = (289,404);
showMeasurement = 1;
},
{
angle = -180;
pos = (224,260);
showMeasurement = 1;
},
{
angle = -39.959;
pos = (155,404);
showMeasurement = 1;
}
);
layerId = "A2592930-FB52-446A-8915-5702D869B7BD";
name = oldbc;
shapes = (
{
closed = 1;
nodes = (
(359,-7,o),
(435,67,o),
(435,190,cs),
(435,330,ls),
(435,456,o),
(359,532,o),
(223,532,cs),
(87,532,o),
(10,456,o),
(10,330,cs),
(10,190,ls),
(10,67,o),
(87,-7,o),
(223,-7,cs)
);
},
{
closed = 1;
nodes = (
(206,154,o),
(198,165,o),
(198,186,cs),
(198,339,ls),
(198,360,o),
(206,371,o),
(223,371,cs),
(239,371,o),
(247,360,o),
(247,339,cs),
(247,186,ls),
(247,165,o),
(239,154,o),
(223,154,cs)
);
}
);
width = 445;
},
{
anchors = (
{
name = top;
pos = (223,532);
}
);
associatedMasterId = "4E2227F3-52E4-4048-A8EE-327B486EF0A4";
guides = (
{
angle = 39.959;
pos = (289,232);
showMeasurement = 1;
},
{
angle = -39.959;
pos = (156,232);
showMeasurement = 1;
},
{
angle = 39.959;
pos = (289,404);
showMeasurement = 1;
},
{
angle = -180;
pos = (224,260);
showMeasurement = 1;
},
{
angle = -39.959;
pos = (155,404);
showMeasurement = 1;
}
);
layerId = "F7F399D2-DBAD-450E-B011-6AA073A84551";
name = "Feb 24 17, 00:19";
shapes = (
{
closed = 1;
nodes = (
(359,-7,o),
(435,57,o),
(435,170,cs),
(435,193,o),
(435,237,o),
(435,260,cs),
(435,283,o),
(435,327,o),
(435,350,cs),
(435,456,o),
(359,532,o),
(223,532,cs),
(87,532,o),
(10,456,o),
(10,350,cs),
(10,327,o),
(10,283,o),
(10,260,cs),
(10,237,o),
(10,193,o),
(10,170,cs),
(10,57,o),
(87,-7,o),
(223,-7,cs)
);
},
{
closed = 1;
nodes = (
(215,154,o),
(207,158,o),
(204,164,cs),
(198,175,o),
(198,195,o),
(198,260,cs),
(198,332,o),
(197,348,o),
(204,360,cs),
(208,366,o),
(214,371,o),
(223,371,cs),
(231,371,o),
(238,366,o),
(241,360,cs),
(247,348,o),
(247,332,o),
(247,260,cs),
(247,196,o),
(247,176,o),
(241,164,cs),
(238,158,o),
(231,154,o),
(223,154,cs)
);
}
);
width = 445;
},
{
anchors = (
{
name = top;
pos = (279,528);
}
);
associatedMasterId = "FFFA8D72-12AC-4CE0-B2CA-57A29829F4DA";
guides = (
{
pos = (281,149);
},
{
pos = (279,337);
},
{
pos = (281,263);
},
{
pos = (272,376);
},
{
pos = (279,183);
}
);
layerId = "3BC5E746-F1A8-4E9E-AC32-B78A69EF247C";
name = "Jun 26 17, 03:57";
shapes = (
{
closed = 1;
nodes = (
(376,-8,o),
(453,35,o),
(496,107,cs),
(522,150,o),
(536,203,o),
(536,263,cs),
(536,340,o),
(512,404,o),
(470,450,cs),
(425,500,o),
(360,528,o),
(280,528,cs),
(200,528,o),
(134,500,o),
(89,450,cs),
(46,404,o),
(22,339,o),
(22,261,cs),
(22,187,o),
(44,125,o),
(82,79,cs),
(127,24,o),
(195,-8,o),
(279,-8,cs)
);
},
{
closed = 1;
nodes = (
(259,153,o),
(243,161,o),
(232,177,cs),
(218,195,o),
(211,224,o),
(211,262,cs),
(211,296,o),
(217,323,o),
(229,341,cs),
(241,358,o),
(258,367,o),
(279,367,cs),
(301,367,o),
(318,357,o),
(330,339,cs),
(341,321,o),
(347,295,o),
(347,262,cs),
(347,227,o),
(341,199,o),
(329,181,cs),
(318,163,o),
(301,153,o),
(279,153,cs)
);
}
);
width = 558;
},
{
anchors = (
{
name = bottom;
pos = (269,0);
},
{
name = center;
pos = (269,255);
},
{
name = ogonek;
pos = (491,10);
},
{
name = top;
pos = (268,509);
},
{
name = topright;
pos = (371,509);
}
);
associatedMasterId = "DCBE1F7B-116A-43E0-B7B4-8657BA77D8B5";
attr = {
coordinates = (
100,
500
);
};
guides = (
{
angle = 66;
pos = (192,250);
showMeasurement = 1;
},
{
angle = 112;
pos = (191,250);
showMeasurement = 1;
},
{
angle = -180;
pos = (191,250);
showMeasurement = 1;
}
);
hints = (
{
horizontal = 1;
place = (376, 1);
place = (376, 1);
type = Stem;
},
{
place = (71, 0);
place = (71, 0);
type = Stem;
},
{
place = (390, 0);
place = (390, 0);
type = Stem;
},
{
horizontal = 1;
place = (135, 0);
place = (135, 0);
type = Stem;
}
);
layerId = "22FBC3BF-9A53-4197-B8D5-FFF91FDE2E33";
name = "{100,500}";
shapes = (
{
closed = 1;
nodes = (
(367,-8,o),
(443,45,o),
(474,135,cs),
(486,170,o),
(493,213,o),
(493,257,cs),
(493,299,o),
(486,343,o),
(474,377,cs),
(443,465,o),
(368,517,o),
(271,517,cs),
(168,517,o),
(91,465,o),
(61,376,cs),
(50,344,o),
(44,299,o),
(44,256,cs),
(44,213,o),
(51,168,o),
(62,135,cs),
(92,45,o),
(170,-8,o),
(270,-8,cs)
);
},
{
closed = 1;
nodes = (
(214,78,o),
(172,109,o),
(156,162,cs),
(149,185,o),
(145,220,o),
(145,255,cs),
(145,291,o),
(149,325,o),
(156,347,cs),
(173,400,o),
(214,431,o),
(268,431,cs),
(323,431,o),
(364,400,o),
(381,347,cs),
(388,325,o),
(392,291,o),
(392,255,cs),
(392,222,o),
(388,187,o),
(380,162,cs),
(363,109,o),
(322,78,o),
(270,78,cs)
);
}
);
width = 538;
},
{
anchors = (
{
name = bottom;
pos = (215,0);
},
{
name = center;
pos = (215,257);
},
{
name = ogonek;
pos = (392,10);
},
{
name = top;
pos = (215,514);
},
{
name = topright;
pos = (326,514);
}
);
associatedMasterId = "DCBE1F7B-116A-43E0-B7B4-8657BA77D8B5";
attr = {
coordinates = (
140,
300
);
};
guides = (
{
angle = 66;
pos = (196,250);
showMeasurement = 1;
},
{
angle = 112;
pos = (195,250);
showMeasurement = 1;
},
{
angle = -180;
pos = (195,250);
showMeasurement = 1;
}
);
hints = (
{
horizontal = 1;
origin = (0,11);
target = (1,11);
type = Stem;
},
{
origin = (0,17);
target = (1,5);
type = Stem;
},
{
origin = (1,17);
target = (0,5);
type = Stem;
},
{
horizontal = 1;
origin = (0,23);
target = (1,23);
type = Stem;
}
);
layerId = "EA1AB241-8DA3-4100-8058-CF0ADAFE7BDD";
name = "{140,300}";
shapes = (
{
closed = 1;
nodes = (
(335,-8,o),
(405,56,o),
(405,160,cs),
(405,187,o),
(405,230,o),
(405,257,cs),
(405,284,o),
(405,327,o),
(405,354,cs),
(405,454,o),
(335,522,o),
(215,522,cs),
(96,522,o),
(25,454,o),
(25,354,cs),
(25,327,o),
(25,284,o),
(25,257,cs),
(25,230,o),
(25,187,o),
(25,160,cs),
(25,56,o),
(96,-8,o),
(215,-8,cs)
);
},
{
closed = 1;
nodes = (
(185,113,o),
(165,136,o),
(165,171,cs),
(165,199,o),
(165,228,o),
(165,257,cs),
(165,286,o),
(165,315,o),
(165,344,cs),
(165,378,o),
(185,402,o),
(215,402,cs),
(244,402,o),
(265,378,o),
(265,344,cs),
(265,315,o),
(265,286,o),
(265,257,cs),
(265,228,o),
(265,199,o),
(265,171,cs),
(265,136,o),
(244,113,o),
(215,113,cs)
);
}
);
width = 430;
}
);
unicode = 111;
userData = {
KernOnName = o;
};
},
{
color = 3;
glyphname = oslash;
layers = (
{
layerId = "262880E7-CFE1-4BDA-902E-E24798F3240A";
shapes = (
{
closed = 1;
nodes = (
(441,510,l),
(422,522,l),
(76,-1,l),
(94,-13,l)
);
},
{
ref = o;
}
);
width = 505;
},
{
layerId = "FFFA8D72-12AC-4CE0-B2CA-57A29829F4DA";
shapes = (
{
closed = 1;
nodes = (
(556,498,l),
(486,552,l),
(22,2,l),
(92,-52,l)
);
},
{
pos = (10,0);
ref = o;
}
);
width = 578;
},
{
layerId = "DCBE1F7B-116A-43E0-B7B4-8657BA77D8B5";
shapes = (
{
closed = 1;
nodes = (
(325,547,l),
(305,556,l),
(76,-41,l),
(96,-50,l)
);
},
{
ref = o;
}
);
width = 373;
},
{
layerId = "4E2227F3-52E4-4048-A8EE-327B486EF0A4";
shapes = (
{
closed = 1;
nodes = (
(487,505,l),
(434,539,l),
(16,4,l),
(67,-30,l)
);
},
{
pos = (21,0);
ref = o;
}
);
width = 503;
}
);
unicode = 248;
},
{
color = 3;
glyphname = oe;
layers = (
{
hints = (
{
horizontal = 1;
origin = (0,11);
target = (1,11);
type = Stem;
},
{
origin = (0,17);
target = (0,14);
type = Stem;
},
{
origin = (1,17);
target = (0,5);
type = Stem;
},
{
horizontal = 1;
origin = (0,23);
target = (1,23);
type = Stem;
},
{
origin = (1,17);
target = (0,5);
type = Stem;
},
{
place = (748, 22);
place = (748, 22);
type = Stem;
},
{
horizontal = 1;
place = (249, 9);
place = (249, 9);
type = Stem;
},
{
horizontal = 1;
origin = (0,11);
target = (1,11);
type = Stem;
},
{
horizontal = 1;
origin = (0,23);
target = (1,23);
type = Stem;
},
{
place = (740, 22);
place = (740, 22);
type = Stem;
}
);
layerId = "262880E7-CFE1-4BDA-902E-E24798F3240A";
shapes = (
{
closed = 1;
nodes = (
(337,-8,o),
(405,49,o),
(420,126,cs),
(426,158,o),
(425,191,o),
(425,250,cs),
(425,305,o),
(426,341,o),
(420,374,cs),
(405,451,o),
(337,508,o),
(247,508,cs),
(158,508,o),
(94,454,o),
(77,377,cs),
(69,345,o),
(70,310,o),
(70,251,cs),
(70,195,o),
(69,156,o),
(77,123,cs),
(95,46,o),
(157,-8,o),
(247,-8,cs)
);
},
{
closed = 1;
nodes = (
(165,13,o),
(109,63,o),
(96,135,cs),
(92,156,o),
(92,193,o),
(92,250,cs),
(92,302,o),
(92,343,o),
(96,365,cs),
(109,436,o),
(165,487,o),
(247,487,cs),
(329,487,o),
(387,436,o),
(400,365,cs),
(404,344,o),
(403,307,o),
(403,250,cs),
(403,198,o),
(404,157,o),
(400,135,cs),
(387,64,o),
(329,13,o),
(247,13,cs)
);
},
{
closed = 1;
nodes = (
(669,-8,o),
(733,44,o),
(752,118,c),
(730,118,l),
(712,56,o),
(657,13,o),
(581,13,cs),
(499,13,o),
(443,63,o),
(430,135,cs),
(426,156,o),
(426,193,o),
(426,250,cs),
(426,302,o),
(426,343,o),
(430,365,cs),
(443,436,o),
(499,487,o),
(581,487,cs),
(663,487,o),
(720,436,o),
(734,365,cs),
(737,345,o),
(738,302,o),
(738,258,c),
(747,270,l),
(416,270,l),
(416,252,l),
(760,252,l),
(760,336,o),
(760,351,o),
(754,377,cs),
(736,454,o),
(671,508,o),
(581,508,cs),
(492,508,o),
(426,451,o),
(411,374,cs),
(405,342,o),
(404,310,o),
(404,251,cs),
(404,195,o),
(404,159,o),
(411,126,cs),
(427,49,o),
(492,-8,o),
(581,-8,cs)
);
}
);
width = 822;
},
{
layerId = "FFFA8D72-12AC-4CE0-B2CA-57A29829F4DA";
shapes = (
{
closed = 1;
nodes = (
(395,-8,o),
(463,75,o),
(499,169,cs),
(511,200,o),
(519,218,o),
(519,263,cs),
(519,304,o),
(512,323,o),
(499,356,cs),
(459,457,o),
(388,528,o),
(276,528,cs),
(165,528,o),
(78,470,o),
(42,376,cs),
(28,340,o),
(22,300,o),
(22,261,cs),
(22,226,o),
(27,188,o),
(42,149,cs),
(79,52,o),
(165,-8,o),
(275,-8,cs)
);
},
{
closed = 1;
nodes = (
(253,153,o),
(236,163,o),
(225,184,cs),
(216,202,o),
(211,228,o),
(211,262,cs),
(211,295,o),
(216,320,o),
(225,337,cs),
(236,357,o),
(253,367,o),
(275,367,cs),
(297,367,o),
(314,357,o),
(324,337,cs),
(334,320,o),
(339,295,o),
(339,262,cs),
(339,228,o),
(334,202,o),
(324,184,cs),
(314,163,o),
(297,153,o),
(275,153,cs)
);
},
{
closed = 1;
nodes = (
(714,-8,o),
(784,23,o),
(839,81,c),
(746,196,l),
(726,170,o),
(682,149,o),
(636,149,cs),
(594,149,o),
(566,162,o),
(553,193,cs),
(545,210,o),
(542,233,o),
(542,262,cs),
(542,286,o),
(546,309,o),
(553,327,cs),
(563,351,o),
(583,367,o),
(611,367,cs),
(638,367,o),
(654,351,o),
(664,327,cs),
(671,310,o),
(674,287,o),
(674,262,c),
(745,305,l),
(488,305,l),
(488,216,l),
(863,216,l),
(863,299,o),
(855,343,o),
(844,373,cs),
(811,462,o),
(720,528,o),
(606,528,cs),
(490,528,o),
(420,451,o),
(383,355,cs),
(369,319,o),
(363,300,o),
(363,262,cs),
(363,219,o),
(371,201,o),
(383,169,cs),
(421,68,o),
(485,-8,o),
(621,-8,cs)
);
}
);
width = 883;
},
{
layerId = "DCBE1F7B-116A-43E0-B7B4-8657BA77D8B5";
shapes = (
{
closed = 1;
nodes = (
(262,-8,o),
(313,52,o),
(317,135,cs),
(319,173,o),
(317,212,o),
(317,250,cs),
(317,288,o),
(319,327,o),
(317,365,cs),
(313,448,o),
(262,508,o),
(182,508,cs),
(103,508,o),
(48,448,o),
(48,365,cs),
(48,327,o),
(48,288,o),
(48,250,cs),
(48,212,o),
(48,173,o),
(48,135,cs),
(48,52,o),
(103,-8,o),
(182,-8,cs)
);
},
{
closed = 1;
nodes = (
(116,13,o),
(70,63,o),
(70,135,cs),
(70,173,o),
(70,212,o),
(70,250,cs),
(70,288,o),
(70,327,o),
(70,365,cs),
(70,437,o),
(116,487,o),
(182,487,cs),
(249,487,o),
(295,437,o),
(295,365,cs),
(295,327,o),
(295,288,o),
(295,250,cs),
(295,212,o),
(295,173,o),
(295,135,cs),
(295,63,o),
(249,13,o),
(182,13,cs)
);
},
{
closed = 1;
nodes = (
(500,-8,o),
(552,40,o),
(562,109,c),
(540,109,l),
(530,51,o),
(487,13,o),
(429,13,cs),
(363,13,o),
(317,63,o),
(317,135,cs),
(317,173,o),
(317,212,o),
(317,250,cs),
(317,288,o),
(317,327,o),
(317,365,cs),
(317,437,o),
(363,487,o),
(429,487,cs),
(496,487,o),
(542,437,o),
(542,365,cs),
(542,327,o),
(542,288,o),
(542,261,c),
(551,267,l),
(309,267,l),
(309,249,l),
(564,249,l),
(564,289,o),
(564,327,o),
(564,365,cs),
(564,448,o),
(509,508,o),
(429,508,cs),
(350,508,o),
(299,448,o),
(295,365,cs),
(293,327,o),
(295,288,o),
(295,250,cs),
(295,212,o),
(293,173,o),
(295,135,cs),
(299,52,o),
(350,-8,o),
(429,-8,cs)
);
}
);
width = 607;
},
{
hints = (
{
horizontal = 1;
origin = (0,11);
stem = -1;
target = (1,11);
type = TTStem;
},
{
horizontal = 1;
origin = (0,23);
stem = -1;
target = (1,23);
type = TTStem;
},
{
horizontal = 1;
origin = (2,46);
stem = -1;
target = (2,6);
type = TTStem;
},
{
horizontal = 1;
origin = (2,34);
stem = -1;
target = (2,18);
type = TTStem;
},
{
horizontal = 1;
origin = (0,11);
type = TTSnap;
},
{
horizontal = 1;
options = 4;
origin = (0,11);
target = (2,34);
type = TTShift;
},
{
horizontal = 1;
options = 4;
origin = (0,23);
target = (2,46);
type = TTShift;
}
);
layerId = "4E2227F3-52E4-4048-A8EE-327B486EF0A4";
shapes = (
{
closed = 1;
nodes = (
(365,-8,o),
(401,97,o),
(441,210,cs),
(449,232,o),
(441,237,o),
(441,260,cs),
(441,283,o),
(449,289,o),
(441,310,cs),
(401,416,o),
(365,528,o),
(229,528,cs),
(93,528,o),
(16,456,o),
(16,350,cs),
(16,327,o),
(16,283,o),
(16,260,cs),
(16,237,o),
(16,193,o),
(16,170,cs),
(16,57,o),
(93,-8,o),
(229,-8,cs)
);
},
{
closed = 1;
nodes = (
(214,153,o),
(204,166,o),
(204,185,cs),
(204,210,o),
(204,235,o),
(204,260,cs),
(204,285,o),
(204,310,o),
(204,335,cs),
(204,354,o),
(214,367,o),
(229,367,cs),
(243,367,o),
(253,354,o),
(253,335,cs),
(253,310,o),
(253,285,o),
(253,260,cs),
(253,235,o),
(253,210,o),
(253,185,cs),
(253,166,o),
(243,153,o),
(229,153,cs)
);
},
{
closed = 1;
nodes = (
(627,-8,o),
(692,60,o),
(694,181,c),
(511,192,l),
(511,176,o),
(505,153,o),
(486,153,cs),
(472,153,o),
(463,166,o),
(463,185,cs),
(463,210,o),
(463,235,o),
(463,260,cs),
(463,285,o),
(463,310,o),
(463,335,cs),
(463,354,o),
(472,367,o),
(486,367,cs),
(499,367,o),
(508,354,o),
(508,335,cs),
(508,316,o),
(508,298,o),
(508,279,c),
(571,305,l),
(413,305,l),
(413,213,l),
(696,213,l),
(696,221,o),
(696,291,o),
(696,350,cs),
(696,456,o),
(620,528,o),
(486,528,cs),
(352,528,o),
(315,416,o),
(275,310,cs),
(267,289,o),
(275,283,o),
(275,260,cs),
(275,230,o),
(265,238,o),
(275,210,cs),
(315,97,o),
(352,-8,o),
(486,-8,cs)
);
}
);
width = 710;
},
{
associatedMasterId = "FFFA8D72-12AC-4CE0-B2CA-57A29829F4DA";
attr = {
coordinates = (
140,
500
);
};
hints = (
{
horizontal = 1;
origin = (0,11);
target = (1,11);
type = Stem;
},
{
origin = (0,17);
target = (1,5);
type = Stem;
},
{
origin = (1,17);
target = (0,5);
type = Stem;
},
{
horizontal = 1;
origin = (0,23);
target = (1,23);
type = Stem;
},
{
origin = (1,17);
target = (0,5);
type = Stem;
},
{
place = (697, 141);
place = (697, 141);
type = Stem;
},
{
horizontal = 1;
origin = (1,20);
target = (0,5);
type = Stem;
},
{
horizontal = 1;
origin = (0,11);
target = (1,11);
type = Stem;
},
{
horizontal = 1;
origin = (0,23);
target = (1,23);
type = Stem;
},
{
place = (730, 88);
place = (730, 88);
type = Stem;
}
);
layerId = "B919F7AB-983C-4A6F-8B3E-D89048AE680C";
name = "{140,500}";
shapes = (
{
closed = 1;
nodes = (
(372,-8,o),
(454,67,o),
(484,156,cs),
(494,188,o),
(500,210,o),
(500,259,cs),
(500,304,o),
(495,328,o),
(484,361,cs),
(451,455,o),
(367,522,o),
(268,522,cs),
(165,522,o),
(83,465,o),
(52,376,cs),
(41,344,o),
(36,306,o),
(36,259,cs),
(36,215,o),
(40,177,o),
(52,141,cs),
(84,50,o),
(165,-8,o),
(268,-8,cs)
);
},
{
closed = 1;
nodes = (
(228,112,o),
(199,137,o),
(188,176,cs),
(181,196,o),
(177,223,o),
(177,259,cs),
(177,292,o),
(180,320,o),
(187,339,cs),
(199,376,o),
(228,402,o),
(268,402,cs),
(307,402,o),
(337,377,o),
(348,339,cs),
(355,321,o),
(358,294,o),
(358,259,cs),
(358,224,o),
(355,195,o),
(348,176,cs),
(337,138,o),
(307,112,o),
(268,112,cs)
);
},
{
closed = 1;
nodes = (
(701,-8,o),
(770,29,o),
(814,92,c),
(726,167,l),
(706,131,o),
(662,109,o),
(628,109,cs),
(567,109,o),
(531,133,o),
(518,176,cs),
(511,194,o),
(509,221,o),
(509,259,cs),
(509,291,o),
(512,319,o),
(518,338,cs),
(529,376,o),
(558,402,o),
(601,402,cs),
(644,402,o),
(674,376,o),
(685,338,cs),
(691,320,o),
(693,291,o),
(693,261,c),
(746,304,l),
(468,304,l),
(468,208,l),
(834,208,l),
(834,294,o),
(828,345,o),
(818,374,cs),
(790,460,o),
(706,522,o),
(599,522,cs),
(498,522,o),
(415,451,o),
(385,361,cs),
(373,326,o),
(368,303,o),
(368,259,cs),
(368,212,o),
(374,189,o),
(385,156,cs),
(416,62,o),
(495,-8,o),
(610,-8,cs)
);
}
);
width = 866;
},
{
associatedMasterId = "FFFA8D72-12AC-4CE0-B2CA-57A29829F4DA";
attr = {
coordinates = (
140,
300
);
};
layerId = "DC9AEC88-6814-4214-BBCA-94A22AA36547";
name = "{140,300}";
shapes = (
{
closed = 1;
nodes = (
(335,-8,o),
(375,84,o),
(405,188,cs),
(411,215,o),
(405,230,o),
(405,257,cs),
(405,284,o),
(411,300,o),
(405,326,cs),
(375,425,o),
(335,522,o),
(215,522,cs),
(96,522,o),
(25,454,o),
(25,354,cs),
(25,327,o),
(25,284,o),
(25,257,cs),
(25,230,o),
(25,187,o),
(25,160,cs),
(25,56,o),
(96,-8,o),
(215,-8,cs)
);
},
{
closed = 1;
nodes = (
(185,112,o),
(165,136,o),
(165,170,cs),
(165,199,o),
(165,228,o),
(165,257,cs),
(165,286,o),
(165,315,o),
(165,344,cs),
(165,378,o),
(185,402,o),
(215,402,cs),
(245,402,o),
(265,378,o),
(265,344,cs),
(265,315,o),
(265,286,o),
(265,257,cs),
(265,228,o),
(265,199,o),
(265,170,cs),
(265,136,o),
(245,112,o),
(215,112,cs)
);
},
{
closed = 1;
nodes = (
(590,-8,o),
(651,54,o),
(655,160,c),
(519,168,l),
(516,140,o),
(500,112,o),
(469,112,cs),
(440,112,o),
(420,136,o),
(420,170,cs),
(420,199,o),
(420,228,o),
(420,257,cs),
(420,286,o),
(420,315,o),
(420,344,cs),
(420,378,o),
(440,402,o),
(469,402,cs),
(498,402,o),
(518,378,o),
(518,344,cs),
(518,319,o),
(518,295,o),
(518,274,c),
(565,304,l),
(383,304,l),
(383,210,l),
(657,210,l),
(657,228,o),
(657,301,o),
(657,354,cs),
(657,454,o),
(587,522,o),
(469,522,cs),
(351,522,o),
(310,425,o),
(281,326,cs),
(274,300,o),
(281,284,o),
(281,257,cs),
(281,225,o),
(273,219,o),
(281,188,cs),
(310,84,o),
(351,-8,o),
(469,-8,cs)
);
}
);
width = 679;
}
);
unicode = 339;
},
{
glyphname = thorn;
layers = (
{
hints = (
{
horizontal = 1;
origin = (1,11);
target = (2,11);
type = Stem;
},
{
origin = (1,17);
target = (2,5);
type = Stem;
},
{
origin = (2,17);
target = (1,5);
type = Stem;
},
{
horizontal = 1;
origin = (1,23);
target = (2,23);
type = Stem;
}
);
layerId = "262880E7-CFE1-4BDA-902E-E24798F3240A";
shapes = (
{
closed = 1;
nodes = (
(113,-200,l),
(113,700,l),
(91,700,l),
(91,-200,l)
);
},
{
closed = 1;
nodes = (
(355,-8,o),
(420,46,o),
(437,123,cs),
(444,155,o),
(443,191,o),
(443,248,cs),
(443,305,o),
(444,344,o),
(437,377,cs),
(421,454,o),
(355,508,o),
(265,508,cs),
(176,508,o),
(117,454,o),
(100,377,cs),
(93,345,o),
(94,310,o),
(94,251,c),
(94,195,o),
(93,156,o),
(100,123,cs),
(116,46,o),
(176,-8,o),
(265,-8,cs)
);
},
{
closed = 1;
nodes = (
(178,13,o),
(128,70,o),
(117,135,cs),
(114,154,o),
(113,162,o),
(113,249,cs),
(113,336,o),
(114,344,o),
(117,365,cs),
(127,432,o),
(180,487,o),
(263,487,cs),
(346,487,o),
(405,433,o),
(417,365,cs),
(420,346,o),
(421,338,o),
(421,251,cs),
(421,164,o),
(420,156,o),
(417,135,cs),
(407,65,o),
(345,13,o),
(263,13,cs)
);
}
);
width = 513;
},
{
layerId = "FFFA8D72-12AC-4CE0-B2CA-57A29829F4DA";
shapes = (
{
closed = 1;
nodes = (
(230,-200,l),
(230,700,l),
(42,700,l),
(42,-200,l)
);
},
{
closed = 1;
nodes = (
(422,-8,o),
(500,52,o),
(530,150,cs),
(541,187,o),
(545,225,o),
(545,262,cs),
(545,306,o),
(539,349,o),
(523,390,cs),
(493,466,o),
(425,528,o),
(326,528,cs),
(207,528,o),
(184,440,o),
(175,327,cs),
(173,303,o),
(172,287,o),
(172,280,cs),
(172,269,o),
(174,218,o),
(176,192,cs),
(184,91,o),
(214,-8,o),
(334,-8,c)
);
},
{
closed = 1;
nodes = (
(255,153,o),
(238,166,o),
(227,187,cs),
(217,206,o),
(212,231,o),
(212,259,cs),
(212,290,o),
(217,316,o),
(228,336,cs),
(239,355,o),
(256,367,o),
(280,367,cs),
(305,367,o),
(322,355,o),
(333,334,cs),
(343,315,o),
(348,288,o),
(348,259,cs),
(348,231,o),
(343,205,o),
(333,186,cs),
(322,166,o),
(305,153,o),
(280,153,cs)
);
}
);
width = 568;
},
{
layerId = "DCBE1F7B-116A-43E0-B7B4-8657BA77D8B5";
shapes = (
{
closed = 1;
nodes = (
(84,-200,l),
(84,700,l),
(62,700,l),
(62,-200,l)
);
},
{
closed = 1;
nodes = (
(275,-8,o),
(329,52,o),
(329,135,cs),
(329,173,o),
(329,212,o),
(329,250,cs),
(329,288,o),
(329,327,o),
(329,365,cs),
(329,448,o),
(275,508,o),
(195,508,cs),
(118,508,o),
(68,448,o),
(68,365,cs),
(68,327,o),
(68,288,o),
(68,250,cs),
(68,212,o),
(68,173,o),
(68,135,cs),
(68,52,o),
(118,-8,o),
(195,-8,cs)
);
},
{
closed = 1;
nodes = (
(129,13,o),
(84,63,o),
(84,135,cs),
(84,173,o),
(84,212,o),
(84,250,cs),
(84,288,o),
(84,327,o),
(84,365,cs),
(84,437,o),
(129,487,o),
(193,487,cs),
(260,487,o),
(307,437,o),
(307,365,cs),
(307,327,o),
(307,288,o),
(307,250,cs),
(307,212,o),
(307,173,o),
(307,135,cs),
(307,63,o),
(260,13,o),
(193,13,cs)
);
}
);
width = 377;
},
{
hints = (
{
horizontal = 1;
origin = (0,2);
type = TTSnap;
},
{
horizontal = 1;
origin = (0,3);
type = TTSnap;
},
{
horizontal = 1;
origin = (1,23);
type = TTSnap;
},
{
horizontal = 1;
origin = (1,11);
type = TTSnap;
},
{
horizontal = 1;
origin = (1,11);
stem = -1;
target = (2,11);
type = TTStem;
},
{
horizontal = 1;
origin = (1,23);
stem = -1;
target = (2,23);
type = TTStem;
}
);
layerId = "4E2227F3-52E4-4048-A8EE-327B486EF0A4";
shapes = (
{
closed = 1;
nodes = (
(210,-200,l),
(210,700,l),
(22,700,l),
(22,-200,l)
);
},
{
closed = 1;
nodes = (
(406,-8,o),
(443,60,o),
(443,170,cs),
(443,166,o),
(443,235,o),
(443,260,c),
(443,284,o),
(443,350,o),
(443,350,cs),
(443,466,o),
(402,528,o),
(306,528,cs),
(268,528,o),
(189,517,o),
(189,350,cs),
(189,345,o),
(188,313,o),
(188,260,c),
(188,241,o),
(188,175,o),
(188,170,cs),
(188,3,o),
(268,-8,o),
(306,-8,cs)
);
},
{
closed = 1;
nodes = (
(220,153,o),
(211,166,o),
(211,185,cs),
(211,210,o),
(211,235,o),
(211,260,c),
(211,285,o),
(211,310,o),
(211,335,cs),
(211,354,o),
(220,367,o),
(234,367,cs),
(247,367,o),
(255,354,o),
(255,335,cs),
(255,310,o),
(255,285,o),
(255,260,cs),
(255,235,o),
(255,210,o),
(255,185,cs),
(255,166,o),
(247,153,o),
(234,153,cs)
);
}
);
width = 460;
}
);
unicode = 254;
},
{
color = 3;
glyphname = r;
layers = (
{
anchors = (
{
name = bottom;
pos = (100,0);
},
{
name = top;
pos = (210,500);
}
);
hints = (
{
horizontal = 1;
origin = (0,1);
target = (0,1);
type = Stem;
},
{
origin = (0,3);
target = (0,0);
type = Stem;
},
{
horizontal = 1;
origin = (1,10);
target = (1,3);
type = Stem;
}
);
layerId = "262880E7-CFE1-4BDA-902E-E24798F3240A";
shapes = (
{
closed = 1;
nodes = (
(113,0,l),
(113,500,l),
(91,500,l),
(91,0,l)
);
},
{
closed = 1;
nodes = (
(113,313,l),
(113,401,o),
(172,479,o),
(257,479,cs),
(284,479,o),
(299,474,o),
(314,466,c),
(325,489,l),
(308,498,o),
(290,504,o),
(258,504,cs),
(161,504,o),
(98,420,o),
(98,313,c)
);
}
);
width = 348;
},
{
anchors = (
{
name = bottom;
pos = (132,0);
},
{
name = top;
pos = (185,520);
}
);
hints = (
{
horizontal = 1;
origin = (0,2);
type = TTSnap;
},
{
horizontal = 1;
origin = (0,3);
type = TTSnap;
},
{
horizontal = 1;
options = 4;
origin = (0,2);
target = (1,10);
type = TTShift;
}
);
layerId = "4E2227F3-52E4-4048-A8EE-327B486EF0A4";
shapes = (
{
closed = 1;
nodes = (
(210,1,l),
(210,520,l),
(22,520,l),
(22,1,l)
);
},
{
closed = 1;
nodes = (
(210,273,l),
(210,294,o),
(222,318,o),
(241,327,cs),
(265,338,o),
(304,333,o),
(314,325,c),
(343,510,l),
(334,519,o),
(318,527,o),
(293,527,cs),
(176,527,o),
(189,352,o),
(189,273,c)
);
}
);
width = 340;
},
{
anchors = (
{
name = bottom;
pos = (131,0);
},
{
name = top;
pos = (222,520);
}
);
layerId = "FFFA8D72-12AC-4CE0-B2CA-57A29829F4DA";
shapes = (
{
closed = 1;
nodes = (
(230,0,l),
(230,520,l),
(42,520,l),
(42,0,l)
);
},
{
closed = 1;
nodes = (
(230,266,l),
(230,307,o),
(264,326,o),
(293,332,cs),
(326,339,o),
(360,332,o),
(368,325,c),
(397,507,l),
(388,516,o),
(368,527,o),
(334,527,cs),
(216,527,o),
(182,387,o),
(182,266,c)
);
}
);
width = 399;
},
{
anchors = (
{
name = bottom;
pos = (66,0);
},
{
name = top;
pos = (153,500);
}
);
hints = (
{
origin = (0,3);
target = (0,0);
type = Stem;
},
{
horizontal = 1;
origin = (1,10);
target = (1,3);
type = Stem;
}
);
layerId = "DCBE1F7B-116A-43E0-B7B4-8657BA77D8B5";
shapes = (
{
closed = 1;
nodes = (
(84,0,l),
(84,500,l),
(62,500,l),
(62,0,l)
);
},
{
closed = 1;
nodes = (
(84,325,l),
(84,413,o),
(127,479,o),
(188,479,cs),
(209,479,o),
(220,474,o),
(231,466,c),
(241,489,l),
(228,498,o),
(215,504,o),
(191,504,cs),
(118,504,o),
(71,432,o),
(71,325,c)
);
}
);
width = 254;
},
{
anchors = (
{
name = bottom;
pos = (115,0);
},
{
name = top;
pos = (216,509);
}
);
associatedMasterId = "4E2227F3-52E4-4048-A8EE-327B486EF0A4";
attr = {
coordinates = (
100,
500
);
};
hints = (
{
horizontal = 1;
origin = (0,1);
target = (0,1);
type = Stem;
},
{
origin = (0,3);
target = (0,0);
type = Stem;
}
);
layerId = "0231DC7A-BAB0-489B-A1F9-3A50B9D86C74";
name = "{100,500}";
shapes = (
{
closed = 1;
nodes = (
(168,0,l),
(168,509,l),
(68,509,l),
(68,0,l)
);
},
{
closed = 1;
nodes = (
(168,301,l),
(168,367,o),
(215,408,o),
(274,410,cs),
(304,414,o),
(328,408,o),
(339,400,c),
(359,497,l),
(345,506,o),
(326,515,o),
(294,515,cs),
(187,515,o),
(137,414,o),
(137,301,c)
);
}
);
width = 372;
}
);
unicode = 114;
userData = {
KernOnName = r;
};
},
{
color = 3;
glyphname = s;
layers = (
{
anchors = (
{
name = bottom;
pos = (220,-4);
},
{
name = top;
pos = (217,500);
}
);
hints = (
{
horizontal = 1;
origin = (0,20);
target = (0,11);
type = Stem;
},
{
horizontal = 1;
origin = (0,41);
target = (0,32);
type = Stem;
},
{
origin = (0,38);
target = (0,35);
type = Stem;
},
{
origin = (0,15);
target = (0,16);
type = Stem;
}
);
layerId = "262880E7-CFE1-4BDA-902E-E24798F3240A";
shapes = (
{
closed = 1;
nodes = (
(327,-4,o),
(386,46,o),
(386,130,cs),
(386,225,o),
(300,253,o),
(217,274,cs),
(142,292,o),
(78,315,o),
(78,383,cs),
(78,446,o),
(130,483,o),
(212,483,cs),
(310,483,o),
(348,428,o),
(348,382,cs),
(348,379,l),
(370,379,l),
(370,382,ls),
(370,436,o),
(323,504,o),
(213,504,cs),
(119,504,o),
(57,460,o),
(56,382,cs),
(55,297,o),
(131,273,o),
(212,252,cs),
(288,233,o),
(364,209,o),
(364,129,cs),
(364,58,o),
(312,17,o),
(218,17,cs),
(111,17,o),
(71,92,o),
(71,134,cs),
(71,136,l),
(49,136,l),
(49,134,ls),
(49,79,o),
(98,-4,o),
(218,-4,cs)
);
}
);
width = 438;
},
{
anchors = (
{
name = bottom;
pos = (215,-8);
},
{
name = top;
pos = (207,520);
}
);
hints = (
{
horizontal = 1;
origin = (0,20);
type = TTSnap;
},
{
horizontal = 1;
origin = (0,41);
type = TTSnap;
}
);
layerId = "4E2227F3-52E4-4048-A8EE-327B486EF0A4";
shapes = (
{
closed = 1;
nodes = (
(338,-8,o),
(421,52,o),
(421,151,cs),
(421,257,o),
(332,291,o),
(261,312,cs),
(234,320,o),
(191,332,o),
(191,357,cs),
(191,373,o),
(197,383,o),
(212,383,cs),
(224,383,o),
(234,374,o),
(234,357,cs),
(234,340,l),
(409,340,l),
(409,346,ls),
(409,455,o),
(330,528,o),
(207,528,cs),
(90,528,o),
(11,463,o),
(11,358,cs),
(11,258,o),
(83,215,o),
(139,197,cs),
(182,183,o),
(232,177,o),
(232,149,cs),
(232,138,o),
(225,130,o),
(213,130,cs),
(201,130,o),
(184,139,o),
(184,161,cs),
(184,170,l),
(4,170,l),
(4,156,l),
(4,58,o),
(87,-8,o),
(215,-8,cs)
);
}
);
width = 426;
},
{
anchors = (
{
name = bottom;
pos = (259,-8);
},
{
name = top;
pos = (251,520);
}
);
layerId = "FFFA8D72-12AC-4CE0-B2CA-57A29829F4DA";
shapes = (
{
closed = 1;
nodes = (
(400,-8,o),
(497,47,o),
(497,159,cs),
(497,298,o),
(373,316,o),
(286,329,cs),
(239,336,o),
(203,343,o),
(203,365,cs),
(203,381,o),
(220,393,o),
(255,393,cs),
(289,393,o),
(310,375,o),
(310,347,cs),
(310,343,l),
(485,343,l),
(485,347,ls),
(485,456,o),
(393,528,o),
(252,528,cs),
(116,528,o),
(23,461,o),
(23,352,cs),
(23,212,o),
(149,195,o),
(234,183,cs),
(276,177,o),
(308,173,o),
(308,155,cs),
(308,138,o),
(288,128,o),
(258,128,cs),
(222,128,o),
(196,143,o),
(196,166,cs),
(196,173,l),
(16,173,l),
(16,153,l),
(16,56,o),
(109,-8,o),
(258,-8,cs)
);
}
);
width = 519;
},
{
anchors = (
{
name = bottom;
pos = (168,-4);
},
{
name = top;
pos = (165,500);
}
);
layerId = "DCBE1F7B-116A-43E0-B7B4-8657BA77D8B5";
shapes = (
{
closed = 1;
nodes = (
(244,-4,o),
(294,47,o),
(294,123,cs),
(294,218,o),
(228,244,o),
(166,270,cs),
(112,293,o),
(62,322,o),
(62,388,cs),
(62,447,o),
(103,483,o),
(165,483,cs),
(230,483,o),
(267,437,o),
(267,369,cs),
(267,366,l),
(288,366,l),
(288,369,ls),
(288,450,o),
(244,504,o),
(166,504,cs),
(91,504,o),
(40,460,o),
(40,388,cs),
(40,306,o),
(99,274,o),
(160,249,cs),
(218,225,o),
(272,202,o),
(272,123,cs),
(272,59,o),
(231,17,o),
(168,17,cs),
(93,17,o),
(60,61,o),
(60,126,cs),
(60,130,l),
(38,130,l),
(38,126,ls),
(38,48,o),
(82,-4,o),
(168,-4,cs)
);
}
);
width = 332;
},
{
anchors = (
{
name = bottom;
pos = (238,-6);
},
{
name = top;
pos = (233,509);
}
);
associatedMasterId = "4E2227F3-52E4-4048-A8EE-327B486EF0A4";
attr = {
coordinates = (
100,
500
);
};
hints = (
{
horizontal = 1;
origin = (0,20);
target = (0,11);
type = Stem;
},
{
horizontal = 1;
origin = (0,41);
target = (0,32);
type = Stem;
},
{
origin = (0,38);
target = (0,35);
type = Stem;
},
{
origin = (0,15);
target = (0,16);
type = Stem;
}
);
layerId = "85F9CC44-E494-4B9A-8AA4-6569A0BE88A1";
name = "{100,500}";
shapes = (
{
closed = 1;
nodes = (
(358,-6,o),
(438,46,o),
(438,144,cs),
(438,259,o),
(334,283,o),
(249,300,cs),
(188,313,o),
(137,328,o),
(137,375,cs),
(137,415,o),
(172,441,o),
(232,441,cs),
(299,441,o),
(328,406,o),
(328,371,cs),
(328,365,l),
(424,365,l),
(424,371,ls),
(424,448,o),
(356,515,o),
(231,515,cs),
(118,515,o),
(41,460,o),
(40,368,cs),
(40,257,o),
(139,236,o),
(222,220,cs),
(282,207,o),
(338,192,o),
(338,141,cs),
(338,96,o),
(298,69,o),
(235,69,cs),
(162,69,o),
(130,116,o),
(130,146,cs),
(130,153,l),
(33,153,l),
(33,150,ls),
(33,68,o),
(102,-6,o),
(237,-6,cs)
);
}
);
width = 476;
},
{
anchors = (
{
name = bottom;
pos = (190,-6);
},
{
name = top;
pos = (185,509);
}
);
associatedMasterId = "4E2227F3-52E4-4048-A8EE-327B486EF0A4";
attr = {
coordinates = (
100,
300
);
};
hints = (
{
horizontal = 1;
origin = (0,20);
target = (0,11);
type = Stem;
},
{
horizontal = 1;
origin = (0,41);
target = (0,32);
type = Stem;
},
{
origin = (0,38);
target = (0,35);
type = Stem;
},
{
origin = (0,15);
target = (0,16);
type = Stem;
}
);
layerId = "785EF2C0-A975-4A92-811F-C78DC21C62C7";
name = "{100,300}";
shapes = (
{
closed = 1;
nodes = (
(288,-6,o),
(354,49,o),
(354,136,cs),
(354,240,o),
(277,272,o),
(211,296,cs),
(170,312,o),
(123,326,o),
(123,368,cs),
(123,407,o),
(147,436,o),
(187,436,cs),
(227,436,o),
(254,407,o),
(254,369,cs),
(254,352,l),
(347,352,l),
(347,363,ls),
(347,452,o),
(284,515,o),
(185,515,cs),
(91,515,o),
(26,458,o),
(26,369,cs),
(26,278,o),
(91,242,o),
(150,221,cs),
(201,201,o),
(253,188,o),
(253,135,cs),
(253,96,o),
(228,70,o),
(189,70,cs),
(148,70,o),
(118,98,o),
(118,137,cs),
(118,151,l),
(22,151,l),
(22,135,ls),
(22,53,o),
(89,-6,o),
(190,-6,cs)
);
}
);
width = 376;
}
);
unicode = 115;
userData = {
KernOnName = s;
};
},
{
glyphname = germandbls;
layers = (
{
layerId = "FFFA8D72-12AC-4CE0-B2CA-57A29829F4DA";
shapes = (
{
closed = 1;
nodes = (
(230,0,l),
(230,485,l),
(230,527,o),
(269,548,o),
(309,548,cs),
(355,548,o),
(368,519,o),
(368,502,cs),
(368,477,o),
(339,452,o),
(310,452,c),
(266,452,l),
(266,306,l),
(313,306,l),
(347,306,o),
(382,279,o),
(382,233,cs),
(382,187,o),
(347,160,o),
(313,160,c),
(266,160,l),
(266,0,l),
(293,0,l),
(471,0,o),
(570,78,o),
(570,213,cs),
(570,292,o),
(535,356,o),
(489,384,c),
(540,416,o),
(556,459,o),
(556,507,cs),
(556,632,o),
(446,708,o),
(295,708,cs),
(131,708,o),
(42,619,o),
(42,467,c),
(42,1,l)
);
}
);
width = 594;
},
{
layerId = "262880E7-CFE1-4BDA-902E-E24798F3240A";
shapes = (
{
closed = 1;
nodes = (
(113,0,l),
(113,528,l),
(114,631,o),
(177,689,o),
(270,689,cs),
(367,689,o),
(426,633,o),
(429,532,cs),
(432,435,o),
(381,380,o),
(281,380,c),
(203,380,l),
(203,360,l),
(280,360,l),
(379,358,o),
(434,297,o),
(434,191,cs),
(434,80,o),
(373,20,o),
(260,20,cs),
(169,20,l),
(169,0,l),
(260,0,ls),
(385,0,o),
(456,71,o),
(456,190,cs),
(456,281,o),
(414,347,o),
(346,369,c),
(412,388,o),
(453,447,o),
(451,532,cs),
(449,640,o),
(381,709,o),
(272,709,cs),
(164,709,o),
(92,641,o),
(91,528,c),
(91,0,l)
);
}
);
width = 521;
},
{
layerId = "DCBE1F7B-116A-43E0-B7B4-8657BA77D8B5";
shapes = (
{
closed = 1;
nodes = (
(84,0,l),
(84,528,ls),
(84,631,o),
(124,688,o),
(190,688,cs),
(260,688,o),
(303,629,o),
(305,528,cs),
(307,431,o),
(270,377,o),
(204,377,c),
(146,377,l),
(146,356,l),
(203,356,l),
(271,353,o),
(309,293,o),
(309,187,cs),
(309,82,o),
(265,22,o),
(184,21,cs),
(128,20,l),
(128,0,l),
(183,0,ls),
(277,0,o),
(331,72,o),
(331,187,cs),
(331,278,o),
(300,343,o),
(251,365,c),
(299,384,o),
(329,443,o),
(327,528,cs),
(324,640,o),
(273,709,o),
(190,709,cs),
(110,709,o),
(62,641,o),
(62,528,cs),
(62,0,l)
);
}
);
width = 373;
},
{
hints = (
{
horizontal = 1;
origin = (0,4);
stem = -1;
target = (0,34);
type = TTStem;
},
{
horizontal = 1;
origin = (0,22);
stem = -1;
target = (0,20);
type = TTStem;
},
{
horizontal = 1;
origin = (0,13);
stem = -1;
target = (0,10);
type = TTStem;
},
{
horizontal = 1;
origin = (0,34);
type = TTSnap;
},
{
horizontal = 1;
origin = (0,38);
type = TTSnap;
}
);
layerId = "4E2227F3-52E4-4048-A8EE-327B486EF0A4";
shapes = (
{
closed = 1;
nodes = (
(210,0,l),
(210,498,l),
(210,530,o),
(219,548,o),
(235,548,cs),
(252,548,o),
(265,531,o),
(265,501,cs),
(265,470,o),
(251,452,o),
(232,452,c),
(234,452,l),
(234,306,l),
(235,306,l),
(261,306,o),
(279,280,o),
(279,233,cs),
(279,186,o),
(261,160,o),
(235,160,c),
(234,160,l),
(234,0,l),
(235,0,l),
(381,0,o),
(463,78,o),
(463,212,cs),
(463,292,o),
(434,352,o),
(382,384,c),
(424,412,o),
(449,449,o),
(449,515,cs),
(449,631,o),
(369,708,o),
(233,708,cs),
(99,708,o),
(22,621,o),
(22,467,c),
(22,1,l)
);
}
);
width = 473;
},
{
associatedMasterId = "FFFA8D72-12AC-4CE0-B2CA-57A29829F4DA";
layerId = "80BFA540-3014-418D-8712-EB83E7ADD57A";
name = "May 2 17, 02:29";
shapes = (
{
closed = 1;
nodes = (
(227,0,l),
(227,485,l),
(227,525,o),
(262,548,o),
(298,548,cs),
(332,548,o),
(358,527,o),
(358,496,cs),
(358,468,o),
(337,444,o),
(307,444,c),
(254,444,l),
(254,306,l),
(302,306,l),
(346,306,o),
(372,279,o),
(372,233,cs),
(372,187,o),
(346,160,o),
(302,160,c),
(254,160,l),
(254,0,l),
(281,0,l),
(457,0,o),
(560,78,o),
(560,213,cs),
(560,292,o),
(525,356,o),
(479,384,c),
(530,408,o),
(546,450,o),
(546,500,cs),
(546,624,o),
(447,708,o),
(292,708,cs),
(132,708,o),
(39,619,o),
(39,467,c),
(39,1,l)
);
}
);
width = 587;
}
);
unicode = 223;
},
